<?xml version="1.0" encoding="UTF-8" standalone="no"?>
<svg
   xmlns:dc="http://purl.org/dc/elements/1.1/"
   xmlns:cc="http://creativecommons.org/ns#"
   xmlns:rdf="http://www.w3.org/1999/02/22-rdf-syntax-ns#"
   xmlns:svg="http://www.w3.org/2000/svg"
   xmlns="http://www.w3.org/2000/svg"
   xmlns:sodipodi="http://sodipodi.sourceforge.net/DTD/sodipodi-0.dtd"
   xmlns:inkscape="http://www.inkscape.org/namespaces/inkscape"
   viewBox="0 0 1000 1000"
   id="svg2"
   version="1.1"
   inkscape:version="0.91 r13725"
   sodipodi:docname="beach.svg">
  <metadata
     id="metadata120">
    <rdf:RDF>
      <cc:Work
         rdf:about="">
        <dc:format>image/svg+xml</dc:format>
        <dc:type
           rdf:resource="http://purl.org/dc/dcmitype/StillImage" />
        <dc:title></dc:title>
      </cc:Work>
    </rdf:RDF>
  </metadata>
  <defs
     id="defs118" />
  <sodipodi:namedview
     pagecolor="#ffffff"
     bordercolor="#666666"
     borderopacity="1"
     objecttolerance="10"
     gridtolerance="10"
     guidetolerance="10"
     inkscape:pageopacity="0"
     inkscape:pageshadow="2"
     inkscape:window-width="1366"
     inkscape:window-height="749"
     id="namedview116"
     showgrid="false"
     inkscape:zoom="0.472"
     inkscape:cx="399.62701"
     inkscape:cy="446.71448"
     inkscape:window-x="0"
     inkscape:window-y="19"
     inkscape:window-maximized="0"
     inkscape:current-layer="svg2" />
  <path
     fill="#fff"
     d="M227.298 104.01s-15-33.332-52.5-33.332-46.667 42.5-46.667 42.5-5.41-10.833-30-9.167c-24.58 1.67-19.16 30-19.16 30s-27.5-6.66-30 13.34 37.5 10.84 37.5 10.84 2.5 20.832 26.67 18.332 35-22.374 35-22.374 3.336 16.464 23.336 14.837c20-1.63 25-18.295 25-18.295s10 26.668 39.167 22.5c29.168-4.166 46.668-32.5 46.668-32.5s29.168 1.043 34.168-16.98c5-18.02-39.165-18.02-50.832-12.186 0 0-2.5-15-20-16.664-17.5-1.667-18.332 9.166-18.332 9.166M337.1 316.034s39.23 14.15 69.455 0c0 0 48.35 4.414 54.213-11.02 5.864-15.435-25.743-23.062-40.62-14.06 0 0-5.234-20.385-29.67-21.767-24.438-1.383-26.79 17.427-26.79 17.427s-6.652-11.153-20.157-5.98c-13.5 5.177-10.93 21.897-10.93 21.897s-20.2-10.69-21.42 7.72c-.8 12.07 25.93 5.78 25.93 5.78m498.907-6.01s56.668 29.166 104.168 0c0 0 35.833 5.833 42.5-9.167 6.667-15-33.333-10-33.333-10s-5-35.624-43.332-16.98c0 0-24.164-36.352-56.664 4.48 0 0-30-7.257-25.832 12.62 0 0-28.33-14.286-35 4.88-6.664 19.168 37.5 18.334 47.5 14.168"
     id="path4" />
  <path
     d="M729.823 248.686c-65.72 0-118.995-53.276-118.995-118.995 0-65.71 53.275-118.99 118.995-118.99s118.995 53.28 118.995 118.99c0 65.72-53.276 119-118.995 119"
     fill="#f6e183"
     id="path6" />
  <path
     fill="#fcd6bc"
     d="M632.566 531.46s9.003-12.22 22.508-13.184c13.505-.964 25.403 16.078 25.08 41.48 0 0 7.396 1.608 12.863-12.54 0 0-4.502-6.753 2.25-9.647 6.753-2.9 6.432 9 6.432 9s2.25-10.27 7.39-7.55c5.14 2.72 0 10.44 0 10.44s6.75-4.18 8.68.64c1.93 4.82-7.08 5.142-7.08 5.142s6.11 1.61 5.145 6.11c-.964 4.5-6.75 0-6.75 0s-16.4 3.86-18.97 8.682c-2.576 4.822-5.47 14.146-12.865 12.54-7.394-1.61-4.18-21.223-4.18-25.725 0-4.5-9.314-31.044-26.36-16.327-17.05 14.72-14.154-9.076-14.154-9.076M563.534 601.4s-15.253 15.89-25.24 12.373c-9.982-3.52-15.42-20.227-15.42-20.227s5.144-7.58 1.085-12.18c-4.06-4.6-8.93-3.25-15.156 0-6.22 3.247-19.005-1.624-22.49.27-3.485 1.895-4.84 4.756-4.84 4.756s-4.87-5.025-7.575-3.4c-2.705 1.622 1.354 8.117 2.98 8.117 0 0-6.686 3.246-3.885 5.952 2.8 2.707 8.483.27 8.483.27s-2.165 4.87.812 6.767c2.977 1.893 7.578-2.978 7.578-2.978s-1.082 7.576 4.6 7.035c5.685-.54 2.558-8.75 3.52-9.74 1.76-1.813 9.05-8.074 19.213-3.518 0 0 5.457 21.21 19.743 27.16 14.286 5.954 31.54-5.085 36.41-10.227 4.872-5.144-9.81-10.437-9.81-10.437"
     id="path10" />
  <path
     fill="#f7941d"
     d="M608.954 536.926s16.86-2.25 22.326-8.682c0 0 14.79 6.43 18.006 17.686 0 0-19.935 18.61-31.51 23.84-11.577 5.23-13.963 11.243-17.027 16.27-5.86 9.61-21.25 28.77-28 35.262 0 0-9.81-15.565-17.286-18.78 0 0 13.16-14.286 13.746-19.752.586-5.466-1.355-14.608 1.56-19.11 2.917-4.5 38.174-26.734 38.174-26.734"
     id="path12" />
  <path
     fill="#b27325"
     d="M600.75 581.216s-13.89 6.95-26.407-2.795c0 0 9.06 6.34 26.406 2.8"
     id="path14" />
  <path
     fill="#fcd6bc"
     d="M546.27 500.335s-27.37-26.53-46.126-37.197c-16.964-9.646-23.267-15.146-52.826-23.746 0 0-5.6-13.09-7.975-16.023-2.375-2.94-6.164 1.02-4.795 4.02.81 1.76 3.33 10.62 3.33 10.62s-24.218-2.32-23.415 2.44c.8 4.76 15.033 4.34 15.033 4.34s-17.134 7.42-14.545 11.324c2.59 3.904 19.19-4.058 19.19-4.058s-8.742 9.257-5.24 11.696c3.5 2.44 17.62-14.594 17.62-14.594s44.32 14.2 90.385 57.39c5.68 6.003 20.064 1.79 9.377-6.23"
     id="path16" />
  <path
     fill="#fcd6bc"
     d="M542.65 388.734s25.337 33.293 32.13 53.097c6.036 17.59 2.144 39.95-3.208 49.84 0 0 30.14 29.56 32.61 43.83 2.473 14.28-32.008 32.34-35.26 29.57-3.254-2.76-1.123-17.35-6.432-26.91-5.31-9.55-25.754-28.4-28.13-33.94-2.378-5.54 4.43-8.672 8.47-9.41 4.04-.733 11.59-4.733 11.59-4.733s18.425-9.523 9.88-42.472c-5.73-22.094-17.706-39.66-29.542-53.28-2.965 1.578-20.715 4.473-22.052 1.964-1.338-2.51 11.092-8.158 11.606-9.92.513-1.764-11.797-17.025-9.957-21.866 1.84-4.84 11.637 9.757 13.248 11.018 1.612 1.26-4.596-15.472-.293-18.184 4.302-2.71 8.492 17.186 8.97 17.37.48.185-.34-16.48 4.447-17.063 4.788-.585 1.923 31.106 1.923 31.106"
     id="path18" />
  <path
     fill="#dfa178"
     d="M550.067 506.145s4.807 8.325 3.192 13.54c0 0 4.37-7.984-3.2-13.54m6.462-3.687s5.842 9.636 15.04 8.027c0 0-10.036-3.113-15.04-8.027m18.215 34.04s-13.43-22.46-19.727-28.916c0 0 15.97 16.74 19.726 28.915m-6.768-57.61s-7.615 7.43-14.24 9.276-5.405-4.672-5.405-4.672l19.644-4.6"
     id="path20" />
  <path
     fill="#fcd6bc"
     d="M533.994 481.182s6.887 11.272 7.43 14.557c.54 3.28 12.55 1.67 12.605-1.29.05-2.958-8.33-15.8-8.33-15.8l-11.71 2.53"
     id="path22" />
  <path
     fill="#fcd6bc"
     d="M538.168 426.944s8.168 12.87 16.002 25.69c1.18-.672 2.845-1.5 3.662-1.347 1.343.25 2.188 2.962 2.175 3.636-.01.476-1.826 1.81-2.893 2.555 6.062 10.036 11.23 19.003 11.205 20.367-.07 3.293-11.26 8.764-15.73 8.078-4.48-.687-23.57-19.926-28.52-27.51-4.947-7.583-7.89-40.583 14.09-31.47"
     id="path24" />
  <path
     fill="#675330"
     d="M542.5 454.35s-1.76-15.077-3.94-17.59c0 0 6.372-3.47 4.566-14.51-1.805-11.04-8.343-9.822-10.473-4.248 0 0-6.886-15.407-20.617-13.88-13.73 1.53-.303 15.493-.303 15.493s-17.068-11.564-25.55-2.746c-8.484 8.81 11 11.7 11 11.7s-16.454 14.47-8.454 30.34c0 0-5.94 5.05-3.08 7.8 2.862 2.75 7.02-3.008 7.02-3.008s-2.64 8.483 1.154 9.68c3.795 1.2 7.542-6.59 7.542-6.59s6.693 20.795 11.09 22.23c4.393 1.433 11.494-5.616 11.494-5.616s-.443 11.222 3.814 11.754c4.26.533 12.147-12.34 12.147-12.34s-.902 3.064 4.014 2.967c4.914-.096 3.364-21.463.5-25.562-2.87-4.1-1.937-5.885-1.937-5.885"
     id="path26" />
  <path
     fill="#fcd6bc"
     d="M540.83 463.11c-2.587-2.868-3.127-12.412.285-14.593 3.412-2.18 3.29 6.79 3.89 9.278.597 2.49 5.02 5.945 4.08 8.173-.942 2.228-4.957.8-8.255-2.857"
     id="path28" />
  <path
     fill="#1f1718"
     d="M546.11 447.07c-.7.513-.46 2.288.535 3.966.996 1.678 2.37 2.623 3.072 2.11.7-.51.462-2.286-.535-3.965-.995-1.67-2.37-2.62-3.07-2.11"
     id="path30" />
  <path
     fill="#47321f"
     d="M543.88 437.986s-6.35 4.74-5.65 8.785c0 0-1.252-10.79 5.65-8.78"
     id="path32" />
  <path
     fill="#f57b8c"
     d="M562.926 474.428a2.092 2.092 0 0 1-.51.477c-2.94 1.932-6.964-1.97-9.913-5.736.005 0 6.227-.92 10.423 5.25"
     id="path34" />
  <path
     fill="#9e2a2c"
     d="M559.868 462.07s5.38 9.35 3.058 12.358c-4.196-6.17-10.42-5.26-10.423-5.26-2.277-2.905-3.913-5.73-3.913-5.73l11.278-1.37"
     id="path36" />
  <path
     fill="#daae1f"
     d="M604.108 481.195s7.403-14.622 14.23-10.91c6.825 3.712-3.778 17.598-3.778 17.598s-6.423 1.336-10.452-6.688"
     id="path38" />
  <path
     fill="#e9d71e"
     d="M597.653 522.04s2.955 4.738 3.703 6.29c0 0-13.732 21.39-34.547 24.59 0 0-.69-6.748-2.76-10.787 0 0-27.02 9.18-20.9 24.292 6.13 15.113 30.883 11.897 53.392-2.893 22.51-14.79 33.12-30.084 26.045-41.57-7.074-11.486-24.945.078-24.945.078"
     id="path40" />
  <path
     fill="#e9d71e"
     d="M606.61 522.04s5.762-11.865-.67-19.582c-6.43-7.717-14.195-9.345-14.195-16.373 0-9.692 11.102-12.7 18.65-7.198 4.32 3.148 24.595 30.792 11.09 49.442-13.505 18.64-14.874-6.29-14.874-6.29"
     id="path42" />
  <path
     fill="#201d21"
     d="M600.75 483.49a2.595 2.595 0 1 0 5.19 0 2.595 2.595 0 0 0-5.19 0"
     id="path44" />
  <path
     fill="#fff"
     d="M602.038 482.504a.986.986 0 1 0 1.972 0 .986.986 0 0 0-1.972 0m12.617 40.834c-4.228-2.238-6.15 9.457-13.906 15.756-4.05 3.282-13.38 7.707-12.62 11.41.76 3.702 13.62-.8 19.41-5.944 5.78-5.144 14.19-17.475 7.11-21.222"
     id="path46" />
  <path
     fill="#b0a425"
     d="M561.237 553.232s22.553 1.98 41.487-26.84c0 0-20.927 26.8-41.487 26.84"
     id="path48" />
  <path
     fill="#fff"
     d="M582.558 554.32c-3.07-3.3-7.333 1.736-5.886 4.147 1.447 2.412 10.325.63 5.886-4.146"
     id="path50" />
  <path
     fill="#e7b094"
     d="M154.004 888.133c6.612 25.77 85.993 9.46 161.235-15.527 75.24-24.988 55.88-50.045 6.48-41.133-49.41 8.91-173.16 35.438-167.72 56.66"
     id="path78" />
  <path
     fill="#19171a"
     d="M162.064 759.748s-9.002-24.343-7.98-28.768l11.328-6.76 11.933 30.674-15.28 4.854m15.28-24.028l51.076-11.5 7.24 17.764 12.06-2.888-7.712-24.6s-62.12 9.166-62.652 21.224"
     id="path80" />
  <path
     fill="#3e3d45"
     d="M256.912 735.83s-10.317-30.376-12.178-30.41c-1.86-.035-72.592 14.985-79.322 18.8 0 0 7.114 27.02 10.298 32.32 0 0 10.687-.39 13.29-2.403 0 0-6.803-21.205-5.942-22.598.86-1.4 54.168-12.4 54.32-11.9.154.5 6.574 20.41 6.574 20.41s11.125-2.07 12.96-4.23"
     id="path82" />
  <path
     fill="#19171a"
     d="M133.892 775.548s26.12-16.537 40.84-21.003c14.72-4.468 51.565 118.43 46.066 121.53-5.498 3.1-28.4 7.593-33.852 8.21-5.453.614-41.203-71.932-53.054-108.737"
     id="path84" />
  <path
     fill="#2e2c33"
     d="M305.523 728.55c-1.357-1.79-129.21 20.15-137.095 29.308 0 0 40.91 114.315 52.37 118.217 0 0 80.85-18.183 118.726-34.673 0 0-13.243-85.445-34-112.85"
     id="path86" />
  <path
     fill="#54555d"
     d="M149.26 766.462s34.974 89.39 56.2 113.77l-2.724.93S174.16 848.465 146.48 768.03l2.78-1.566"
     id="path88" />
  <path
     fill="#e3e1df"
     d="M184.56 849.145s-23.315 10.897-26.604 23.46L128 812.203s14.607-10.518 31.992-16.103c0 0 16.668 35.293 24.57 53.045"
     id="path90" />
  <path
     fill="#fff"
     d="M153.244 779.086s16.995 44.24 27.194 62.402l-20.384 13.828s-31.23-65.467-32.322-69.807l25.512-6.43"
     id="path92" />
  <path
     fill="#e7b094"
     d="M186.946 884.284s26.857-7.245 34.407-14.962c7.55-7.717 27.44-19.775 38.236-18.81 10.79.964 23.81 2.785 30.56-.054 6.75-2.84 17.36-21.168 28.94-23.58 11.572-2.412 12.54 4.595 12.54 4.595s13.02-2.183 14.47 6.498c1.443 8.69-37.14 24.47-41.966 27.43-4.823 2.96-110.924 31.44-117.2 18.89"
     id="path94" />
  <path
     fill="#fff"
     d="M305.264 425.98c.54-.74 57.807-24.066 57.807-24.066s-.27-8.74-3.89-13.464c0 0-14.85 14.342-41.992 20.443-27.144 6.1-50.42 19.817-51.79 26.14-1.366 6.32 39.877-9.052 39.877-9.052"
     id="path96" />
  <path
     fill="#40444d"
     d="M252.98 457.855s28.866 12.984 32.45 34.04c3.586 21.056-12.17 48.15-20.792 53.06 0 0 11.75 15.44 17.542 18.104 0 0 31.05-46.58 20.917-75.78-10.132-29.2-20.74-31.16-20.74-31.16s37.064-20.27 72.197-5.588c0 0 18.287-25.286 9.405-51.633 0 0-33.32 15.874-46.49 20.69-13.17 4.816-48.64 12.272-52.09 15.43-3.457 3.16-13.65 17.66-12.41 22.824"
     id="path98" />
  <path
     fill="#5d646a"
     d="M253.91 452.816s15.634 5.014 17.554 4.71l-.484-21.62s28.07 9.366 30.885 9.554c0 0 23.42-28.37 29.34-31.34 0 0-23.658 7.603-35.777 9.103-12.12 1.5-28.904 7.697-35.177 13.78-6.27 6.085-6.34 15.813-6.34 15.813"
     id="path100" />
  <path
     fill="#e9e7e6"
     d="M226.662 436.61s-4.905 6.18 2.728 16.358c7.632 10.176 25.506 18.727 30.05 29.797 0 0 4.29-10.615.47-16.873-3.82-6.26-4.8-19.526 2.024-27.7 7.705-9.23 26.214-20.458 45.96-25.096 19.747-4.638 34.422-13.313 34.422-13.313s-7.88-6.013-6.767-16.043c0 0-35 7.454-48.42 22.385-13.42 14.932-57.47 23.517-60.47 30.486"
     id="path102" />
  <path
     fill="#fff"
     d="M242.724 431.96l14.74 3.508.014-5.732s22.24-8.745 28.67-14.287c6.428-5.55 38.623-31.94 64.552-31.41 0 0-5.22-14.56-11.323-17.15 0 0-48.086 16.6-57.408 28.333-9.33 11.736-39.25 36.727-39.25 36.727"
     id="path104" />
  <path
     fill="#40444d"
     d="M237.782 433.392s14.665-4.492 23.517-12.25c8.85-7.758 30.65-26.12 45.59-33.46 14.95-7.34 50.07-20.148 50.07-20.148s-17.537-22.41-33.208-19.882c0 0-71.015 40.307-85.255 60.498 0 0-16.844-10.778-36.985-15.595-14.58-3.487-45.91-8.276-53.64-21.103 0 0-13.42 12.614-18.847 15.845 0 0 17.29 17.09 35.8 20.756 18.512 3.665 35.87 1.333 46.8 7.876 10.934 6.54 17.07 17.32 17.07 17.32l9.08.13"
     id="path106" />
  <path
     fill="#5d646a"
     d="M228.705 433.258s1.702-17.826 4.73-22.97c0 0 14.303 9.937 21.402 11.263 0 0 2.484-20.68 6.733-27.69 0 0 29.013.15 51.742-9.13 0 0-17.312 8.47-28.707 17.41-11.396 8.948-35.553 35.79-55.9 31.13"
     id="path108" />
  <path
     fill="#fff"
     d="M250.595 441.808s-19.513-17.166-25.265 2.6c0 0-1.777-5.82.37-11.126 2.144-5.308 9.234-8.57 15.716-6.996 6.48 1.575 9.18 15.522 9.18 15.522"
     id="path110" />
  <path
     fill="#28282e"
     d="M264.638 544.956s9.058 1.893 13.238 8.305c4.18 6.42 4.304 9.8 4.304 9.8s-8.914-5.49-17.542-18.1M129.035 387.3s16.825-13.067 18.845-15.846c0 0-4.02 13.248-18.845 15.845"
     id="path112" />
  <path
     fill="#40444d"
     d="M355.064 456.265c-.753.012-1.013-.986-.4-1.382.794-.514 1.61-.913 2.23-1.65.625-.746.71-1.772.885-2.693.17-.9 1.47-.838 1.71-.03.88 2.887-1.5 5.706-4.43 5.755m7.37 2.2c-.57.124-1.018-.7-.44-.982 1.12-.553 1.205-2.17 2.4-2.638.218-.085.525.083.57.314.26 1.37-1.24 3.02-2.535 3.3m-216.82-53.85c-3.224 1.58-7.59-1.748-9.85-3.76-.67-.59.255-1.51.932-.98a22.376 22.376 0 0 0 4.19 2.54c1.503.705 3.263.66 4.707 1.438.27.146.32.61.02.756m-5.71 3.75c-.965.07-2.005-.52-2.864-.91-1.05-.48-2.11-.93-3.144-1.44-.664-.33-.204-1.25.45-1.14 1.155.19 2.257.52 3.34.94.947.367 2.146.824 2.667 1.75a.534.534 0 0 1-.445.803m120.91 129.86c-1.2 3.376-1.61 6.353.048 9.682.324.65-.588 1.24-.977.6-2.01-3.33-2.67-7.65.33-10.616.24-.234.73-.027.6.33m-5.88 3.64c.05.615-.385 1.18-.43 1.81-.05.67.29 1.332.595 1.904.255.477-.397 1.096-.777.63-.62-.757-1.03-1.537-1.15-2.52-.097-.8.35-2.067 1.236-2.21.273-.044.497.1.52.385m64.61-197.686c-1.173 1.23-2.74 2.06-4.05 3.14-1.72 1.422-3.19 3.066-4.475 4.886-.42.59-1.41.074-1.005-.555 2.06-3.183 5.257-7.15 9.1-8.182.407-.11.73.39.43.71m-6.91.46c-.363.435-.824.73-1.29 1.04-.51.34-.93.825-1.273 1.325-.475.687-1.49.143-1.14-.624.605-1.313 1.867-2.874 3.507-2.403.3.087.38.43.19.663"
     id="path114" />
</svg>
