<?xml version="1.0" encoding="UTF-8" standalone="no"?><svg xmlns="http://www.w3.org/2000/svg" viewBox="0 0 1000 1000" preserveAspectRatio="none"><path d="M-9.86 519.288s351.71-7.7 550.955-6.25c155.155 1.128 476.493 3.75 476.493 3.75v498.924H-9.862V519.288" fill="#55a9d5"/><path d="M153.8 631.356c-44.493 0-112.486-1.456-123.8-14.517C10 593.75 2.85 540 57.075 532.5c54.224-7.5 397.23 5 491.353 0 94.12-5 394.072-16.57 417.822 20.817 11.352 17.87 44.37 63.904-31.54 60.293-75.91-3.61-383.738-24.065-450.45-13.837-66.71 10.227-247 31.583-330.46 31.583" fill="#6fc5df"/><path d="M1043.836 631.356s-92.46-2.017-174.955-2.017c-82.493 0-373.462-15.73-521.566 2.495-151.825 18.687-283.672 38.75-396.65-2.498v379.354h1079.46l13.714-377.337" fill="#c5ecee"/><path d="M1043.836 631.356s-91.87 7.5-174.366 7.5c-82.496 0-422.544-5.625-521.57 7.5-99.025 13.124-283.67 26.25-396.65-15v391.856h1079.46l13.126-391.856" fill="#f0b395"/><path d="M-48.75 827.284s23.89 55.31 175.756 49.685c151.868-5.627 308.936-129.02 440.158-172.495 145.582-48.227 389.86-36.866 476.106 13.757l-12.56 304.978H-48.75V827.285" fill="#fbc8ad"/></svg>