<?xml version="1.0" encoding="UTF-8" standalone="no"?><svg xmlns="http://www.w3.org/2000/svg" xmlns:xlink="http://www.w3.org/1999/xlink" viewBox="0 0 1000 500" id="svg2" preserveAspectRatio="xMidYMid slice"><defs id="defs4"><linearGradient id="a" gradientTransform="rotate(90 678.32 221.52) scale(879.30964)" gradientUnits="userSpaceOnUse" x2="1"><stop offset="0" stop-color="#fff" id="stop7"/><stop offset=".682" stop-color="#fff" id="stop9"/><stop offset="1" stop-color="#cdcdcc" id="stop11"/></linearGradient><linearGradient x2="1" gradientUnits="userSpaceOnUse" gradientTransform="matrix(0 -81.51465 -81.51465 0 307.148 172.788)" id="linearGradient786"><stop offset="0" id="stop788" stop-color="#fff"/><stop offset=".682" id="stop790" stop-color="#fff"/><stop offset="1" id="stop792" stop-color="#cdcdcc"/></linearGradient><linearGradient xlink:href="#linearGradient786" id="linearGradient4137" gradientUnits="userSpaceOnUse" gradientTransform="matrix(0 -81.51465 -81.51465 0 307.148 172.788)" x2="1"/></defs><g id="g774" opacity=".85"><g id="g776"><g id="g782"><g id="g784"><path d="M285.93 153.503a20.817 20.817 0 0 1-8.556 1.843c-11.075 0-20.116-8.606-20.858-19.49-9.96-2.362-17.382-11.292-17.382-21.976 0-12.485 10.122-22.607 22.608-22.607h87.39c14.378 0 26.03 11.655 26.03 26.03 0 11.12-6.984 20.582-16.793 24.31.076.523.13 1.05.13 1.59 0 5.994-4.86 10.853-10.853 10.853a10.81 10.81 0 0 1-6.026-1.828c-3.772 11.918-14.912 20.56-28.08 20.56-12.684 0-23.465-8.036-27.61-19.285" id="path794" fill="url(#linearGradient4137)" transform="matrix(.88738 0 0 -.88738 -173.308 322.8)"/></g></g></g></g><use xlink:href="#g774" id="use4123" transform="translate(106.153 37.55)" width="100%" height="100%" opacity=".85"/><use xlink:href="#g774" id="use4139" transform="translate(251.35 -25.623)" width="100%" height="100%" opacity=".85"/><use xlink:href="#g774" id="use4141" transform="translate(529.544 -7.32)" width="100%" height="100%" opacity=".85"/><use xlink:href="#g774" id="use4155" transform="translate(699.144 37.825)" width="100%" height="100%" opacity=".85"/><use xlink:href="#g774" id="use4169" transform="translate(784.555 -25.623)" width="100%" height="100%" opacity=".85"/></svg>