<?xml version="1.0" encoding="UTF-8" standalone="no"?><svg xmlns="http://www.w3.org/2000/svg" viewBox="0 0 1000 1000"><path fill="#4f99a1" d="M-33.75 909.28S101.985 895.04 163.294 895c82.896-.053 152.795 21.964 211.116 15.036C502.337 894.84 779.912 895 779.912 895s113.12-18.796 196.338-17.5c30.23.47 106.147 8.072 120 15 47.416 23.71-17.95 101.25-17.95 101.25L-2.5 1000l-31.25-90.72"/><path fill="#437b88" d="M436.658 623.388s50.72 86.07 55.33 121.42c4.61 35.35-79.11 114.318-137.303 149.58-122.964 74.508-182.322 49.858-241.45 37.008-46.708-10.15-116.205-37.975-170-87.5 0 0-90.624 128.38-133.66 99.18l-19.98 247.45s897.587 55.33 897.587 59.936c0 4.613 419.592-82.99 419.592-82.99l50.206-297.675s-23.744 51.6-126.244 54.1c-50.992 1.243-148.36-3.876-192.93-30.004-44.572-26.128-304.36-242.392-335.847-261.828-31.49-19.436-65.31-8.678-65.31-8.678"/><path fill="#6cacb5" d="M1145.08 948.2s-109.36 43.75-173.91-11.582c-64.554-55.33-149.037-192.038-236.586-270.367-81.458-72.87-211.534-136.34-291.144-133.54-43.67 1.54-10.91 43.04-7.31 61.48 3.6 18.45 45.1 98.37 62.773 112.2 17.675 13.83 88.894 50.72 109.384 95.29 20.488 44.57-3.25 137.3-147.077 168.04-143.827 30.74-358.076 85.567-448.756 177.787l1066.653 7.68 65.97-206.973"/><path fill="#fff" d="M617.484 822.424c3.067-1.443.733-28.95-10.992-35.35-11.725-6.4 1.49-17.675-9.63-23.055-11.12-5.38-15.822-6.15-17.697-16.91s-13.213-9.08-30.555-14.2c-17.34-5.12-20.503-19.62-24.345-26.53-3.842-6.92-23.055 0-24.593-11.53-1.536-11.53 19.213-19.98 9.223-31.51-9.99-11.53-38.424-16.14-47.646-32.28-9.23-16.14 9.22-26.9 0-36.89-9.23-9.99-23.83-15.37-22.29-23.825 1.53-8.45 8.99-16.137-.11-18.44-9.11-2.31-3.18-5.847 0-6.92 3.17-1.07 6.65-3.077 3.38-10.184-3.27-7.105-7.07.2-12.28-14.404-5.21-14.603-29.8-81.46-47.09-79.156-17.29 2.307-6.15 35.736 6.91 48.416s34.195 33.43 25.36 31.125c-8.84-2.305-37.658-41.5-48.03-37.27-10.378 4.226-4.61 28.43 11.525 31.89 16.137 3.46 21.132 11.528 11.527 12.297-9.606.77-28.82-6.53-42.65-13.444-13.834-6.918-46.11 3.46-38.425 28.432 7.682 24.976 39.19 18.828 50.72 14.985 11.524-3.84 33.042 3.46 33.042 14.99 0 11.526-15.37 6.146-23.44 12.294-8.07 6.15-8.45 22.67 4.23 24.208 12.68 1.538 28.422-7.3 38.03 1.538 9.61 8.84 9.61 15.755 3.463 23.824-6.15 8.07-8.456 22.684 0 24.983 8.452 2.3 24.59-4.234 29.97 5.372 5.38 9.602 4.994 21.513 20.364 26.893 15.37 5.38 23.055 3.844 29.97 14.603 6.918 10.76 4.228 33.045 19.598 34.967 15.37 1.92 25.36-1.92 33.43 3.074 8.07 4.997 10.945 9.607 8.74 16.14-2.206 6.532-1.054 11.527 7.4 12.294 8.454.77 21.4 1.155 25.11 8.07 3.71 6.917 1.02 10.76 8.32 16.524 7.3 5.763 10.454 29.2 19.444 24.975"/><path fill="#fff" d="M336.683 489.36c-9.842-10.443-32.517-15-21.683 0 10.834 15 35.03 14.17 21.683 0m34.577-19.69s-5.834-25.106-13.334-20.886c-7.5 4.22 7.5 18.385 13.334 20.885m-23.337-28.13s-22.135-21.97-31.302-34.73c-9.16-12.77-37.5-12.77-18.33 13.06s47.87 25.88 49.64 21.66m-131.68 20.55c-19.06-11.268-22.5 11.435-5.83 16.55 16.67 5.113 24.17-5.72 5.837-16.55m116.14-95.38c9.115 7.953-8.8-40.31-23.48-33.08-14.683 7.225 14.3 25.062 23.482 33.08m-29.78 209.55c18.054 1.425-52.727-25.832-70.38-16.665-17.65 9.166 49.246 15 70.38 16.666M271.988 520c-13.238-2.915-15.095 12.315 0 12.616 15.096.302 13.237-9.698 0-12.615"/><path fill="#6cacb5" d="M-46.25 918.753s115.282 15 228.89 125c113.61 110-213.89 60-258.89 0s30-125 30-125"/><path fill="#fff" d="M319.375 468.022c-3.715-2.91-5 2.965 0 5.91 5 2.943 6.25-1.012 0-5.91m134.595 72.89s-14.405-.936-19.813-26.47c-5.407-25.533-15.797-34.103-13.236-20.927 2.56 13.176 4.94 40.234 33.05 47.398m-25.39-81.925c-8.44-14.772-11.09-1.603-9.2 8.246 1.88 9.85 14.708 1.375 9.207-8.246m-28.52-25.238c2.025-10-11.54-15.834-10.174-5.834 1.365 10 8.155 15.834 10.176 5.834M418.8 435c-1.73-11.404-.647-29.166-5.97-33.75-5.323-4.584-.51 11.634 0 19.775.51 8.14 6.99 20.716 5.97 13.975"/><path d="M87.62 340.644s-59.74 10.496-60.546-31.482c-.807-41.98 67.003-12.916 67.003-12.916s21.793-41.17 68.615-37.135c46.82 4.04 59.738 41.21 59.738 41.21s20.99-19.33 37.135 0c0 0 12.108-59.77 68.617-57.35 56.508 2.42 59.737 58.93 58.123 70.23 0 0 25.833-25.83 41.17 1.62 0 0 49.244-13.722 52.473 11.304 3.23 25.025-73.46 22.603-73.46 22.603s-23.412 35.52-90.414 34.71c-67.003-.805-91.22-20.07-91.22-20.07S128.788 417.34 87.617 340.65m818.106-283.3s4.89-43.65-33.007-44.875c-37.897-1.22-50.12 36.676-50.12 36.676s-1.836-25.53-36.064-21.93c-34.23 3.6-32.397 30.134-32.397 30.134s-11.613-3.31-16.503 5.25c-4.89 8.56 5.5 12.837 5.5 12.837s-26.283-7.334-26.894 4.89c-.61 12.224 30.56 0 30.56 0s20.784 13.447 37.288-6.723c0 0 53.79 28.727 102.688-4.28 0 0 41.034 18.305 53.176-1.833 6.112-10.136-19.56-3.665-19.56-3.665s4.278-18.446-14.67-6.47" fill="#c5ecf0"/><path fill="#4e949c" d="M448.75 530.416s-8.803 1.86-1.9 13.43c6.9 11.57 77.49 83.238 112.61 104.904 35.124 21.666 192.31 99.597 220.452 98.75 21.992-.66-28.662-58.75-52.828-74.584-24.168-15.832-243.96-136.126-278.334-142.5"/><path fill="#a2a4a3" d="M412.822 316.4l281.87 125.413 256.73 141.692-283.757-71.19L412.823 316.4"/><path fill="#394042" d="M528.25 377.798s-15.77-87.44-56.242-105.853c-40.474-18.413-56.868 31.332-56.868 31.332s7.685 11.222 14.345 12.245c0 0 13.268-43.035 36.286-30.118 31.86 17.874 27.34 79.417 51.63 100.3 23.68 20.362 58.98 13.045 10.86-7.906"/><path fill="#2c2117" d="M421.168 302.01s-14.028-2.79-19.545-9.13c-5.518-6.336-14.944-26.336-14.944-26.336s-19.4 1.826-18.05 15.556c0 0 11.08 21.906 35.69 29.886l8.23.28s1.27 4 4.01 6.91c2.74 2.915 10.57 5.022 12.66 5.657 2.09.634 2.33-14.5 2.33-14.5l-10.39-8.323"/><path fill="#394042" d="M565.764 391.92s14.368 84.61 31.682 118.42l-20.756 6.918s-13.617-78.385-18.898-100.672c-5.278-22.285-29.346-18.183-35.16-29.85-5.812-11.667 2.793-25.07 19.027-18.743 16.23 6.327 24.1 23.927 24.1 23.927m2.87-115.26s-37.67 24.797-64.63-1.74c-26.955-26.54-21.44-47.847-21.945-67.046 0 0-6.593-2.52-16.387-.445 0 0-7.81 49.09 29.94 74.49 37.75 25.39 60.85 5.76 68.43 3.36 7.58-2.4 14.565-13.87 4.584-8.63m33-3.45c1.77.22 61.273 13.69 67.763 47.99 6.49 34.296-56.365 50.23-72.883 50.24 0 0-9.87-13.638-1.827-19.28 0 0 64.326.206 62.49-27.185-1.607-23.935-45.677-37.41-56.52-38.17-10.85-.76-7.717-14.685.98-13.6"/><path fill="#394042" d="M561.518 282.62s-11.632 31.456-16.48 44.02c-4.848 12.56-14.78 21.925-23.187 24.583 0 0-6.82 21.125-5.11 23.302l8.58-3.35.63 7.688s30.49 21.993 50.19 28.192c0 0-3.745-5.287.014-11.86 9.31-16.276 26.24-47.65 31.487-69.116 7.366-30.14 1.685-51.82-5.99-52.87-7.673-1.06-40.116 9.4-40.116 9.4"/><path fill="#fcd0a4" d="M571.987 262.704s2.95 16 .95 21.276c-2 5.275 8.54 7.32 11.518 2.04 2.978-5.28-.745-24.342-.276-25.314.47-.97-12.2 1.998-12.2 1.998"/><path fill="#dfdfdd" d="M577.23 276.68l-2.547 10.274-1.05-8.49-7.715 9.635s-13.407 46.03-21.037 56.99c0 0 44.98-41.53 43.36-57.12-1.61-15.6-3.19-9.53-3.19-9.53l-7.82-1.76"/><path fill="#585f61" d="M568.654 282.1s-9.38 5.8-14.358 6.527l3.45 19.303s-11.202 4.435-15.778 7.503c0 0 1.532 29.187-6.012 41.293 0 0 18.685-14.45 34.295-77.37.85-2.076-1.59 2.743-1.59 2.743"/><path fill="#585f61" d="M587.063 279.924s5.592 6.51 14.25 13.516c0 0-19.11 15.8-23.367 18.576 0 0 12.13 14.135 11.56 21.87 0 0-46.456 17.496-53.55 22.84 0 0 6.914-9.227 15.568-18.014 8.653-8.786 40.47-39.125 35.538-58.788"/><path fill="#111" d="M578.686 286.31s-3.852-2.223-6.025-.873c0 0-2.92 4.728-3.01 6.134-.08 1.41 6.42 3.7 8.32 2.82 1.91-.87.72-8.07.72-8.07"/><path fill="#111" d="M576.35 291.152s-1.39 7.745 3.764 10.797c5.154 3.05 27.44 1.53 44.372-17.92 22.643-26.01 61.623-17.84 69.048-16.41 13.41 9.27 20.152 19.32 24.26 22.94 0 0-23.745 7.99-27.076 11.21 0 0-38.982-20.125-54.448-3.39-15.465 16.74-39.25 18.977-46.07 17.297-6.817-1.68-21.392-6.4-18.355-23.92l4.506-.62"/><path fill="#fff" d="M574.45 274.86s-1.613-.897-5.033-.65c0 0-2.01 6.706-3.723 9.714l6.6-.05s2.107-6.17 2.157-9.014m11.04-5.937l-8.25 7.757s5.278 7.46 6.04 8.605c0 0 4.92-6.822 6.03-10.61l-3.81-5.752"/><path fill="#1c1f21" d="M524.59 350.14l-2.435 17.46 3.805.723-.8 3.67s22.1 21.35 34.833 26.778c0 0-14.18-7.1-37.283-23.74l1.16-4.77s-2.285-1.38-3.325-1.56c0 0 .844-13.17 4.045-18.55"/><path fill="#1c1f21" d="M530.29 359.39c.776.547 2.058.066 2.865-1.075.806-1.14.834-2.51.06-3.058-.775-.547-2.057-.066-2.864 1.075-.8 1.142-.83 2.51-.06 3.058m-4.49 4.668c.67.67 2.02.416 3.01-.57.99-.988 1.25-2.332.58-3.003-.67-.672-2.015-.417-3.005.57-.99.986-1.25 2.33-.58 3.002m10.163-7.33s-6.425 8.863-8.335 10.803c0 0 5.35-7.804 8.34-10.804"/><path fill="#fcd0a4" d="M597.48 353.306s-6.49-9.64-12.158-11.865c-5.668-2.22-8.875-1.57-7.07 1.39 1.804 2.96 7.228 7.73 7.592 11.1 0 0-5.054-3.45-10.395-4.28-5.34-.83-9.54.98-9.38 3.53.16 2.55 7.64 4.45 10.84 5.44 3.2.99 5.25 3.88 5.25 3.88s-9.71-4-13.98-.41c-4.27 3.585-1.728 7.122 1.89 6.88 3.614-.24 10.46 1.04 12.79 1.64 2.33.6 11.44 3.14 13.994.605 2.554-2.54 5.38-14.256.61-17.894M568.76 167.46s-37.993 78.15-35.95 83.453c2.043 5.305 43.057 17.355 48.35 15.75 5.293-1.608 26.964-26.39 33.89-39.765 6.925-13.374 5.87-54.96-.583-59.074-6.45-4.11-45.707-.364-45.707-.364"/><path fill="#614f26" d="M573.188 173.7s-21.03 1.18-22.423-11.982c-1.393-13.163 11.366.308 11.366.308s-5.9-24.22 6.12-31.77c12.02-7.547 21.08-2.926 22.3.606 1.217 3.533-5.53 10.35-5.53 10.35s32.185-9.188 36.295.547c4.11 9.73-9.87 9.15-9.87 9.15s24.875 2.18 31.855 19c0 0 17.994-2.14 19.163 3.14 1.17 5.28-5.836 5.53-5.836 5.53s10.547 10.345 5.48 13.71c-5.066 3.36-15.794-4.37-15.794-4.37s-7.97 35.657-29.26 46.453c0 0 12.674 16.53 7.334 19.884-5.34 3.356-10.3-7.28-10.3-7.28s5.74 14.157-.84 14.853c-6.58.7-14.16-9.04-12.71-14.25 1.456-5.21 14.534-20.694 14.534-20.694s-17.535-15.916.705-41.98c0 0-21.15 5.55-23.64.67-2.494-4.88 7.608-6.356 7.608-6.356s-27.27 5.384-31.097 1.344c-3.83-4.04 4.56-6.877 4.56-6.877"/><path fill="#fcd0a4" d="M608.826 230.662s9.938-11.54 15.963-7.877c6.02 3.663 11.1 15.21 5.97 21.598-5.13 6.386-10.8 11.08-20.68 4.25-9.88-6.83-1.26-17.97-1.26-17.97"/><path fill="#c38052" d="M575.59 198.045s-5.62 13.627-7.995 12.47c-2.375-1.16-5.747-5.844-8.873-3.522-3.124 2.32-1.518 7.613 5.204 9.764 0 0-10.23-1.808-8.742-8.33 1.49-6.52 8.102-4.592 10.074-2.57 1.97 2.022 6.426-.92 10.33-7.812"/><path fill="#140e0c" d="M581.81 202.588s13.125-.08 15.925 1.526c0 0-7.674.667-10.533 1.245 0 0 7.75 4.58 8.115 7.22 0 0-11.252-4.47-13.508-10"/><path fill="#403218" d="M583.74 195.86s7.01-8.328 14.268-1.794c0 0-8.087-.226-14.267 1.794m-17.84-13.61s8.9-3.256 10.04 3.117c0 0-5.9-2.913-10.03-3.116"/><path fill="#692926" d="M552.045 227.37s1.566 24.49 12.005 30.03c2.27-14.988 18.544-17.67 25-18.136 3.554-5.832 5.835-10.73 5.835-10.73-9.652 1.05-42.84-1.163-42.84-1.163"/><path fill="#ed8f8f" d="M564.05 257.4c.9.48 1.863.83 2.9 1 7.956 1.28 16.57-10.063 22.1-19.136-6.456.467-22.73 3.148-25 18.136"/><path fill="#fcd0a4" d="M466.504 208.18s-9.365-14.59-9.74-19.724c-.37-5.135 15.657-3.772 20.88-.215 5.22 3.56.94 19.86.94 19.86s-5.278-1.78-12.08.08"/><path fill="#b99816" d="M389.01 142.386l75.57 18.14-9.568 42.025-74.087-8.47 8.085-51.69"/><path fill="#f1c316" d="M396.466 149.776l59.19 11.17-3.154 23.22-61.168-7.56 5.132-26.83"/><path fill="#b99816" d="M509.446 190.67l43.924-.527 1.74 11.296-41.19 1.37-4.474-12.15"/><path fill="#f1c316" d="M515.42 192.16l38.3.266.633 4.095-39.12 1.22.186-5.57"/><path fill="#766319" d="M550.597 189.84l12.984-3.13s6.36 6.99 3.1 15.5l-13.8.585-2.27-12.954"/><path fill="#b99816" d="M456.41 168.52l65.24 17.837-7.49 24.39-64.51-15.16 6.76-27.067"/><path fill="#f1c316" d="M463.9 172.442l54.054 15.475-3.77 13.14-53.326-12.798 3.043-15.82"/><path fill="#fcd0a4" d="M479.058 207.42s14.53-5.11 16.683-8.898c2.16-3.785 2.47-15.41.47-17.08-2-1.667-8.17 1.013-7.48 11.42 0 0-13.8-1.31-14.49 5.077-.68 6.38 1.3 7.33 4.83 9.48"/><path fill="#b99816" d="M341.728 114.938l56.378 16.328-18.19 71.792-56.107-7.86s16.66-73.46 17.91-80.26"/><path fill="#f1c316" d="M347.87 124.306l44.58 11.133-9.945 41.2-47.235-10.04s11.886-38.42 12.6-42.3"/><path fill="#181c1d" d="M841.97 497.846l22.678-12.046a4.846 4.846 0 0 1 6.552 2.006l2.837 5.343a4.846 4.846 0 0 1-2.006 6.55l-.2.11a4.794 4.794 0 0 0-.56-2.58l-2.52-4.75c-1.11-2.1-3.46-3.04-5.24-2.09l-17.09 9.07c-1.78.945-2.32 3.413-1.2 5.513l2.52 4.75a4.8 4.8 0 0 0 1.82 1.905l-.2.107a4.846 4.846 0 0 1-6.55-2.008l-2.835-5.34a4.846 4.846 0 0 1 2.005-6.554"/><path fill="#272b2c" d="M844.536 496.483l22.68-12.047a4.846 4.846 0 0 1 6.552 2.006l2.837 5.343a4.844 4.844 0 0 1-2.006 6.552l-.21.108a4.794 4.794 0 0 0-.56-2.575l-2.528-4.75c-1.115-2.1-3.464-3.035-5.244-2.09l-17.087 9.078c-1.78.946-2.32 3.415-1.203 5.515l2.52 4.747a4.79 4.79 0 0 0 1.82 1.906l-.2.108a4.846 4.846 0 0 1-6.553-2.006l-2.84-5.343a4.846 4.846 0 0 1 2.006-6.553"/><path fill="#181c1d" d="M837.98 603.4a4.844 4.844 0 0 0 6.55 2.008l90.09-47.853a4.844 4.844 0 0 0 2.008-6.55l-35.434-66.714a4.847 4.847 0 0 0-6.553-2l-90.09 47.86a4.847 4.847 0 0 0-2 6.55l35.44 66.71"/><path fill="#181c1d" d="M844.596 599.886c1.257 2.364 4.072 3.324 6.29 2.147l83.998-44.617c2.218-1.18 2.998-4.05 1.743-6.412l-35.433-66.713c-1.257-2.36-4.072-3.32-6.29-2.14l-84 44.62c-2.217 1.18-2.998 4.05-1.742 6.41l35.434 66.71"/><path stroke-miterlimit="10" stroke-width="1.25" stroke="#576868" fill="none" d="M844.596 599.886c1.257 2.364 4.072 3.324 6.29 2.147l83.998-44.617c2.218-1.18 2.998-4.05 1.743-6.412l-35.433-66.713c-1.257-2.36-4.072-3.32-6.29-2.14l-84 44.62c-2.217 1.18-2.998 4.05-1.742 6.41l35.434 66.71z"/><path fill="#272b2c" d="M852.99 595.428c1.256 2.363 4.086 3.317 6.32 2.13l84.728-45.004c2.236-1.188 3.03-4.066 1.775-6.43l-35.434-66.712c-1.26-2.362-4.09-3.316-6.33-2.128l-84.73 45.004c-2.237 1.187-3.03 4.065-1.777 6.428l35.435 66.712"/><path fill="#394042" d="M858.3 587.986c1.12 2.108 3.644 2.958 5.638 1.9l74.577-39.613c1.994-1.06 2.703-3.627 1.583-5.734l-31.605-59.51c-1.12-2.11-3.644-2.96-5.638-1.9l-74.577 39.61c-1.994 1.06-2.703 3.622-1.583 5.73l31.605 59.51"/><path fill="#fff" d="M551.55 473.795S740.8 302.955 751.77 297.2L636.14 592.947l-84.59-119.153"/><path fill="#c4c5c3" d="M779.913 584.27L751.77 297.2 636.25 589.875l143.662-5.607"/><path fill="#fff" d="M412.822 316.4l274.57 170.988-163.057 108.33s-73.245-55.07-77.486-58.298c-4.25-3.227-34.03-221.02-34.03-221.02"/><path fill="#c4c5c3" d="M654.398 660.64c3.453-.328 32.995-173.252 32.995-173.252l-163.058 108.33s124.177 65.48 130.063 64.922"/><path fill="#efefed" d="M951.423 583.505l-264.03-96.118-32.995 173.253 77.686 30.194 219.34-107.33"/><path fill="#fff" d="M738.93 687.484c8.2 3.89 3.725 7.516-6.846 3.35-7.754-3.055-40.834-10.418-55.834-15.418s-25-2.5-40-10-31.552-19.87-44.11-25.35c-12.556-5.482-46.318-20.2-66.52-34.09-20.204-13.892-34.524-38.105-46.944-38.975-12.42-.87-21.176-18.87-31.488-26.37-8.203-5.96-2.998-9.53 6.782-3.2 9.78 6.33 36.572 29.5 44.01 29.58 7.436.088 22.588 12.098 28.345 16.51 5.76 4.41 21.244 17.194 35.585 22.47 14.34 5.274 50.095 31.236 56.8 34.09 6.706 2.85 20.86 16.49 32.95 15.35 12.09-1.137 75.785 26.62 87.27 32.07"/></svg>