<?xml version="1.0" encoding="UTF-8" standalone="no"?><svg xmlns="http://www.w3.org/2000/svg" viewBox="0 0 999.07501 1000"><path d="M612.984 712.013c8.305-9.49-18.243-25-32.034-18.333 0 0-17.476-51.667-62.716-21.667 0 0 2.263-50.83-44.823-49.582-47.08 1.25-53.75 30.5-54.58 36.29 0 0-36.62-23.37-44.14 10.38 0 0-15.854-7.83-16.69 7.13 0 0-48.87-2.195-54.59 14.96-5.715 17.156 73.76 30 89.59 20.834 0 0 58.977 42.73 134.377 0 0 0 30.48 21.07 53.583 4.587 0 0 20.367 8.746 32.034-4.587m353.46-510.1c6.213-7.1-13.65-18.705-23.97-13.717 0 0-13.075-38.658-46.924-16.21 0 0 1.693-38.03-33.537-37.098-35.23.933-40.218 22.815-40.84 27.15 0 0-27.4-17.487-33.03 7.764 0 0-11.864-5.86-12.487 5.337 0 0-36.568-1.644-40.845 11.192-4.275 12.832 55.188 22.443 67.035 15.584 0 0 44.125 31.97 100.54 0 0 0 22.807 15.767 40.09 3.432 0 0 15.24 6.545 23.97-3.432M715.5 911.28s-43.033-56.876-94.155-26.52c-51.124 30.356-26.538 60.713-26.538 60.713s-45.184-16.263-37.596 28.187c0 0-45.53-23.852-84.56-5.42-39.03 18.43-36.86 58.544-36.86 58.544s-24.93-23.852-45.53-10.842-15.18 34.693-15.18 34.693c-91.43 23.05-35.893 139.874 49.06 111.258 15.97 56.713 163.087 71.063 176.41 7.822 61.567 33.23 162.188 10.728 151.25-46.264 62.38 19.17 86.04-92.2 57.45-96.15 75.08-56.64-47.16-182.83-93.75-116.01zM570.098 67.2s-3.367-46.88-53.132-46.16c-49.764.72-50.485 42.552-50.485 42.552s-41.31-24.52-49.86 15.867c0 0-17.38-15.87-21.62 6.49 0 0-32.79-21.64-45.92 14.42 0 0-38.55-7.94-40.986 9.37-2.433 17.31 35.14 16.586 43.04 15.144 0 0 55.105 31.734 96.05 6.49 0 0 79.17 41.11 145.52-1.44 0 0 49.04 12.26 85.826-7.213 36.78-19.472 25.24-40.387-12.263-28.126 7.214-27.404-18.03-28.126-29.57-19.472 6.493-29.57-50.24-43.994-66.59-7.93M31.78 235.22c-3.458-13.19 30.112-19.798 40.837-16.085 0 0 16.087-37.124 48.673-15.263 10.312-24.336 70.122-25.574 73.834 16.5 10.725-20.624 38.385-1.65 37.34 12.786 14.632-13.198 40.207 10.725 2.465 12.788 0 0-42.28 38.772-79.41 7.837-19.8 16.5-54.018 13.432-72.188-11.137 0 0-44.96 17.736-51.56-7.425" fill="#c0eaee"/><path d="M715.916 1000.47s-39.167-160.206-47.5-181.04C660.082 798.6 590 713.6 580.456 700.265c-9.54-13.333-50.374-101.07-50.374-101.07s76.25 22.32 87.292 22.53c11.042.207 158.053 62.707 160.38 65.207 2.328 2.5 251.67 72.11 251.67 72.11s55.82 605.313 41.653 606.98c-14.167 1.667-290.06.665-304.225-6.003z" fill="#4fa3a2"/><path d="M701.75 685.264s45 133.334 50.416 148.334c5.416 15 58.645 118.54 58.645 118.54s-56.55-101.04-64.47-116.874c-7.92-15.833-44.59-150-44.59-150m-81.66-37.08s36.668 96.247 45 110.414c0 0-39.165-72.494-45-110.414" fill="#347a82"/><path d="M1035.082 619.43s-204.356 5.58-228.01 7.79c-23.656 2.21-129.49-46.956-145.323-49.456-15.84-2.5-90.59-6.666-90.59-6.666s-39.41 24.528-41.08 28.097c-1.67 3.57 160 75.236 171.66 86.07 11.665 10.833 89.73 90.833 98.615 95 8.883 4.166 206.383.833 219.716 0 13.334-.834 29.167-150 15-160.834" fill="#a3e0d8"/><path d="M600.14 579.43c35.7 2.638 141.652 52.356 171.214 54.304 29.562 1.947 147.062-.546 163.312 14.45 16.25 14.997-27.92 54.997-88.96 47.497-61.04-7.5-142.866-41.24-165.08-47.49-22.21-6.25-142.545-28.362-125.96-51.88 16.584-23.51 25.79-18.33 45.473-16.87" fill="#67cbbb"/><path d="M412.582 822.764c-10-14.166-98.333-134.564-104.166-148.115-5.834-13.56-41.667-167.72-45.834-176.06-4.166-8.336-161.666-36.46-162.5-31.98-.833 4.48 37.5 232.85 37.5 247 0 14.144-15 144.98-17.5 157.48s-79.705 496.14-79.705 496.14l508.588-3.18S422.582 836.93 412.582 822.762z" fill="#4fa3a2"/><path d="M179.25 459.43c9.5 3.534 81.974 35.24 83.332 39.168 1.36 3.926-26.666 18.333-30.833 19.166-4.17.834-31.67-11.666-39.17-13.333-7.5-1.66-39.17-6.66-48.34-10-9.17-3.33-37.5-19.79-44.17-27.81 0 0-2.526-9.52-.013-11.69 0 0 60.79-2.33 79.18 4.5" fill="#a3e0d8"/><path d="M231.06 528.18s44.856 124.168 38.606 157.084c-6.25 32.917-19.005 44.167-19.005 44.167s74.01 43.61 80.26 54.93 10 87.58 10 87.58-10.98-71.464-20-87.57c-9.02-16.106-73.75-42.43-77.5-49.93 0 0 13.43-22.395 19.22-49.165 5.787-26.77-31.57-157.083-31.57-157.083" fill="#347a82"/><path d="M108.592 946.11s26.335-85.202 93.81-20.525c0 0 12.935-33.817 50.612-41.713 37.677-7.896 52.64 21.478 55.297 30.41 0 0 15.77-43.32 46.66-17.453 0 0-3.07-35.96 32.92-45.7 35.99-9.74 47.46 18.34 47.46 18.34 109.62-38.5 132.74 118.43 67.64 136.714.312 50.21-60.837 91.573-93.42 66.054.595 47.864-59.13 69.955-113.667 51.514-25.823 50.044-116.127 44.58-144.08-15.41-52.84 19.7-100.754-46.19-100.754-46.19-54.398-43.96-9.858-145.767 57.53-116.05z" fill="#ebf8f9"/><path d="M201.214 429.113s10.073 50.146 9.03 52.166c-1.042 2.01-10.42.75-11.81 0-1.388-.76-6.278-42.44-6.785-46.27-.51-3.82 9.56-5.907 9.56-5.907m-49.31 5.23s-8.73 47.24-9.77 46.89c-1.04-.348-10.07-2.43-11.117-4.517-1.04-2.084 10.81-39.596 10.44-42.375-.367-2.78 10.44 0 10.44 0m13.733 6.33s-1.043 29.87-2.78 30.913c-1.735 1.04-5.516 0-5.516 0s1.64-28.135 2.537-30.914c.897-2.78 5.76 0 5.76 0" fill="#488888"/><path d="M75.5 355.685c0 53.846 43.95 97.496 92.45 97.496 48.502 0 87.82-43.65 87.82-97.49 0-53.84-39.318-97.49-87.82-97.49-48.5 0-92.45 43.65-92.45 97.495" fill="#8d8f8f"/><path d="M89.452 355.685c0 53.846 39.318 97.496 87.82 97.496 48.5 0 87.818-43.65 87.818-97.49 0-53.84-39.318-97.49-87.82-97.49-48.5 0-87.818 43.65-87.818 97.495" fill="#fff"/><path d="M102.594 355.685c0 45.79 33.433 82.91 74.677 82.91 41.25 0 74.68-37.12 74.68-82.91s-33.43-82.907-74.68-82.907c-41.24 0-74.67 37.118-74.67 82.907" fill="#e6581c"/><path d="M117.967 355.685c0 36.36 26.552 65.84 59.304 65.84 32.76 0 59.31-29.48 59.31-65.84s-26.55-65.84-59.3-65.84-59.302 29.48-59.302 65.84" fill="#fff"/><path d="M137.235 355.685c0 24.548 17.925 44.448 40.036 44.448 22.12 0 40.04-19.9 40.04-44.448 0-24.547-17.92-44.447-40.03-44.447s-40.034 19.9-40.034 44.447" fill="#e6581c"/><path d="M153.5 355.685c0 14.528 10.627 26.304 23.737 26.304 13.11 0 23.738-11.78 23.738-26.31s-10.628-26.31-23.738-26.31S153.5 341.16 153.5 355.68" fill="#fff"/><path d="M167.95 355.685c0 5.715 4.174 10.348 9.32 10.348 5.15 0 9.32-4.633 9.32-10.348 0-5.715-4.17-10.347-9.32-10.347-5.146 0-9.32 4.632-9.32 10.347" fill="#e6581c"/><path d="M570.825 360.483s133.84 26.642 184.78 23.107c50.936-3.534 6.076 20.71-3.44 20.6-9.515-.107-141.914-12.55-185.04-20.6-.154-11.63 3.7-23.107 3.7-23.107" fill="#394042"/><path d="M567.125 383.59s5.41-19.14 3.7-23.107c0 0-7.958-18.787-6.708-25.22 0 0-5.017-3.442-7.5 1.902-2.042 4.395-1.667 16.266-1.667 16.266s-15 2.67-16.666 6.63c-1.667 3.96 4.166 26.46 7.5 27.71 3.333 1.25 17.265.4 21.34-4.17" fill="#fcd7b4"/><path d="M795.29 384.014s100.938 1.684 107.813 2.57c6.875.887 0 21.2 0 21.2s-96.874 6.335-107.812-1.165c-10.93-7.5-15.62-20.84 0-22.61" fill="#394042"/><path d="M861.01 625.344s11.705 17.4 11.705 24.276c0 6.875-27.973 6.35-32.424 8.224-4.45 1.875 0 13.75 0 13.75s39.93 6.875 48.05 0 11.25-31.92 10-34.71c-1.25-2.79-12.5-5.29-12.5-5.29l6.25-6.25s-9.37-26.25-15-30.625c-5.62-4.38-19.18-.65-20.62 5.62-1.44 6.27-7.16 16.87 4.55 25M630.3 594.82s-23.75 5.622-30 5-28.264-11.878-29.13-9.378c-.87 2.5-5.245 18.75-4.62 21.25s26.875 16.25 46.25 11.874l6.875-6.875 3.75 7.73s19.375 1.02 26.875-5.23c0 0-2.344-15.06-5.546-20.654-3.205-5.595-14.455-3.72-14.455-3.72" fill="#372914"/><path d="M713.104 484.12s-102.188-10.94-105.938-3.44 6.25 93.126 15 119.376c0 0 8.713 7.5 25.606 0 0 0-21.198-80.608-17.307-89.432 3.89-8.823 52.95-2.443 65.45 1.932s30.834 22.5 34.167 27.813c3.334 5.31 16.533 97.81 26.533 105.93s89.565-12.21 104.395-20.96c0 0 7.45-15.328-4.545-25 0 0-71.21 22.833-86.248 19.083 0 0-11.225-67.625-9.638-77.56 1.58-9.94 4.78-20.565.37-29.315s-47.85-28.435-47.85-28.435" fill="#394042"/><path d="M754.044 384.014s-2.815.105-3.44 1.667c-.625 1.57-30.625 78.44-65 96.25 0 0 14.375 16.22 15 19.03l9.487-8.85-4.28 11.35s29.75 9.68 59.96 24.73c0 0 22.51-67.014 26.82-78.576 4.307-11.563 22.29-60.343 8.65-65.59-13.648-5.244-47.186 0-47.186 0" fill="#394042"/><path d="M765.77 376.93s-9.43 1.593-11.726 1.84l.563 10.155 10.612-1.16.55-10.834" fill="#ebece9"/><path d="M792.582 384.014s-46.672 57.917-63.336 70.834c0 0 27.034-57.382 27.45-64.048l3.39-4.12-.18-6.665 32.676 4" fill="#dfdfdd"/><path d="M760.135 400.264s1.022-3.333.78-7.916l-3.356-.95s-4.34 6.002-4.46 8.866c-.03.74 7.03 0 7.03 0" fill="#111"/><path d="M756.84 426.495c1.762-1.986 6.536-28.35 6.536-28.35h-4.924l-18.467 31.51-10.74 25.193 27.596-28.353" fill="#111"/><path d="M760.086 364.46s2.915 10.39 2.25 15.185c-.66 4.796 21.136 5.173 22.305 3.38 1.17-1.79-1.7-15.85-.9-22.344.8-6.49-6.53-13.17-11.72-14.45-5.19-1.28-10.92 8.77-11.93 18.24" fill="#fcd7b4"/><path d="M790.29 385.54s-30.384 26.343-61.044 69.308l-5.517 9.583s32.18-15.97 45.11-21.91l2.51-24.54s29.552-11.28 35.49-13.78l-16.56-18.65" fill="#585f61"/><path d="M757.027 387.764s-10.173 8.052-16.423 12.83l5.366 9.15s-14.536 11.804-16.724 15.24l-5.517 39.447s4.58-7.71 6.35-11.51c1.77-3.79 25.62-52.48 26.94-65.15" fill="#585f61"/><path d="M797.166 383.59l-5.834-9.992s-27.748 6-31.426 6.417l6.88 13.334s22.463-3.1 30.38-9.76" fill="#fff"/><path d="M723.73 466.62s-5 11.25-7.814 14.374c0 0 3.3-11.336 7.813-14.375m3.24 4.28c-1.06 1.68-.85 3.71.47 4.54 1.31.82 3.23.13 4.29-1.55s.842-3.71-.47-4.54c-1.318-.83-3.24-.136-4.297 1.544m-7.5 11.987c-1.056 1.68-.846 3.71.47 4.538 1.314.826 3.237.135 4.293-1.547 1.056-1.68.846-3.71-.47-4.535-1.314-.827-3.236-.135-4.293 1.546m43.32 42.34s-32.604-14.614-54.895-24.13l1.665-10.975-9.37 6.67s-5.71-9.016-14.065-15.107c0 0 11.356 16.354 14.48 19.27l5.626-6.2s-.624 7.66-.42 8.7c.21 1.042 38.298 13.454 56.98 21.772" fill="#242728"/><path d="M752.07 269.064s-9.51 32.84-11.855 40.944c0 0-8.418.336-12.01-1.628-3.59-1.965-5.825 8.945-3.458 11.94 2.37 3 9.384 2.718 9.384 2.718s-7.27 39.497-5.03 42.92c2.25 3.423 29.99 4.985 36.06-1.58 6.06-6.567 13.416-33.56 17.547-46.232 4.13-12.67 10.923-36.128 3.448-43.84-7.474-7.71-29.237-10.776-34.075-5.242" fill="#fcd7b4"/><path d="M776.677 324.568s-15.025-23.145 6.752-40.88c0 0-21.72 1.572-23.11-1.604-1.4-3.178 4.96-7.345 4.96-7.345s-25.198.56-24.378-7.06c.82-7.62 12.897-7.83 12.897-7.83s-12.73-5.535-12.268-15.11c.46-9.573 6.004-25.533 20.147-23.288 14.142 2.245 11.254 26.832 11.254 26.832s6.67-24.88 28.434-21.816c21.76 3.066 25.382 16.31 2.76 30.385 0 0 27.03-2.346 39.34 17.4 0 0 6.665-5.468 16.34 1.03 9.673 6.5-1.664 10.532-8.52 15.06 0 0 13.692 5.392 12.5 14.292-1.19 8.9-15.5 2.445-15.5 2.445s-7.565 35.714-33.1 47.274c0 0-1.83 17.496-7.8 15.767-5.973-1.727-6.86-9.842-6.86-9.842s-3.76 11.394-11.256 10.148c-7.496-1.248-8.81-9.486-8.81-9.486s-3.215.958-6.7-2.4c-3.485-3.36 1.834-13.773 3.137-19.893 1.302-6.12-.233-14.094-.233-14.094" fill="#614f26"/><path d="M781.81 310.03c5.4-2.04 7.457 14.16 6.72 21.5-.74 7.34-11.49 17.336-15.633 15.675-4.14-1.66 4.858-14.606 4.32-18.622-.54-4.015-7.865-13.838 4.594-18.552" fill="#fcd7b4"/><path d="M767.027 290.045s-9.767-5.38-13.763 3.633c0 0 10.225-4.184 13.763-3.633" fill="#392d17"/><path d="M749.735 305.866c-.835 2.882-.16 5.61 1.507 6.092 1.667.482 3.694-1.463 4.528-4.344.834-2.88.16-5.608-1.508-6.09-1.666-.483-3.693 1.46-4.527 4.342" fill="#140e0c"/><path d="M764.545 340.353c-1.185 9.016-3.99 18.608-10.558 19.377-1.64.19-3.163-.147-4.576-.87.64-12.807 9.72-17.09 15.14-18.507" fill="#c86461"/><path d="M735.552 331.786l29.8-7.535s.282 7.81-.807 16.11c-5.414 1.42-14.5 5.7-15.134 18.51-9.44-4.82-13.85-27.073-13.85-27.073" fill="#692926"/><path d="M629.527 197.338s-79.03 92.59-81.892 176.26c-2.86 83.67 35.387 171.875 39.525 178.56 4.14 6.685-1.594 7.388-5.95 2.995-4.356-4.394-56.374-104.134-48.96-180.837 7.415-76.703 82.244-169.127 91.444-177.003 9.2-7.878 5.833.025 5.833.025" fill="#8b5619"/><path d="M621.85 199.104s137.13 185.206 147.266 205.55c8.395 16.845-158.57 126.86-190.52 146.47l-1.814-3.265s161.678-100.46 185.64-141.3c0 0-102.846-144.82-142.422-205.438l1.85-2.03" fill="#629a9d"/><path d="M752.166 404.19s-232.5-40.176-241.875-42.467v8.333l240.28 42.635 27.19 10.49-3.77-12.35 11.274-10.23-33.09 3.6" fill="#4c5024"/><path d="M497.166 354.718s-16.094-8.75-20.312-14.844c-4.22-6.094-27.657-26.406-44.844-9.688-17.188 16.72-12.03 38.75-4.375 47.032 4.36 4.716 17.187 9.592 38.75 1.875 21.562-7.717 28.437-5.884 28.437-5.884l2.344-18.5" fill="#f4f021"/><path d="M498.624 359.82c-.625.42-13.542.444-18.125-4.256-4.59-4.7-9.8-15.325-15-13.868-5.21 1.46-.21 9.204 2.08 9.082 0 0-9.38-.514-10 4.786s8.33 5.624 8.33 5.624-11.46 3.426-7.08 7.383c4.37 3.96 14.34-4.85 19.25-5.55 4.91-.69 19.08 3.26 19.08 3.26l1.46-6.46z" fill="none" stroke="#3d3d29" stroke-width="1.25" stroke-miterlimit="10"/><path d="M441.826 331.696c10.76-7.36 19.038 3.854 18.44 6.42-.6 2.565-11.375 4.67-15.05 11.743-3.675 7.07-5.934 18.43-10.55 17.65-8.75-1.48-14.43-21.05 7.16-35.82" fill="#fff"/><path d="M510.604 373.21c1.77-4.09 5-15.862 2.187-17.646-2.81-1.784-4.37 1.88-4.37 1.88s-.24-5.726-4.37-4.29c-.93.325-3.123 2.41-3.123 2.41s-.937-2.52-4.062-2.464c-3.124.054-3.437 18.913-3.437 20.11 0 1.195 4.06 3.178 5 0 0 0 2 5.99 5.374 0 0 0 4.624 5.053 6.81 0" fill="#323335"/><path d="M492.39 319.49c4.134-3.777 7.712-8.134 11.932-11.81 1.244-1.082 3.31.666 2.19 1.97-3.727 4.344-7.658 8.568-12.07 12.224-1.568 1.297-3.545-1.02-2.05-2.385m-36.082-17.07c1.485-6.98 2.156-14.437 5.08-21.007.79-1.773 3.266-.836 2.8 1.017-1.716 6.843-2.914 13.883-5.004 20.62-.49 1.588-3.226 1.024-2.875-.635m-46.39-7.38c4.784 2.86 8.796 7.126 12.164 11.516 1.204 1.57-.95 3.407-2.32 1.994a190.363 190.363 0 0 0-11.585-10.987c-1.47-1.284.014-3.558 1.742-2.524m-31.782 55.32c7.462-.537 14.966 1.26 22.307 2.41 2.11.332 1.87 3.424-.29 3.32-7.3-.356-14.6-1.79-21.87-2.57-1.727-.185-2-3.027-.147-3.16m20.936 51.35c4.074-5.665 9.566-10.746 15.5-14.405 1.614-.993 3.307 1.64 1.81 2.763-5.494 4.13-10.1 8.954-15.113 13.615-1.246 1.16-3.18-.61-2.195-1.974M445 405.39c.977 5.72 2.02 11.308 3.56 16.91.42 1.538-2.106 2.36-2.67.873-2.073-5.484-3.66-11.338-4.06-17.202-.138-2.02 2.812-2.67 3.17-.58m36.412-12.55c4.004 5.35 8.507 10.29 12.52 15.61 1.175 1.57-.907 3.32-2.282 1.96-4.825-4.76-9.165-10.17-12.69-15.96-.876-1.43 1.455-2.94 2.452-1.61" fill="#f4f021"/><path d="M531.272 351.43c4.884 1.714 19.314 5.476 21.412 8.034 2.096 2.557-2.202 8.416-3.69 8.536-1.487.12-21.932-.435-23.17-3.94-1.238-3.506 2.75-13.576 5.448-12.63m20.314 23.994c-1.087-.128-23.74-2.16-24.154-.39-.415 1.767-.568 4.48.423 6.98.99 2.504 3.407 3.337 3.407 3.337s-.852 8.25.884 8.8c1.736.55 16.13-1.16 18.746-1.55 2.617-.38 1.653-8.58 1.653-8.58s2.28-8.21-.96-8.59" fill="#fcd7b4"/><path d="M797.696 424.536s-2.09-18.047-1.044-22.476c0 0 89.79-13.37 102.213-15.292 12.424-1.92 24.176 28.817 5.59 32.808-18.584 3.993-106.76 4.96-106.76 4.96" fill="#394042"/><path d="M797.166 402.764s-7.8-13.85-8.41-16.743c0 0-5.9-.8-6.625 1.46-.72 2.26 1.55 8.52.2 12.79-.654 2.07-23.85-5.02-26.464-3.11-4.86 3.546-1.25 6.306-.897 7.04.21.446 12.274 2.096 15.47 4.4 3.194 2.3-15.06 3.543-17.326 4.345-2.266.804-.097 6.355 1.504 7.188 1.6.834 15.463.56 16.928 1.6 0 0-4.54-1.5-4.747-.596-.21.903.77 6.22 2.06 6.43 1.282.208 28.32-1.46 30.82-5s-2.5-19.792-2.5-19.792" fill="#fcd7b4"/><path d="M808.706 400.264s57.272-8.54 70.383-10.51c0 0-53.85 2.594-70.39 10.51" fill="#242728"/></svg>