<?xml version="1.0" encoding="UTF-8" standalone="no"?><svg xmlns="http://www.w3.org/2000/svg" viewBox="0 0 1000.275 1000"><path fill="#397176" d="M987.777 838.75c0 16.322-87.317 29.555-195.03 29.555-107.71 0-195.028-13.232-195.028-29.555 0-16.322 87.31-29.555 195.02-29.555 107.71 0 195.03 13.232 195.03 29.555"/><path fill="#397176" d="M725 838.75c0 16.322-141.51 29.555-316.07 29.555-174.563 0-316.073-13.232-316.073-29.555 0-16.322 141.51-29.555 316.072-29.555 174.56 0 316.07 13.233 316.07 29.555"/><path fill="#393f42" d="M725.258 339.086C717 327.73 615.406 336.78 569.075 286.473c-46.33-50.31-41.1-128.318-41.1-128.318s-27.35 4.32-34.086 1.02c0 0 2.48 88.943 58.68 145.285 42.36 42.468 197.552 68.836 172.68 34.626"/><path fill="#101111" d="M670.327 778.75c0 33.138-26.862 60-60 60H181.25c-33.138 0-60-26.862-60-60V188.06c0-33.138 26.862-60 60-60h429.077c33.138 0 60 26.862 60 60v590.69"/><path fill="#67a3a6" d="M636.783 734.21c0 29.087-23.58 52.668-52.67 52.668h-376.65c-29.087 0-52.668-23.58-52.668-52.668V215.694c0-29.088 23.58-52.67 52.67-52.67h376.65c29.087 0 52.667 23.582 52.667 52.67V734.21"/><path fill="#9fc6c7" d="M627.32 727.454c0 28.33-22.654 51.296-50.6 51.296H214.857c-27.946 0-50.6-22.966-50.6-51.296V222.45c0-28.33 22.654-51.296 50.6-51.296H576.72c27.946 0 50.6 22.966 50.6 51.296v505.004"/><path fill="#393f42" d="M412.5 812.258c0 10.477-8.492 18.97-18.97 18.97-10.476 0-18.97-8.493-18.97-18.97 0-10.477 8.494-18.97 18.97-18.97 10.478 0 18.97 8.493 18.97 18.97"/><path fill="#5e6e6f" d="M408.27 812.258c0 8.14-6.6 14.74-14.74 14.74s-14.74-6.6-14.74-14.74 6.6-14.74 14.74-14.74 14.74 6.6 14.74 14.74"/><path fill="#f9cea2" d="M495.28 124.726s-3.127-6.25-8.96-6.25c-5.834 0-6.667 5.834-6.667 12.5s1.652 19.005 8.236 20.186c6.58 1.182 8.43-8.102 7.39-26.436"/><path fill="#f9cea2" d="M503.82 115.355c-5.816.453-9.214 5.116-8.54 20 .67 14.88 4.914 15.45 7.82 15.808 9.053 1.11 14.224-36.86.72-35.808"/><path fill="#f9cea2" d="M520.902 120.56c-8.343.014-8.742 6.844-10.25 14.815-1.508 7.97.924 16.39 6.838 15.787 5.912-.602 7.354-11.336 8.412-16.338 1.258-5.932 1.884-14.277-5-14.264"/><path fill="#1f1611" d="M746.394 815.424s-14.95 7.687-24.95 8.52c-10 .835-18.75.835-20 8.75-1.25 7.917 0 14.167 0 14.167s38.75 1.67 54.585-2.08c0 0 21.25 3.33 23.33-.83 2.08-4.16 0-28.52 0-28.52s-25.28-3.52-32.97 0"/><path fill="#393f42" d="M751.005 523.53s2.48 230.83-7.914 291.665c0 0 12.52 7.405 39.08 8.75 0 0 13.87-247.084 13.03-267.916-.83-20.84 3.43-30 .05-40.84-3.38-10.84-44.24 8.33-44.24 8.33"/><path fill="#1f1611" d="M865.61 820.61s15.42 7.018 20.835 6.668c5.416-.35 17.5-1.6 18.75 2.15s0 16.667 0 16.667-52.916 2.85-62.5-.066c0 0-13.334 2.5-16.666-.84-3.34-3.34 0-26.25 0-26.25s33.75 1.25 39.58 1.66"/><path fill="#393f42" d="M761.25 526.86s25.318 17.5 35.61 33.335c10.295 15.834 26.144 252.084 25.604 263.75 0 0 20.647 6.6 41.065-4.584 0 0-11.38-279.28-11.32-327.55 0 0-76.33 10.05-90.97 35.06"/><path fill="#909292" d="M715.04 328.696s30.302-19.442 36.694-23.287l6.74 9.27-22.894 24.91-21.633-4.87 1.092-6.03"/><path fill="#393f42" d="M754.845 313.283s20.55-5.417 26.594-7.874c10.22-4.16 20.38 14.53 30.64 35.36 17.62 35.8 39.16 111.79 50 167.35 0 0-43.11 22.062-69.41 20.58l-8.48-10.02s1.17 7.19 2.97 12.22c0 0-26.49 10.34-41.528 5.34 0 0-19.774-136.75-39.673-198.25 0 0 34.702-17.2 48.874-24.72"/><path fill="#f9cea2" d="M713.4 312.232s12.974 21.197 12.404 26.203c21.865 33.904 19.222-12.718 19.222-12.718s-9.166-18.4-14.61-26.26c-5.444-7.86-17.015 12.775-17.015 12.775"/><path fill="#dfdfdd" d="M733.505 326.574l3.795 23.81L724.687 330l-8.84 11.525s22.942 66.56 39.964 91.457c0 0 .58-94.2 4.87-112.806l-27.17 6.398"/><path fill="#111" d="M745.644 347.415s-12.167.767-17.385 7.35l3.76 10.736 9.66-2.45 3.953-15.63"/><path fill="#111" d="M756.57 386.168l-14.883-23.12-9.666 2.453s5.38 33.12 6.41 42.07l17.45 30.28.7-51.67"/><path fill="#575e60" d="M754.56 308.748s18.68 10.39 30.04 17.97c0 0-8.377 14.462-21.186 27.763 0 0 25.064 18.91 26.094 21.31 0 0-25.64 40.55-33.635 62.06.106-20.55 2.122-100.07 4.29-118.28l-5.603-10.81m-40.37 27.357s-2.02 17.54-7.135 29.24c0 0 8.466 6.05 15.108 8.5 0 0-5.683 20.37-6.763 30.704 0 0 24.32 14.215 40.472 33.295 0 0-40.468-89.933-41.683-101.737"/><path fill="#1c1f21" d="M757.337 441.518s14.04 55.265 24.102 72.95c0 0-18.82-61.865-24.11-72.95m5.813 55.185c.83 2.573 3.367 4.058 5.667 3.316s3.493-3.43 2.664-6.01c-.83-2.57-3.366-4.06-5.666-3.32-2.3.74-3.49 3.43-2.663 6m-13.27-33.09c.83 2.574 3.363 4.06 5.664 3.317 2.3-.744 3.492-3.43 2.662-6.004-.83-2.574-3.368-4.06-5.668-3.318-2.3.74-3.495 3.43-2.665 6"/><path fill="#fff" d="M724.688 330l1.956 22.856s-11.893-10.404-13.625-14.67l2.02-9.49 9.64 1.304m27.043-24.59l-18.23 21.164 13.33 15.74s15.192-22.688 15-24.98l-10.1-11.924"/><path fill="#1c1f21" d="M750.705 537.337s20.507-1.142 36.464-6.427l-2.98-12.22s5.11 8.47 10.49 10.064c0 0 34.63-6.718 58.643-17.504 0 0-25 13.37-59.27 22.187l-6.074-6.875s1.964 5 1.517 7.188c0 0-21.846 6.236-38.8 3.588"/><path fill="#5f4e26" d="M608.822 215.417s-.613 37.667 35.232 50.675c35.846 13.01-21.486-67.453-35.23-50.675"/><path fill="#f9cea2" d="M617.495 220.007s28.438 72.038 52.704 96.034c24.26 24 77.47-15.02 80.82-33.89 3.34-18.86-18.48-61.81-18.48-61.81s-28.66-54.38-52.3-54.64c-23.65-.26-70.16 24.24-62.75 54.31"/><path fill="#5f4e26" d="M738.12 235.22l-7.743 1.418s-39.072-40.295-36.116-55.614c0 0-7.37 14.854-12.37 15.666-5 .813-4.67-10.765-4.67-10.765s-15.95 24.22-22.32 25.336c-6.37 1.12-2.13-13.62-2.13-13.62s-28.3 38.25-35.572 35.25c-7.276-3 .31-12.88.31-12.88s-58.987 15.93-38.8-40c0 0 6.046-6.51 20.808 1.75 0 0 6.068-27.01 17.2-35.18 10.657-7.823 18.58 13.498 18.58 13.498s40.204-38.19 73.56-19.932c0 0-9.11-15.252-8.342-18.297.77-3.05 13.906-4.79 21.55 11.65 0 0 9.815-16.83 18.9-5.6 9.09 11.23-.08 19.87-.08 19.87s37.895 40.834 12.618 81.49l-15.365 5.97"/><path fill="#f9cea2" d="M735.16 235.763s1.684-18.094 15.308-20.23c13.623-2.137 28.666 41.35-1.664 46.07-12.798 1.992-13.644-25.84-13.644-25.84"/><path fill="#bc7d51" d="M659.84 242.056s11.762 9.874 12.117 14.973c.355 5.1-14.145 5.52-12.133 9.82 2.01 4.29 5.357 6.43 14.55 1.15 0 0-11.914 9.21-15.794 4.45-6.224-7.64-2.076-12.02 6.976-14.01 6.4-1.41-.447-9.88-5.716-16.39"/><path fill="#cd787b" d="M728.207 264.317c.564 12.004-1.47 26.748-12.64 35.29-3.702 2.83-7.588 4.163-11.483 4.477-1.15-17.49 14.8-32.535 24.124-39.767"/><path fill="#652825" d="M667.234 283.91c18.632-18.676 57.905-38.82 57.905-38.82s2.56 8.524 3.06 19.228c-9.327 7.23-25.278 22.276-24.127 39.766-18.343 1.476-36.85-20.174-36.85-20.174"/><path fill="#392d17" d="M688.57 210.345s-13.053.06-20.478 7.684c0 0 6.048-15.4 20.48-7.69m-44.68 21.52s-12.24 4.534-13.144 10.636c0 0 .727-14.74 13.145-10.637"/><path fill="#140e0c" d="M678.347 238.58s-.595-8.845 5.69-12.438c6.284-3.59 11.523-2.793 16.887 1.997 0 0-14.63-4.24-22.576 10.44m-35.59 23.12s-.554-8.85 5.29-12.44c5.842-3.595 10.713-2.796 15.7 1.994 0 0-13.602-4.24-20.99 10.44"/><path fill="#f9cea2" d="M561.995 452.57s-31.995-33.195-40.12-39.445c-8.125-6.25-12.5 11.785 8.75 28.392 0 0-11.53 2.233-15.453 5.358-3.922 3.125-9.547 21.875-5.797 27.5 3.75 5.625 20 10 21.875 7.5l1.875-3.88s20.866 8.445 28.87 4.6c8.005-3.845 0-30.026 0-30.026"/><path fill="#f9cea2" d="M561.995 452.57s-5.12-11.256-8.245-14.726c-3.125-3.47-11.25 3.674-11.25 3.674l19.495 11.05"/><path fill="#393f42" d="M784.027 305.41c-12.836-5.69-25.833 105.125-86.806 136.108C636.25 472.5 562 452.568 562 452.568s-3.245 27.5-8.245 33.09c0 0 86.87 15.467 156.32-23.388 52.35-29.287 115.256-138.56 73.958-156.86"/></svg>