<?xml version="1.0" encoding="UTF-8" standalone="no"?><svg xmlns="http://www.w3.org/2000/svg" viewBox="0 0 1000 1000"><path d="M671 459.45s0-20.9 21.666-20.583c0 0 .8-27.557 30.816-26.953 30.018.603 35.852 16.923 37.518 23.763 0 0 16.666-39.68 68.334-31.02C881 413.317 871 448.87 871 448.87s41.666 9.382 14.166 15.265c-27.5 5.882-65 0-65 0s-43.996 21.03-70.747 8.456c0 0-56.76 8.58-67.59-2.28 0 0-40.84 8.63-47.5 0-6.67-8.62 25-11.42 36.66-10.86m-508.9-286.92s0-20.9 21.665-20.58c0 0 .8-27.56 30.817-26.952 30.018.605 35.852 16.925 37.518 23.765 0 0 16.667-39.68 68.335-31.022 51.664 8.66 41.664 44.216 41.664 44.216s41.665 9.385 14.165 15.267c-27.5 5.883-65 0-65 0s-43.99 21.03-70.74 8.456c0 0-56.754 8.574-67.586-2.283 0 0-40.833 8.625-47.5 0-6.67-8.624 25-11.423 36.667-10.857" fill="#b5e6e6"/><path d="M386.215 327.51s-4.31 8.845-5.44 20.492c0 0 .552 4.258 11.1 7.823 12.04 1.617 34.57.255 34.57.255v-5.19s-20.32-.123-25.225-3.693c-.8-2.402 0-6.46 1.972-10.113l-16.977-9.573" fill="#c3ebf6"/><path d="M393.794 324.357s9.71-29.893 10.312-33.107c0 0 9.76-1.233 16.634 5.174 0 0-14.244 28.566-17.314 32.583 0 0-4.48-3.22-9.632-4.65" fill="#0c0c0d"/><path d="M384.005 329.47s1.837-6.8 6.2-8.856c1.27-.6 15.8 7.636 17.77 10.62 0 0-3.486 8.908-4.92 9.26 0 0-18.13-8.657-19.05-11.024" fill="#232425"/><path d="M487.606 363.27s-10.67 20.77-11.485 22.074c-.81 1.302 12.71 0 12.71 0s-5.1 20.85-5.73 24.76c0 0 8.69-5.864 13.78-7.82 0 0 11.587 42.446 16.8 50.917 0 0 29.68-52.5 28.344-56.41 0 0 6.27 2.247 8.88 2.9 2.606.65-8.47-21.505-8.47-21.505s11.076.65 14.986 0l-10.917-18.82s-47.895 2.038-58.89 3.91" fill="#faeb66"/><path d="M541.08 229.59c-6.178-10.348-15.058-13.894-28.37-12.033-9.27 1.297-15.6 8.427-19.848 18.733 12.397 2.33 30.177 2.75 48.22-6.7" fill="#ad421f"/><path d="M541.08 229.59c-18.04 9.45-35.82 9.03-48.218 6.7-14.923 36.225-4.043 111.76-4.043 111.76 47.85 6.96 68.44-6.96 68.44-6.96-3.2-59.468-6.08-94.583-16.18-111.5" fill="#b3afa5"/><path d="M488.82 343.41l-2.61 3.53s1.014 15.61 1.16 17.06c0 0 51.04 11.02 75.11-6.96 0 0-.956-15.453-3.19-17.11l-2.234-1.656S529.71 349.5 488.82 343.41" fill="#4e8186"/><path d="M485.865 327.49s29.872 5.86 71.417-4.968l-.022-12.428s-24.274 7.788-71.395 4.695v12.7" fill="#c7551e"/><path d="M576.625 593.8c-22.96-4.71-38.273-31.553-19.365-44.408 0 0-38.513-6.23-20.864-43.877 0 0-25.292-13.224-5.165-32.924 0 0-27.67-35.25.99-54.53 0 0 10.88-16.64 31.71 23.76 0 0 70.35-31.24 32.77 53.26 20.2-8.265 22.954 16.526 11.016 23.87 32.138 4.592 36.235 45.91 7.1 61.06 9.428 5.97 11.456 35.347-8.476 34.43 0 0 45.45 8.266 28.095 45.452 35.26-17.903 47.653 15.15 39.39 33.055 0 0 61.98 28.924-5.51 72.998 48.204 24.79 38.564 104.673-28.923 100.54 39.94 20.66 11.018 68.866-23.414 45.45 9.64 17.907-15.337 49.584-45.543 48.207-30.205-1.38-41.8-35.81-44.27-49.584-16.235 19.284-34.07-8.262-24.463-20.657-26.207 9.64-43.69-35.81-14.978-50.96-45.66 4.13-70-71.62 2.77-85.395-25.013-23.413-10.27-72.085 38.14-61.52-10.817-15.607 16.106-22.272 26.043-19.517 0 0-21.345-29.456 14.61-41.86 0 0-16.15-31.07 8.35-36.84" fill="#e8e8e6"/><path d="M530.5 386.95s-15.035 29.27-16.183 31.105c-1.148 1.836 17.904 0 17.904 0s-7.19 29.382-8.08 34.89c0 0 12.25-8.263 19.42-11.018 0 0 27.46 62.438 34.81 74.374 0 0 30.693-76.61 28.808-82.12 0 0 8.84 3.16 12.513 4.08 3.67.92-11.94-30.3-11.94-30.3s15.61.92 21.12 0l-15.38-26.51s-67.49 2.87-82.98 5.51" fill="#e6d620"/><path d="M544.076 386.007s-10.064 19.592-10.832 20.82c-.768 1.23 11.985 0 11.985 0s-4.82 19.668-5.42 23.355c0 0 8.194-5.53 13-7.375 0 0 18.38 41.794 23.294 49.784 0 0 20.543-51.28 19.282-54.97 0 0 5.915 2.12 8.374 2.73 2.46.62-7.99-20.28-7.99-20.28s10.45.62 14.136 0l-10.294-17.75s-45.173 1.92-55.546 3.69" fill="#f9ec65"/><path d="M591.435 227.365c-21.42 11.22-42.53 10.722-57.25 7.956-17.72 43.01-4.8 132.7-4.8 132.7 56.812 8.267 81.26-8.26 81.26-8.26-3.795-70.604-7.21-112.297-19.21-132.384" fill="#c3ebf6"/><path d="M529.385 362.505l-3.1 4.19s1.206 18.535 1.38 20.256c0 0 60.6 13.09 89.177-8.26 0 0-1.135-18.34-3.787-20.31l-2.654-1.965s-32.46 13.33-81.01 6.1" fill="#6aa2a6"/><path d="M525.877 343.604s35.468 6.955 84.794-5.9l-.02-14.755s-28.82 9.24-84.763 5.57v15.08" fill="#c7551e"/><path d="M568.275 220.06s18.044-.794 25.326 24.48c7.26 25.192 10.7 86.647 11.85 108.27l-7.52 2.125s-1.27-132.965-29.65-134.875" fill="#fff"/><path d="M591.435 227.365C584.1 215.082 566.3 210.89 557.75 213.08c-10.765 2.76-18.523 10.005-23.564 22.24 14.718 2.767 35.828 3.266 57.25-7.955" fill="#c7551e"/><path d="M467.235 244.372c7.26-1.687 26.197 13.28 13.455 68.65-10.366 45.043-77.08 11.31-77.08 11.31s11.81-12.613 7.87-19.967c0 0 32.82 33.91 54.06 9.065 3.657-4.276 7.22-26.824 2.59-41.976-5.116-16.75-9.435-25.097-.895-27.082" fill="#394042"/><path d="M403.61 323.272s.136.088.38.21c1.71.86 8.827 3.428 13.185-10.46 0 0-17.418-.872-13.564 10.25" fill="#e5b082"/><path d="M421.91 301.807c-2.744-.922-5.638-.982-9.08 7.183-3.443 8.165-.974 8.73 3.134 6.48s9.577-12.44 5.945-13.663" fill="#e5b082"/><path d="M407.255 297.83c-7.94-2.384-17.394 1.685-2.334 9.452 15.07 7.768 20.52-4 2.34-9.453" fill="#fcd0a4"/><path d="M403.305 305.366c-4.67-1.4-9.22-2.136-10.665 1.686-1.08 2.86 1.34 4.644 8.226 8.197 7.338 3.78 12.01 3.88 13.983.78 1.71-2.69-1.4-7.62-11.55-10.67" fill="#fcd0a4"/><path d="M400.44 313.984c-6.49-1.948-14.216 1.378-1.908 7.727 6.065 3.13 10.583 2.23 11.59.19 1.843-3.74-2.146-5.645-9.682-7.91" fill="#fcd0a4"/><path d="M560.067 190.04s2.67 8.61 0 10.675c-2.668 2.065-9.555-3.69-10.932-5.978 0 0 1.722 6.513-1.376 6.418-3.1-.096-8.27-11.114-8.27-11.114s6.71-11.7 20.57 0" fill="#614f26"/><path d="M474.762 101.55s-17.905 47.516-23.413 61.29c-5.51 13.772-8.96 39.25 11.7 45.45 20.66 6.197 57.622 8.264 70.24-5.51 12.61-13.773 15.15-25.48 15.15-25.48s20.66-48.893 6.89-68.175c-13.78-19.28-70.248-28.234-80.578-7.575" fill="#fcd0a4"/><path d="M480.96 126.8s-3.214 6.427-5.51 6.427c-2.295 0-11.476 2.297-4.59 7.347 6.886 5.05 13.314 2.295 13.314 2.295s-12.1-2.25-12.395-5.51c-.3-3.27 4.59-.17 6.88-2.15 2.29-1.99 2.29-8.41 2.29-8.41" fill="#c38052"/><path d="M509.3 127.87c-.84 2.79-2.77 4.68-4.31 4.216-1.54-.464-2.106-3.102-1.266-5.895.84-2.79 2.768-4.68 4.308-4.21 1.54.467 2.108 3.1 1.268 5.9m-32.015-2.296c-.84 2.79-2.77 4.68-4.31 4.216-1.54-.463-2.108-3.103-1.268-5.895.84-2.79 2.77-4.68 4.31-4.215 1.54.46 2.108 3.1 1.268 5.892" fill="#140e0c"/><path d="M484.174 100.517s8.837 12.052 12.625 11.707c3.78-.344 0-7.23 0-7.23s10.67 9.296 18.24 10.673c7.572 1.378 0-7.575 0-7.575s6.54 2.555 9.3.073c2.75-2.483-25.6-15.568-40.17-7.648" fill="#614f26"/><path d="M459.612 157.33s-2.362 35.12 16.528 40.63c.232.067.46.104.694.165 5.55-23.7 32.56-28.13 44.363-28.93 2.034-3.386 3.148-5.668 3.148-5.668-26.858-17.903-64.733-6.197-64.733-6.197" fill="#692926"/><path d="M476.834 198.125c20.875 5.47 37.667-17.78 44.363-28.93-11.802.8-38.813 5.23-44.363 28.93" fill="#d67a7e"/><path d="M460.466 139.26s4.953-12.153 8.218-20.966a147.78 147.78 0 0 1-4.145-2.398c-2.06 6.984-3.47 14.75-4.08 23.363" fill="#c3ebf6"/><path d="M593.97 103.455a50.835 50.835 0 0 0-7.648-12.923c-29.178-36.007-102.985-38.557-121.783 25.364 1.29.78 2.68 1.583 4.14 2.398 1.25-3.377 2.25-6.265 2.63-7.792 0 0 28.233-18.592 70.24 4.822 0 0 4.34 5.272 5.415 16.898 15.64-3.83 31.72-12.535 46.993-28.767" fill="#fff"/><path d="M546.976 132.222c1.02 11.038-.9 27.8-12.302 51.277 0 0 24.102 13.08 31.677 11.01 6.8-1.85 43.52-51.94 27.62-91.06-15.27 16.23-31.35 24.932-46.99 28.762" fill="#c3ebf6"/><path d="M569.195 145.346a7.212 7.212 0 0 0-1.045-.195c4.096 1.96 5.622 9.71 3.382 18.04-2.24 8.33-7.45 14.27-11.976 13.91a7.11 7.11 0 0 0 1.003.36c5.73 1.54 12.31-4.395 14.7-13.26 2.38-8.864-.33-17.3-6.07-18.844" fill="#6da2a6"/><path d="M571.532 163.187c2.24-8.33.714-16.08-3.382-18.036-5.468-.61-11.415 5.13-13.655 13.46-2.24 8.33.022 16.28 5.06 18.49 4.526.367 9.736-5.57 11.977-13.903" fill="#95cec9"/><path d="M501.352 113.285s11.285 1.226 17.713 10.714c0 0-8.338-17.6-17.713-10.72m-16.332-.22s-4.37-2.31-13.7 6.15c0 0 6.775-13.263 13.7-6.155" fill="#392d17"/><path d="M485.78 593.24s-6.886 20.66-12.395 29.61c-5.51 8.954-2.066 23.415 6.197 24.104 8.264.688 35.82-39.03 38.564-44.074 2.745-5.043-13.05-13.79-13.05-13.79s-14.495 1.395-19.316 4.15" fill="#2c2117"/><path d="M513.67 589.09s2.636 15.852 3.325 28.936c.69 13.085-1.673 32.37 8.314 35.814 9.98 3.442 13.97-2.066 13.97-2.066s12.322-46.308 11.09-52.765c-1.24-6.46-13.98-15.41-13.98-15.41l-22.73 5.49" fill="#2c2117"/><path d="M423.802 382.515s11.02 138.417 57.158 213.48c0 0 19.97 11.706 32.71-11.02 0 0-15.264-31.676-29.496-84.703-14.232-53.025-21.12-101.918-22.152-110.182l-38.22-7.575" fill="#394042"/><path d="M429.202 389.365s13.95 25.516 22.18 38.6c8.23 13.085 42.274 149.436 58.307 168.717 0 0 18.51 6.198 40.68-9.64 0 0-40.34-87.83-49.02-187.497 0 0-51.6-19.86-72.15-10.18" fill="#394042"/><path d="M435.91 401.452s11.604 14.465 16.95 29.508c5.346 15.042 37.124 124.202 48.492 147.64 0 0-25.31-62.815-36.52-98.913-11.208-36.098-10.173-42.885-28.922-78.235" fill="#1c1f21"/><path d="M704.792 692.016s-13.246-10.505 0-16.62c0 0-16.303-18.092 0-25.857 16.303-7.77 22.417 13.63 22.417 13.63s4.07-9.17 14.26-3.06c10.19 6.11 6.11 19.8 0 24.16 0 0 12.41 7.77 6.2 18.294-6.207 10.522-18.435 0-18.435 0-4.075 12.56-31.586 6.06-24.454-10.56" fill="#e8e8e6"/><path d="M526.736 237.9s13.79 2.946 19.645 6.64c0 0-32.71 94.82-35.12 156.912 0 0-31.15-6.766-57.89-10.386-.19-1.354-.49-2.124-1.98-2.31-11.99-1.48-25.19-.46-31.024.58 0 0 23.876-114.707 47.988-144.797 0 0 6.42-.91 13.133-2.92 6.713-2.008 45.26-3.73 45.26-3.73" fill="#394042"/><path d="M485.514 240.19s-14.728 12.645-25.997 12.064c0 0 4.227 12.16 13.18 19.735 0 0-18.87 8.6-21.315 10.33v77.4s11.32-37.69 12.248-46.04c.926-8.35 19.272-65.1 21.884-73.5" fill="#585f61"/><path d="M521.59 207.256s-6.543 32.71-7.575 35.465c-20.45 20.66-23.184 9.66-22.084 0-1.67-2.06 5.56-25.82 5.56-33.74 10.68-1.72 24.11-1.72 24.11-1.72" fill="#fcd0a4"/><path d="M451.36 362.074c.334-.59-2.98 15.586-3.235 21.652 0 0 .48-16.812 3.234-21.652m-3.77 2.096c-.168 1.03-.92 1.765-1.685 1.64-.764-.12-1.25-1.056-1.083-2.086.166-1.03.92-1.765 1.684-1.642s1.25 1.058 1.083 2.088m-1.418 11.462c-.165 1.03-.92 1.765-1.68 1.643-.766-.124-1.25-1.058-1.086-2.088.167-1.03.92-1.765 1.685-1.642.76.124 1.246 1.057 1.08 2.087" fill="#1c1f21"/><path d="M529.774 240.19s-1.298 19.747 6.622 29.732c0 0-27.294 9.46-38.856 11.363 0 0 12.342 10.33 24.05 17.56 0 0-63.32 33.674-70.208 60.876 0 0 7.133-33.4 11.485-44.41 4.354-11.02 59.08-68.82 66.907-75.11" fill="#585f61"/><path d="M504.492 242.94c-1.048.77-2.388 1.91-3.778 3.174l-1.1-3.393-3.38 7.01c-.745.77-1.1 1.91-1.675 2.58l-1-8.72-1.51 1.63c-.127-.63-.254-1.164-.38-1.54-5.235.444-7.507.87-7.507.87-6.428 14.21-21.307 70.764-21.307 70.764 10.8-20.66 63.87-72.582 63.87-72.582-8.985-.1-16.335.013-22.245.22" fill="#dfdfdd"/><path d="M519.87 230.326s-17.494 10.993-20.255 12.395c0 0 2.68 11.37 3.72 14.12 0 0 25.485-14.12 27.896-17.9l-11.36-8.61m-27 3.338s-.93 5.063.705 9.923c0 0-4.342 9.813-6.752 11.535 0 0-3.1-10.27-3.444-14.057l9.49-7.4" fill="#fff"/><path d="M502.247 254.444s-13.396-1.82-13.78-1.228c-.383.593 1.854 13.15 1.854 13.15s4.68 2.993 5.28 1.905c.6-1.08 6.65-13.82 6.65-13.82" fill="#111"/><path d="M490.314 266.167s-8.194 21.073-38.855 33.712c-17.75 7.31-47.63 38.22-41.43 65.76 0 0 14.11 16.52 18.25 16.87 0 0 12.39-12.74 15.15-16.87 0 0-12.25-36.75 17.03-54.75C494.79 289.783 495.4 268.5 495.4 268.5l-5.098-2.344" fill="#111"/><path d="M499.615 242.72s-4.316 8.03-5.07 9.47c0 0-.638-6.86-.98-8.608 0 0 .345 8.37.736 10.03 0 0 2.7-4.69 5.32-10.89" fill="#929897"/><path d="M432.33 387.215c-.644.084 14.544-.703 17.027-.32l1.29 1.527s24.792 4.22 35.562 7.884c0 0-20.5-5.766-35.91-6.21l-1.53-1.97s-12.38-1.44-16.44-.91" fill="#1c1f21"/><path d="M531.2 238.974s72.887 8.585 76.376 60.312c4.685 69.456-107.96 55.314-107.96 55.314s11.99-21.013 5.598-28.358c0 0 77.777 22.592 82.256-21.65 2.754-27.208-35.553-39.275-45.936-41.21-10.384-1.938-11.832-18.992-10.334-24.408" fill="#394042"/><path d="M491.93 363.946c-2.14 9.585 0 13.34 0 13.34 2.91 1.968 46.414-6.69 73.972-17.057 4.622-1.74 9.948-8.46 13.18-10.23 0 0 6.484.87 7.26 5.78.274 1.74.013 3.57-4.007 7.26 0 0-69.46 21.425-100.215 24.01-4.88.41-9.33-2.285-12.058-3.335-1.787-3.31.157-23.24.157-23.24s16.13.8 21.71 3.46" fill="#c3ebf6"/><path d="M485.78 306.5s-8.255 45.832-9.52 49.905c-1.268 4.074 9.96 5.91 13.53 4.762 3.566-1.147 16.105-45.235 16.722-49 0 0-9.943-6.39-20.732-5.667" fill="#0c0c0d"/><path d="M471.815 351.756s21.54 4.59 24.295 7.345c0 0-1.47 8.68-4.18 11.23-2.706 2.55-21.644-5.71-23.194-7.09-1.55-1.38.008-6.8 3.08-11.48" fill="#232425"/><path d="M511.08 328.296s-1.915-5.04-5.54-12.147c-1.86 5.8-3.516 8.98-3.516 8.98s-18.838-10.15-21.237-6.54c-2.397 3.61-.94 10.106-.94 10.106s-5.696.523-5.662 5.044c.032 4.523.527 6.74.527 6.74s-4.51 3.546.174 6.588c4.684 3.043 20.375 9.382 24.73 7.523 4.353-1.86 11.97-16.063 11.463-26.302" fill="#fcd0a4"/></svg>