<?xml version="1.0" encoding="UTF-8" standalone="no"?><svg xmlns="http://www.w3.org/2000/svg" viewBox="0 0 1001.25 1000"><defs><clipPath id="a"><path d="M5730.98 7566.88c-771.7 0-1409.93-531.43-1515.45-1222.47-.01 0-536.14 172.2-921.67-293.66 0 0 586.52 247.26 940.96-211.12 149.09-641.47 762.26-1122.11 1496.16-1122.11 845.48 0 1530.87 637.85 1530.87 1424.68s-685.39 1424.68-1530.87 1424.68"/></clipPath></defs><path fill="#448889" d="M855.692 825.954c0 16.19-59.242 29.312-132.322 29.312-73.08 0-132.32-13.123-132.32-29.312 0-16.188 59.24-29.31 132.32-29.31 73.08 0 132.322 13.122 132.322 29.31"/><path fill="#fff" d="M716.372 54.14c-96.462 0-176.24 66.43-189.43 152.81-.002 0-67.018-21.526-115.21 36.706 0 0 73.315-30.907 117.62 26.39 18.637 80.184 95.283 140.264 187.02 140.264 105.685 0 191.36-79.73 191.36-178.085 0-98.354-85.675-178.085-191.36-178.085"/><path d="M707.59 247.837s-35.546 16.01-50.583 21.443c-17.04 6.157-47.206 3.697-49.935-6.463-5.22-19.428 49.114-64.572 51.577-67.408 2.46-2.84-13.77-22.91-15.41-26.78 0 0-79.83 75.21-64.49 110.69 6.45 14.94 65.69 27.324 101.65 2.75 35.95-24.578 27.18-34.244 27.18-34.244" fill="#36414c"/><path d="M660.196 125.228s-10.914 3.304-13.62 7.182c-2.705 3.877 9.318 75.917 13.62 78.995 4.302 3.078 28.973-4.654 28.973-4.654s-8.96-84.58-28.98-81.52" fill="#819f9f"/><path d="M677.45 121.95c-14.286 1.715-24.343 3.563-23.727 10.95.616 7.39 9.236 78.505 14.47 78.505 5.233 0 39.405-9.547 41.56-10.623 2.156-1.076-7.673-75.654-10.9-78.04-4.826-3.566-7.54-2.46-21.404-.793" fill="#dcf3f8"/><path d="M678.225 126.44c-11.782 1.415-20.077 2.938-19.57 9.033.51 6.093 7.62 64.75 11.935 64.75 4.317 0 32.502-7.876 34.28-8.762 1.777-.88-6.33-62.4-8.992-64.36-3.98-2.94-6.218-2.03-17.653-.65" fill="#8dc1cb"/><path d="M691.076 200.782a3.098 3.098 0 1 1-6.196 0 3.098 3.098 0 0 1 6.196 0m-12.64-72.243c-11.1 1.33-18.914 2.76-18.436 8.51.48 5.74 7.177 60.99 11.243 60.99 4.067 0 30.62-7.42 32.294-8.256 1.675-.836-5.962-58.786-8.47-60.64-3.75-2.77-5.858-1.91-16.63-.615" fill="#9cd9dd"/><path d="M644.925 160.578s6.004-4.676 13.175-5.725c7.17-1.05 17.75 1.612 11.135 6.36-7.24 5.2-15.174 7.165-15.174 7.165s14.41-1.92 19.2-.248c4.787 1.67 7.48 6.244-.78 8.584s-17.953 5.538-17.953 5.538 13.654.872 18.867 4.747c5.21 3.87-7.516 7.8-14.803 8.19-7.287.39-21.97-6.32-9.306-11.99 0 0-11.616-6.06-3.763-12.65 0 0-9.776-.67-.584-9.98" fill="#fcd0a4"/><path d="M704.297 256.968s-3.37-39.335-9.527-58.458c-6.156-19.122-14.632-51.523-5.6-80.284 9.03-28.76 50.958-52.54 86.773-45.563 35.814 6.978 60.033 32.428 54.285 73.065-5.746 40.638-26.2 117.69-51.31 139.64-25.11 21.947-74.62-28.4-74.62-28.4" fill="#401e14"/><path d="M729.257 246.482s-15.005 1.254-21.667 1.355c-6.662.1-23.902 19.954-36.627 37.53-12.724 17.574-3.182 33.48-2.77 37.994.41 4.52-23.91 51.42-28.426 61.27 0 0 5.746 13.4 8.21 13.68 2.462.28 4.514-2.18 4.514-2.18s3.7 9.834 9.04 9.638c5.338-.195 66.62.215 75.23-3.48-.003-2.46-.973-44.33 6.64-55.824 7.61-11.493 40.52-54.98 44.798-71.616 4.276-16.637-24.935-21.77-31.88-23.718-6.944-1.95-27.052-4.64-27.052-4.64" fill="#36414c"/><path d="M756.3 257.1c-.554 2.593-13.606 24.805-27.043 38.043-13.438 13.237-50.905 26.475-50.905 26.475s0-5.54 2.77-14.468c2.77-8.93 22.166-40.023 27.707-45.872 5.54-5.85 20.42-12.163 20.42-12.163s27.6 5.39 27.04 7.984" fill="#93a3a4"/><path d="M724.222 249.115s-13.375-1.08-19.925 0c0 0-1.137 5.427 0 10.93 0 0-13.963 1.54-15.952 2.772 0 0-14.61 39.1-9.993 58.8 0 0 .495-8.15 9.993-26.474 9.496-18.326 25.917-37.59 33.415-41.808 7.497-4.22 2.462-4.22 2.462-4.22" fill="#45535e"/><path d="M726.172 258.13c-1.956 1.168-4.412-14.28-4.412-14.28 1.232-.493 13.418-3.814 13.418-3.814 6.03 19.703-7.05 16.93-9.006 18.094" fill="#adbdbc"/><path d="M732.534 227.205s2.463 21.474 0 27.26c0 0-16.83 9.066-20.934 14.815-4.105 5.75-7.303 18.675-7.303 18.675s9.766-8 21.875-14.568c12.11-6.568 21.14-14.777 24.013-17.24 2.873-2.462 11.904-39.66 15.6-48.973 3.693-9.315-30.95 14.07-33.25 20.03" fill="#fcd0a4"/><path d="M759.32 255.12s1.845-8.31 2.154-10.466c.308-2.156-16.317.576-20.32 1.828 0 0 1.848 16.335 4.31 16.335 2.464 0 13.855-7.696 13.855-7.696" fill="#adbdbc"/><path d="M757.574 251.12s6.978 2.142 10.364 7.073c3.387 4.933 8.005 12.32 8.005 12.32s-23.085 5.235-24.627 4.62c0 0 9.86 13.237 10.162 15.084.304 1.846-36.947 41.87-83.126 31.4 0 0 41.253-20.01 48.796-28.013 7.542-8.005 24.987-29.863 30.426-42.485" fill="#45535e"/><path d="M677.45 323.36s-1.15 7.083-2.792 12.83c-1.643 5.747-11.494 25.45-11.494 25.45l14.285-38.28" fill="#161c21"/><path d="M703.405 288.5s-5.762 3.057-8.635 7.518c-2.873 4.46-7.723 17.6-9.403 20.472-1.68 2.87 10.39-22.368 18.038-27.99" fill="#688285"/><path d="M772.058 255.628c1.006.39 15.07 4.008 19.585 7.19 4.516 3.18 24.63 82.403 30.377 101.695 5.746 19.293-20.428 27.092-33.406 2.053-12.98-25.04-15.617-39.724-16.556-47.57-.94-7.845 0-63.368 0-63.368" fill="#36414c"/><path d="M778.92 285.367c-2.757-5.27-7.78-13.78-10.132-13.28-2.353.5-2.902 18.523 0 27.57 2.902 9.05 12.82 19.57 16.698 21.96 8.005 4.932 43.203-16.82 48.95-19.008 5.747-2.19 6.055-13.08-20.216-5.76 0 0 25.45-18.52 23.603-22.02-1.847-3.5-20.42-1.3-33.505 10.53 0 0 14.007-21.42 10.722-25.118-3.283-3.694-16.42 11.082-23.397 19.703-6.978 8.62-10.212 10.215-12.724 5.412m-80.87-158.93s35.71-14.37 43.1-26.273c0 0 4.51 57.88 42.28 76.35 0 0-25.45 69.37-69.78 55.006-44.34-14.367-25.86-86.61-15.6-105.083" fill="#fcd0a4"/><path d="M743.18 156.26c-1.01 3.39-3.616 5.606-5.82 4.948-2.204-.657-3.17-3.937-2.16-7.326 1.01-3.39 3.616-5.605 5.82-4.948 2.202.656 3.17 3.937 2.16 7.326m-36.53-10.374c-.94 3.155-3.365 5.216-5.415 4.606-2.052-.612-2.95-3.665-2.01-6.82.94-3.154 3.366-5.216 5.416-4.605 2.05.612 2.96 3.664 2.01 6.82" fill="#140e0c"/><path d="M738.897 121.51s17.958.308 22.577 11.39c0 0-6.056-17.238-22.577-11.39m-16.214-1.21s-9.066-8.333-18.386-4.947c0 0 12.23-7.963 18.386 4.947" fill="#291411"/><path d="M716.707 151.164s-6.158 10.467-9.853 10.16c-3.693-.308-11.186-4.605-13.442.006-2.258 4.612 2.052 7.998 5.747 10.153 0 0-13.24-3.694-9.24-12.006 4-8.313 13.54-.308 15.7-.308 2.15 0 11.08-8.01 11.08-8.01" fill="#c38052"/><path d="M717.197 219.38c12.606 3.198 24.09-8.93 31.562-19.788-9.52.674-28.29 4.032-31.57 19.79" fill="#ed8f8f"/><path d="M694.77 178.977s-.41 33.66 21.756 40.227c.225.067.447.12.67.177 3.28-15.75 22.044-19.11 31.563-19.78 5.49-7.982 8.81-15.28 8.81-15.28-5.75-.82-62.81-5.333-62.81-5.333" fill="#692926"/><path d="M757.49 161.422c-3.193 8.457-15.836 5.152-22.744 2.4-6.91-2.754-4.438-10.296-3.5-15.144.937-4.848 4.767-3.674 10.747-2.485 0 0 13.087 3.692 15.624 4.65 2.536.957 3.063 2.122-.128 10.58m-45.52-12.683c-2.84 7.505-9.48 6.05-15.62 3.605-6.137-2.444-3.94-9.142-3.11-13.446.83-4.31 4.23-3.26 9.542-2.21 0 0 7.04 1.8 9.293 2.65 2.253.85 2.72 1.88-.113 9.39m49.497.73c-3.305-1.248-20.35-6.056-20.35-6.056-6.13-1.22-10.516-2.41-12.705.21-1.803-1.103-5.296-2.725-10.36-2.794.07-2.115-.877-2.834-2.55-3.463-3.114-1.177-12.852-3.665-12.852-3.665-7.344-1.464-12.047-2.906-13.198 3.05-1.152 5.95-4.186 15.214 4.298 18.594 8.485 3.38 17.678 5.393 21.597-4.99a99.845 99.845 0 0 0 1.455-4.085l.006.006s6.13-1.617 9.815 2.777c-1.317 6.177-2.86 14.165 5.06 17.32 9 3.587 25.466 7.89 29.624-3.125 4.155-11.015 3.47-12.532.164-13.78" fill="#121213"/><path d="M764.013 154.626s24.278 17.33 27.015 18.272c2.737.942 0 3.538 0 3.538l-29.554-17.06 2.54-4.75" fill="#121213"/><g transform="matrix(.116 0 0 -.116 53.137 911.723)" clip-path="url(#a)"><path d="M6222.57 6311.56s94.91 101.69 183.04 47.45c88.14-54.23 77.97-191.12 13.56-239.62-64.4-48.51-281.35-58.68-196.6 192.17" fill="#fcd0a4"/></g><path fill="#3b757b" d="M565.765 852.918c0 28.185-103.14 51.032-230.37 51.032s-230.372-22.848-230.372-51.033c0-28.183 103.14-51.03 230.37-51.03s230.372 22.847 230.372 51.03"/><path fill="#394042" d="M315.607 361.814c-9.746-6.018-5.96-18.194 1.673-17.98 7.634.216 96.976 51.415 104.614 25.847 7.637-25.56-45.27-86.61-45.27-86.61s2.678-25.51 5.775-31.35c0 0 80.05 85.69 65.92 134.01-14.14 48.33-113.33-11.94-132.72-23.91"/><path fill="#737779" d="M323.852 222.72c6.88-3.304 25.418-12.07 30.004-13.767 4.586-1.7 10.123-5.052 15.186 7.57 5.063 12.625 27.957 69.95 27.633 73.266-.324 3.31.6 6.26-13.945 12.42s-25.035 9.33-28.774 10.05c-3.74.71-7.39 2.13-14.527-14.81-7.14-16.95-18.94-52.2-20.82-57.04-1.88-4.85-2.7-13.89 5.24-17.7"/><path fill="#1f2021" d="M317.014 225.59c6.878-3.304 30.002-13.768 34.588-15.466 4.587-1.698 9.335-.053 14.4 12.57 5.062 12.623 25.532 65.792 25.208 69.107-.325 3.32-.772 7.12-15.32 13.29-14.544 6.17-25.034 9.34-28.774 10.05-3.74.72-7.39 2.14-14.526-14.802-7.14-16.943-18.936-52.196-20.816-57.04-1.88-4.844-2.698-13.883 5.24-17.695"/><path fill="#76a2b1" d="M321.815 228.65c5.406-2.595 23.582-10.82 27.188-12.156 3.605-1.334 7.426.474 11.406 10.396 3.98 9.923 19.97 51.556 19.71 54.163-.26 2.606-.6 5.24-12.03 10.085-11.44 4.845-19.68 7.336-22.62 7.897-2.94.56-5.81 1.68-11.42-11.64-5.61-13.317-14.89-41.027-16.36-44.835-1.48-3.807-2.12-10.912 4.12-13.91"/><path fill="#8dc1cb" d="M323.384 230.48c5.077-2.437 22.147-10.16 25.532-11.415 3.385-1.254 5.565.623 9.303 9.94 3.73 9.32 19.15 48.535 18.91 50.983-.24 2.446.44 4.622-10.29 9.172-10.74 4.55-18.48 6.89-21.24 7.416-2.76.527-5.46 1.577-10.73-10.93-5.27-12.506-13.978-38.528-15.366-42.103-1.387-3.575-1.99-10.248 3.87-13.062"/><path fill="#fcd0a4" d="M380.776 243.86s-7.715-1.065-14.602 1.68c-6.89 2.746-14.894 10.525-6.603 11.34 9.08.896 17.11-1.43 17.11-1.43s-13.74 5.684-17.12 9.616c-3.38 3.933-3.42 9.364 5.09 7.204 8.52-2.16 18.74-4.3 18.74-4.3s-11.64 7.772-14.28 13.875c-2.63 6.102 10.66 3.058 17.31-.33 6.66-3.39 16.23-16.856 2.1-15.39 0 0 7.19-11.32-3.15-13.13 0 0 8.32-5.604-4.59-9.136m-63.24 15.79s-1.51 4.923-2.1 9.003c-.59 4.08 6.41 22.28 11.78 26.97 5.38 4.69 10.48 3.99 10.48 3.99l-20.16-39.967"/><path fill="#fff" d="M377.025 212.606a3.126 3.126 0 0 1-3.12-3c-.006-.103-.347-6.303-4.834-10.092-3.11-2.63-7.62-3.6-13.4-2.883a3.12 3.12 0 0 1-3.48-2.71 3.125 3.125 0 0 1 2.717-3.48c7.62-.95 13.77.526 18.276 4.368 6.595 5.624 6.968 14.214 6.98 14.578a3.126 3.126 0 0 1-3.013 3.23l-.11.004"/><path fill="#fff" d="M392.37 213.944a3.124 3.124 0 0 1-3.12-3.01c-.006-.182-.683-13.99-10.814-22.59-6.986-5.932-16.92-8.144-29.52-6.582a3.125 3.125 0 0 1-.77-6.203c14.443-1.8 26.015.92 34.394 8.07 12.24 10.43 12.933 26.4 12.956 27.08a3.124 3.124 0 0 1-3.013 3.23h-.112"/><path fill="#fff" d="M408.084 211.995a3.125 3.125 0 0 1-3.12-3.01c-.013-.282-.97-20.284-15.7-32.805-10.15-8.627-24.514-11.858-42.683-9.603a3.122 3.122 0 0 1-3.48-2.716 3.124 3.124 0 0 1 2.72-3.48c20.02-2.48 36.02 1.25 47.56 11.09 16.854 14.37 17.81 36.37 17.844 37.3a3.126 3.126 0 0 1-3.02 3.23h-.11"/><path fill="#1d1e1f" d="M128.843 587.204s9.075-29.112 14.268-28.793c5.2.32 50.72 12.12 57.56 18.6 6.85 6.48-2.88 32.48-2.88 32.48l-10.19-3.29s5.78-19.915 2.98-23.534c-2.8-3.62-42.27-13.66-44.95-12.54-2.68 1.12-8.68 19.708-8.68 19.708l-8.094-2.616"/><path fill="#1d1e1f" d="M213.686 722.17a3.78 3.78 0 0 1-4.76 2.435L72.632 680.567a3.78 3.78 0 0 1-2.435-4.76l31.9-98.723a3.78 3.78 0 0 1 4.76-2.435l136.293 44.03a3.78 3.78 0 0 1 2.435 4.76l-31.9 98.72"/><path fill="#afb1b0" d="M235.155 617.207a3.157 3.157 0 0 1 2.032 3.973l-31.897 98.724a3.158 3.158 0 0 1-3.974 2.032.624.624 0 1 0-.383 1.19 4.408 4.408 0 0 0 5.546-2.84l31.89-98.72a4.403 4.403 0 0 0-2.84-5.546.625.625 0 1 0-.387 1.187"/><path fill="#141415" d="M195.5 716.294a3.778 3.778 0 0 1-4.76 2.435L54.447 674.69a3.78 3.78 0 0 1-2.434-4.76l31.898-98.72a3.78 3.78 0 0 1 4.76-2.436l136.3 44.036a3.78 3.78 0 0 1 2.44 4.76l-31.9 98.728"/><path fill="#fcd0a4" d="M185.162 556.01s9.483 7.478 9.917 11.26c.43 3.78-6.3 9.223-6.3 9.223s-6.32 17.492-11.02 15.643c-4.7-1.85-6.727-5.816-6.727-5.816s-5.517 6.826-8.62 5.16c-3.104-1.664-3.566-8.435-3.566-8.435s-5.35 3.237-9.16.683c-3.81-2.555 5.2-30.433 12.495-38.67 7.296-8.237 22.966 10.952 22.966 10.952"/><path fill="#394042" d="M252.92 358.487c-4.27-7.628-9.267-12.54-24.82 5.093-15.55 17.634-71.567 92.056-74.43 185.31 0 0 15.904 6.982 28.21 4.47 0 0 2.06-74.015 26.593-115.154 24.53-41.14 51.232-67.605 44.447-79.72"/><path fill="#909292" d="M362.32 300.946a4.124 4.124 0 1 1-7.27 3.898 4.124 4.124 0 0 1 7.27-3.898"/><path fill="#2c2117" d="M205.795 810.87s10.945 29.19 17.352 32.176c6.41 2.986 32.9 4.62 38.594 7.466 5.7 2.85 1.98 26.582 1.98 26.582s-58.51.03-72.39-14.007c0 0 .6-12.11-1.95-16.97 0 0-11.21 8.31-13.41 6.138-2.2-2.173-17.37-14.034-16.167-20.254 1.2-6.22 26.934-32.77 26.934-32.77s13 4.36 19.07 11.65"/><path fill="#394042" d="M266.8 538.32s-6.357 4.265-2.17 37.806c4.105 32.864-4.245 79.008-10.236 97.198-20.07 60.946-77.62 125.458-77.62 125.458s24.847 25.31 36.425 22.085c11.57-3.223 63.11-92.742 74-123.422 12.18-34.333 26.3-90.203 35.42-102.903 9.12-12.7 43.25-39.026 42.01-65.63-1.248-26.605-97.84 9.408-97.84 9.408"/><path fill="#2c2117" d="M479.355 817.142s9.33 6.522 16.614 3.715c7.28-2.806 35.09-28.103 38.75-31.438 3.66-3.34 15.28 17.65 16.01 21 .73 3.35-39 41.53-47.09 40.67l-14.67-3.59s.41 7.42-7.837 9.86c-8.24 2.44-18.293 8.64-23.45 5.14-5.156-3.51-7.08-37.44-7.08-37.44l28.74-7.93"/><path fill="#394042" d="M356.294 527.358s55.724 83.607 82.914 134.912c27.19 51.304 45.925 155.333 45.925 155.333s-23.493 12.002-39.155 7.23c0 0-16.902-109.197-36.783-144.35-19.88-35.155-60.952-94.41-77.396-108.39-16.45-13.98-2.06-49.03 24.49-44.735"/><path fill="#394042" d="M245.787 351.78s59-10.887 74.235-7.014c0 0 46.174 143.718 50.227 201.12 0 .002-27.36 8.707-34.16 10.044l-7-18.86-8.53 18.07s-29.41 8.603-69.786-.176c0 0 2.935-75.457-2.827-114.913-5.764-39.45-8.38-82.27-2.176-88.27"/><path fill="#fcd0a4" d="M300.7 319.03s-4.662 35.933-2.406 47.404c2.257 11.47-14.833 4.294-20.135-1.023-5.31-5.31-1.98-45.94-3.91-49.4-1.93-3.46 22.95-1.27 26.45 3.03"/><path fill="#dfdfdd" d="M289.142 347.878l7.94 17.652-.388-17.27 14.79 6.856s4.417 12.632 5.65 28.677c1.228 16.043-3.56 70.055-3.56 70.055s-37.345-76.115-49.04-94.905c0 0 12.577-14.798 24.61-11.065"/><path fill="#111" d="M289.586 370.196s11.014-1.544 13.09-1.017c0 0 2.283 14.79 2 16.03-.28 1.25-5.554.6-9.785-.45l-5.3-14.57"/><path fill="#111" d="M295.964 418.446l.14-33.664 8.572.435s10.51 37.605 11.233 40.57l-2.34 28.06-17.61-35.4"/><path fill="#585f61" d="M262.19 346.51s-8.902 28.994-11.073 33.09c-2.17 4.095 29.896 14.975 29.896 14.975s-15.334 24.036-16.805 28.167c0 0 46.326 36.84 49.784 40.8l-.417-9.694s-45.412-93.82-48.822-99.212c-3.41-5.39-2.563-8.127-2.563-8.127"/><path fill="#585f61" d="M310.166 350.212s8.018 47.123 2.43 122.948c0 0 21.823-58.21 22.746-59.844.925-1.636-10.993-23.69-14.516-24.71 0 0 7.373-16.822 9.126-18.23l-19.786-20.163"/><path fill="#fff" d="M265.218 336.575s23.883 10.04 23.925 11.303c.04 1.263-8.337 21.873-8.337 21.873s-17.067-11.38-19.942-13.21c0 0 1.73-17.99 4.354-19.96m33.247 1.69l-1.77 10s11.457 12.788 12.896 13.28l3.3-11.19-14.42-12.083"/><path fill="#1c1f21" d="M316.313 473.35s10.458 42.536 10.896 58.77c0 0 3.9-38.24-10.9-58.77m-3.52 12.955c.32 2.647-.74 4.96-2.39 5.16-1.65.204-3.25-1.778-3.57-4.425-.33-2.648.74-4.96 2.39-5.163 1.64-.202 3.24 1.78 3.57 4.428m6.39 24.508c.32 2.647-.75 4.958-2.39 5.16-1.65.205-3.25-1.778-3.57-4.425-.33-2.648.74-4.96 2.39-5.162 1.64-.204 3.24 1.78 3.57 4.426m-54.6 46.568c2.96-1.566 38.98-2.626 55.24-2.04l9.083-14.676 6.05 12.226s23.58-1.14 30.77-5.58c0 0-15.537 8.285-32.236 9.96 0 0-3.8-7.974-4.344-9.684 0 0-5.073 10.658-7.306 11.405-2.234.75-57.263-1.61-57.263-1.61"/><path fill="#fcd0a4" d="M307.774 165.71s52.205 139.82 46.35 147.19c-5.853 7.373-68.16 24.41-80.928 15.21-12.77-9.2-50.374-96.056-54.455-110.615-4.08-14.56 21.26-64.47 89.04-51.786"/><path fill="#614f26" d="M244.363 290.464s17.078-40.223-12.53-66.455c0 0 33.927 3.41 36.52-3.63 2.594-7.04-9.174-12.81-9.174-12.81s27.28 9.45 36.52-3.63c9.23-13.088-7.02-10.97-7.02-10.97s36.79-.845 35.36-8.617c-1.437-7.77-6.65-7.25-6.65-7.25s22.25-14.66 11.043-34.654-45.61-29.748-51.118 1.752c0 0-14.06-16.848-28.614-16.958-17.187-.13-40.182 20.766-3.034 30.637 0 0-47.87 8.73-52.063 39.43 0 0-4.617-19.944-17.24-14.42-12.624 5.523 4.8 21.8 4.8 21.8s-15.46 3.455-9.315 12.31c6.15 8.854 14.61 7.83 14.61 7.83s3.52 48.695 57.883 65.623"/><path fill="#fcd0a4" d="M252.473 278.605s-12.273-10.845-25.394-3.708c-13.13 7.14 4.46 44.907 23.44 37.094 18.98-7.81 1.95-33.38 1.95-33.38"/><path fill="#c38052" d="M296.706 236.606s4 13.76 8.893 13.276c4.89-.486 4.98-9.516 11.99-5.208 7.01 4.307.91 12.487-6.72 15.22 0 0 18.21-5.56 11.28-15.674-6.937-10.113-13.32.31-16.96 1.685-3.64 1.375-8.498-9.3-8.498-9.3"/><path fill="#ed8f8f" d="M276.493 299.234c9.178 12.965 23.01 22.235 34.962 19.546 1.686-.38 3.216-1.104 4.61-2.098-10.06-22.805-28.614-21.003-39.573-17.448"/><path fill="#692926" d="M330.006 270.18c-7.925 3.09-63.257 6.283-63.257 6.283 1.23 7.807 4.82 15.818 9.74 22.77 10.96-3.554 29.51-5.355 39.57 17.45 13.78-9.83 13.94-46.504 13.94-46.504"/><path fill="#140e0c" d="M285.826 244.995c1.398 3.34.77 6.78-1.4 7.69-2.17.907-5.062-1.064-6.458-4.402-1.398-3.34-.77-6.783 1.4-7.69 2.17-.908 5.062 1.063 6.458 4.402m35.704-14.415c1.396 3.34.77 6.784-1.402 7.69-2.17.91-5.062-1.062-6.46-4.4-1.396-3.34-.768-6.782 1.402-7.69 2.17-.91 5.063 1.063 6.46 4.4"/><path fill="#392d17" d="M274.402 216.76s-11.206 7.37-11.93 16.66c0 0-5.756-16.55 11.93-16.66m24.8-8.063s12.102-.832 18.617 1.773c0 0-9.91-13.505-18.62-1.772"/></svg>