<?xml version="1.0" encoding="UTF-8" standalone="no"?><svg xmlns="http://www.w3.org/2000/svg" viewBox="0 0 1000 1000"><path d="M671.963 872.932s-23.615-39.437 5.467-56.51c29.08-17.07 57.696 1.27 57.696 1.27s-28.21-63.167 38.715-96.264c66.93-33.096 106.03 20.334 106.03 20.334s-6.59-21.806 19.11-32.864c25.7-11.057 45.57 19.708 45.57 19.708S974.3 694.6 988.63 717.55c14.334 22.95-78.023 63.13-78.023 63.13s-62.77 69.858-146.46 65.4c0 0-94.76 80.55-116.26 64.42s24.08-37.562 24.08-37.562M245.89 967.16s-9.868-16.48 2.282-23.613c12.15-7.132 24.106.532 24.106.532s-11.786-26.4 16.176-40.22c27.963-13.83 44.3 8.49 44.3 8.49s-2.755-9.11 7.983-13.73c10.74-4.62 19.04 8.233 19.04 8.233s12.43-14.208 18.42-4.62c5.988 9.59-32.6 26.375-32.6 26.375s-26.23 29.19-61.197 27.33c0 0-39.593 33.65-48.576 26.914-8.983-6.74 10.06-15.695 10.06-15.695M53.226 272.417s-26.998-58.03 15.74-77.464c42.74-19.435 79.717 10.102 79.717 10.102S118.755 113.5 216.217 77.348c97.463-36.16 143.88 43.49 143.88 43.49s-5.977-31.15 31.213-42.75c37.19-11.6 60.25 33.88 60.25 33.88s46.12-42.79 62.65-8.94-117.178 76.133-117.178 76.133-97.02 87.658-212.27 69.39c0 0-142.87 97.833-170.31 72.39-27.442-25.442 38.774-48.535 38.774-48.535" fill="#b5e6ea"/><path d="M734.075 168.023c-81.004 21.938-147.86 137.74-147.86 137.74 11.727 9.635 65.228 56.732 65.228 56.732C751.73 311.01 785.79 261.708 795.18 225.89c-53.585-2.955-60.385-43.524-61.105-57.867" fill="#f1f1ef"/><path d="M795.18 225.89c8.92-34.014-4.415-55.866-4.415-55.866-19.215-7.13-38.315-6.978-56.69-2.002.72 14.344 7.52 54.913 61.105 57.87" fill="#de521e"/><path d="M524.034 376.862s-11.27-6.223-18.058 6.133c0 0-14.622-10.86-28.35 2.022 0 0-13.72-11.792-23.505-1.18 0 0-6.27-12.036-17.11-16.28-10.84-4.246-27.093 4.19-27.093 4.19s-4.496-25.516-25.96-27.827c-21.46-2.31-22.873 14.89-22.873 14.89s-7.394-13.81-24.343-7.942c-16.95 5.867-12.43 26.448-12.43 26.448s-11.84-9.915-11.643 4.624c0 0-28.465 2.993-25.983 23.59 0 0-17.475-11.86-27.724 7.98-10.247 19.84 8.58 25.72 8.58 25.72s-15.89 21.575-1.028 32.724c14.86 11.147 39.986 2.07 42.3-13.306 0 0 6.94 21.523 36.118 1.813 0 0 12.396 14.74 24.41-.38 0 0 14.38 19.68 35.964 3.42 0 0 35.97 16.54 44.5-18.19 0 0 11.256 21.54 34.3 4.81 0 0 3.498 11.44 20.47 4.112 0 0-2.2 19.628 14.907 13.393 0 0-13.973 14.923 6.44 17.85 20.41 2.928 28.63-9.286 28.63-9.286s28.91 6.675 22.38-21.41c0 0 12.79 4.76 10.02-13.684 0 0 24.64 9.51 17.008-26.79-7.63-36.3-79.916-37.43-79.916-37.43" fill="#e5e6e3"/><path d="M517.952 496.49s-4.46-17.325-17.308-11.51c-12.85 5.815-4.97 13.01-4.97 13.01s-24.365 18.41 4.214 26.606c0 0 8.643 12.104 19.303 8.643 10.66-3.47 7.09-18.19 7.09-18.19s9.37 1.85 7.21-8.52c-3.13-15.03-15.527-10.05-15.527-10.05M200.648 383.2c-19.135 1.73-18.29 18.504-15.12 23.875 0 0-14.19.363-14.19 14.173 0 16.994 17.533 12.18 20.92 6.18 0 0 3.41 14.825 24.62 6.943 16.1-5.98 8.074-19.32 8.074-19.32s17.51-.35 10.677-15.06c-6.84-14.712-15.84-4.99-15.84-4.99s-4.276-13.14-19.147-11.797m-21.06 130.488s-20.834-14.972-15.946 8.793c0 0-16.357-.464-14.6 13.016 1.756 13.48 12.832 5.752 12.832 5.752s6.302 17.86 17.01 13.46c10.705-4.392 6.385-17.39 6.385-17.39s14.917-1.482 10.73-16.39c-4.186-14.91-16.41-7.23-16.41-7.23m-141.97 63.1s-1.73-6.866-6.237-2.576c0 0-4.39-5.99-8.74-1.606s1.51 6.203 1.51 6.203-4.642 7.23-.083 9.847c4.56 2.614 8.01-2.554 8.01-2.554s4.69 4.93 8.867-.72c4.177-5.655-3.337-8.59-3.337-8.59m219.2-113.99c-10.77-.195-16.33 8.09-11.73 17.24 0 0-27.59 5.744-23.31 19.71 4.28 13.967 15.88 8.155 15.88 8.155s.935 20.51 15.97 18.378c15.04-2.13 13.096-13.01 13.096-13.01s22.26 2.71 23.647-8.38c1.39-11.092-10.14-12.703-10.14-12.703s8.91-28.795-23.407-29.38" fill="#e5e6e3"/><path d="M605.624 396.655s-1.55 25.88-5.593 37.234l-13.13-15.47s-23.3 36.77-33.93 44.01l3.66-25.96s-82.67 6.95-110.57-2.47c0 0 63.87-26.176 68.61-30.48 0 0-24.853-5.635-34.344-13.17 0 0 42.075-15.43 47.78-18.23 0 0-22.312-14.28-23.3-17 0 0 33.415-4.696 45.44-8.41 12.028-3.714 53.113 29.74 55.388 49.934" fill="#f8e73b"/><path d="M569.005 363.467s-23.445 3.99-26.494 3.838l12.75 8.04s-18.91 16.014-21.64 21.736c0 0 25.15-4.9 31.35-7.67 0 0 7.23 15.44 4.78 20.42 0 0 14-21.36 10.35-36.33-3.65-14.976-11.09-10.023-11.09-10.023" fill="#fbf49e"/><path d="M716.87 323.225s10.762 29.94 2.425 48.574c-8.338 18.63-72.293 41.38-72.293 41.38s20.674-41.59 13.54-54.9c0 0 47.99-35.457 56.327-35.066" fill="#de521e"/><path d="M711.16 325.9s8.803 24.483 1.985 39.723c-6.82 15.238-56.906 36.876-56.906 36.876s14.69-37.05 8.86-47.93c0 0 39.24-29 46.06-28.68" fill="#f2592e"/><path d="M633.74 245.885s-28.876-13.35-48.17-6.68c-19.298 6.67-47.575 68.38-47.575 68.38s43.244-16.943 55.873-8.67c0 0 39.532-44.69 39.873-53.03" fill="#de521e"/><path d="M734.075 168.023c-81.004 21.938-147.86 137.74-147.86 137.74 11.727 9.635 65.228 56.732 65.228 56.732C751.73 311.01 785.79 261.708 795.18 225.89c-53.585-2.955-60.385-43.524-61.105-57.867" fill="#c7c8c6"/><path d="M730.625 173.124c-67.73 18.343-138.423 129.863-138.423 129.863 9.807 8.058 44.522 36.387 44.522 36.387 83.855-43.05 117.83-87.9 125.68-117.848-25.53-13.022-31.177-36.41-31.78-48.402" fill="#f1f1ef"/><path d="M782.22 211.76c6.09-23.23-3.015-38.154-3.015-38.154-13.123-4.868-26.166-4.763-38.714-1.366.5 9.795 5.14 37.5 41.73 39.52" fill="#f2592e"/><path d="M784.957 170.58s33.757-33.493 38.222-36.436l4.15 3.208-37.01 41.32-5.372-8.093M550.23 346.72l34.313-43.74s59.1 50.51 70.4 60.945c0 0-45.936 30.7-49.327 32.725 0 0-48.168-43.814-55.388-49.933" fill="#de521e"/><path d="M554.523 346.436l31.346-35.812s24.17 22.646 35.47 33.082c0 0-30.88 31.145-34.27 33.168 0 0-25.33-24.32-32.55-30.438" fill="#f2592e"/><path d="M231.817 569.967s3.845 7.894 13.142.438c0 0 10.78-3.405 12.18-9.08 1.4-5.678 4.53-11.093 4.53-11.093s-4.29-5.4-8.3.56c-4.01 5.958-3.55 7.81-3.55 7.81s-9.984-15.646-14.91-18.12c-4.92-2.474-6.766 2.602.556 10.35 4.2 4.442 2.894 5.376 2.894 5.376s-11.93-10.927-14.892-7.69c-2.96 3.236 9.876 14.585 9.876 14.585s-13.67-4.578-16.06-.23c-2.39 4.35 11.31 4.022 14.523 7.095" fill="#f1bd81"/><path d="M376.57 547.54s-31.175-17.63-67.357-10.774c-36.182 6.858-56.365 40.947-56.365 40.947s-19.972-2.974-14.212-16.812c0 0 58.744-65.17 142.19-19.96 0 0 4.113 5.95-4.257 6.61" fill="#1d2124"/><path d="M421.976 541.497s-27.583 65.627-18.436 112.435c0 0-34.115-1.063-50.567-8.825l-2.745-5.2-6.732 4.883s-21.827-8.3-26.496-18.743c0 0 33.918-58.615 63.496-86.07 1.793-.892 21.497-12.222 41.48 1.52" fill="#1d2124"/><path d="M412.97 535.98s-7.168-3.287-18.213-2.185c-11.046 1.1-20.748 4.258-20.748 4.258s13.12 7.922 23.35 6.423c10.22-1.498 15.6-8.496 15.6-8.496" fill="#63bbb0"/><path d="M394.75 650.7s30.206 58.85 10.055 98.99c-20.726 41.29-50.355 62.315-50.355 62.315s-13.43-5.044-11.47-14.606c0 0 44.182-30.33 49.02-55.67 5.787-30.33 5.834-55.56-12.85-68.41-16.65-11.45-32.846-12.75-49.85-17.09 0 0-63.488 66.71-141.353 17.8 0 0 5.043-13.43 7.22-18.89 0 0 66.338 48.7 118.735-10.02 0 0-.222-11.915 10.458-19.886 10.68-7.97 70.39 25.455 70.39 25.455" fill="#1d2124"/><path d="M351.66 805.984s7.39 12.767 14.45 15.27c7.06 2.505 25.657-9.59 29.73-7.34 4.07 2.252 7.64 15.223 6.584 18.57-1.055 3.346-36.3 13.446-54.654.85l-2.98-9.64s-5.57 3.516-7.665 2.805c-2.094-.72-9.848-7.29-10.153-13.04-.306-5.745 15.855-15 15.855-15s6.75 4.248 8.834 7.514M188.67 672.13s-11.29 11.93-15.3 21.6c-4.008 9.675-2.703 26.467-2.703 26.467s-18.062 8.363-23.376 1.243c-5.31-7.12 6.24-45.16 13.29-51.705 0 0 9.93 1.115 11.076-.59 1.143-1.707-3.242-6.82-3.242-6.82s14.843-14.77 18.146-14.537c3.304.236 10.172 8.426 10.172 8.426s.733 11.106-8.057 15.912" fill="#211811"/><path d="M384.957 466.013s-3.672-14.444-9.328-17.598c-5.66-3.154-19.22-3.126-23.5-1.56-4.29 1.57-23.26 12.968-29.75 22.415 0 0 8.05-.392 9.63-.905 0 0-16.57 17.114-17.72 25.064l8.214-2.85s-7.51 34.07 1.14 43.29c1.58-.51 7.48-5.68 7.48-5.68s4.855 5.88 7.273 6.65c2.42.776 3.892-2.83 3.892-2.83s13.52 6.553 23.015 2.503c9.5-4.05 13.022-1.346 18.14-13.355 5.118-12.01 1.498-55.157 1.498-55.157" fill="#191510"/><path d="M373.686 459.09s61.597 20.756 67.418 26.08c5.82 5.326 7.904 20.804 1.97 33.27-5.93 12.464-27.217 21.547-52.83 16.76 0 0-3.212 11.21-16.08 9.74-12.866-1.47-11.766-18.07 2.657-21.434 0 0-19.03-1.57-23.17-4.315-4.14-2.74-8.69-22.49-.42-35.52 0 0 1.01 8.09 5.11 11.45 0 0 8.187-30.32 15.357-36.02" fill="#f1bd81"/><path d="M385.395 489.656s5.686 2.693 6.824 1.84c1.13-.848.2-7.702 4.71-8.175 4.5-.47 10.64 2.38 7.41 9.2 0 0-.83-6.13-3.6-6.32-2.767-.18-5.61-.52-5.5 4.27.114 4.79-6.76 3.72-9.856-.81" fill="#c38052"/><path d="M380.464 499.04c2.06 1.017 3.162 2.986 2.465 4.396-.7 1.41-2.94 1.73-5 .71-2.06-1.017-3.16-2.986-2.466-4.396.697-1.41 2.932-1.73 4.99-.71m13.402-23.74c1.943.96 2.985 2.82 2.327 4.15-.66 1.334-2.77 1.634-4.712.672-1.946-.96-2.99-2.82-2.33-4.153.66-1.34 2.77-1.64 4.715-.67" fill="#140e0c"/><path d="M364.757 491.304s-2.613 9.157-.88 13.286c0 0-6.295-7.504.88-13.286M376.18 475s2.755-4.294 7.518-6.294c0 0-8.524-1.8-7.518 6.293" fill="#0d0c0b"/><path d="M435.425 517.54c8.112-22.563-19.005-35.652-19.005-35.652-2.06 3.156-28.794 43.158-28.794 43.158s5.508 1.5 12.773 2.588c3.89-6.082 15.47-20.048 35.02-10.094" fill="#692926"/><path d="M400.4 527.634c12.074 1.81 29.005 2.488 33.6-6.714a30.73 30.73 0 0 0 1.425-3.38c-19.55-9.954-31.135 4.013-35.026 10.094" fill="#d67a7e"/><path d="M513.405 417.86s-42.693 82.59-101.76 120.28c0 0-9.418 8.52-4.234 13.18 5.19 4.66 98.4-57.81 128.76-127.833 0 0-10.07-14.44-22.76-5.626" fill="#1d2124"/><path d="M578.76 53.32s-28.15-6.35-36.314-5.527c0 0-24.596 13.173-31.6 23.505 0 0 51.143-9.365 58.054-7.784l9.86-10.193m-86.19 15.51s-27.72 27.7-54.544 21.42c0 0-9.81 31.58-18.28 36.5 0 0 49.982-12.7 55.868-15.28 0 0 13.25-25.86 16.957-42.632m-95.48 67s-7.02 17.005-9.52 17.69c-2.503.685-25.084 8.186-25.084 8.186s3.61-6.375 6.215-9.134c2.608-2.76 28.395-16.74 28.395-16.74" fill="#fff"/><path d="M564.308 66.576s5.518-21.52 6.626-23.11c0 0 84.074 32.185 92.976 35.51 0 0-6.256 18.603-7.67 22.23 0 0-85.88-31.036-91.932-34.63" fill="#1f2021"/><path d="M625.06 34.26s-52.52 5.85-54.126 9.206c-1.604 3.358 88.87 34.894 92.976 35.51 4.105.618 34.83-13.465 38.625-15.33 0 0-73.887-27.15-77.476-29.386" fill="#515455"/><path d="M702.535 63.646s-7.92 18.518-9.285 21.123c0 0-34.466 17.25-37.01 16.43l7.67-22.23 38.625-15.33" fill="#1f2021"/><path d="M566.284 59.04s89.12 35.177 92.388 35.115l38.297-17.63 1.23-2.843S665.16 89.45 659.7 91.17l-92.79-35.593-.63 3.463" fill="#c2c3c1"/><path d="M590.275 61.298s9.02 2.92 9.778 4.192c0 0-4.488 5.12-5.332 6.723-.84 1.602 29.07 9.902 33.95 10.97l6.09-4.437s8.51 2.484 10.09 3.797l-5.63 5.65-1.746 10.225s-54.915-17.36-60.223-19.476c0 0 1.69-10.454 2.96-11.187 1.27-.73 10.076-6.458 10.076-6.458" fill="#515455"/><path d="M642.94 94.767l-5.478 3.65 1.748-10.225 5.63-5.65-1.9 12.225" fill="#1f2021"/><path d="M592.52 91.158s4.958-13.817 7.283-16.002c2.326-2.183 2.525.64 5.313.268 2.79-.37 6.54-3.763 9.308-2.856 2.767.905 2.295 5.228 3.812 5.56 1.518.332 6.61.077 7.954 1.678 1.343 1.603-1.796 8.094-3.99 11.052-2.195 2.958 3.13 6.038 3.13 6.038s-2.06 3.222-4.65 3.86c-2.59.635-15.395 1.015-18.62-.937-3.227-1.96-11.585-5.44-9.54-8.67" fill="#fcd0a4"/><path d="M591.52 88.19s-47.636 21.047-52.294 51.346c-4.657 30.298 18.797 76.738 24.954 87.398 6.158 10.66 12.834-1.792 11.853-4.548-.983-2.756-31.693-52.677-23.298-80.63 8.396-27.95 45.22-36.587 48.375-37.97 3.154-1.385 3.615-18.324-9.59-15.595m-25.25 171.07s1.06 3.54-4.62 14.19-43.26 89.57-41.53 122.65c0 0 15.335 7.87 24.61 1.24 0 0-2.273-37.12 8.074-69.91 10.347-32.786 20.046-56.36 21.098-62.643 1.054-6.284-5.12-10.39-7.632-5.517" fill="#394042"/><path d="M541.94 395.484s8.692 9.184 9.716 11.517c1.024 2.34-8.327 7.95-8.327 7.95s.72 9.55-.59 11.76c-1.32 2.22-7.65-.38-7.65-.38s-5.25 5.44-8.02 4.16c-2.78-1.28-4.54-4.03-4.54-4.03s-6.186 1.97-8.35-.42c-2.16-2.39 3.03-27.23 8.31-31.53 5.28-4.29 19.44.98 19.44.98" fill="#fcd0a4"/><path d="M514.66 403.53s15.042-1.71 16.227-.726c1.184.985 1.26 5.615-.34 6.77-1.6 1.15-13.752 3.625-16.32 2.57-2.57-1.054.432-8.613.432-8.613m39.65 6.74s-9.828-3.96-13.065-4.11c-3.238-.14-4.268 3.43-3.085 5.13 1.18 1.695 11.4 5.55 13.55 5.358 2.154-.197 5.61-5.21 2.597-6.372m-8.966 14.94s-8.862-5.804-12.01-6.58c-3.146-.775-4.854 2.533-4.024 4.424.83 1.893 10.1 7.67 12.247 7.9 2.15.226 6.516-4.015 3.79-5.74" fill="#f1bd81"/><path d="M532.154 414.83c-1.05-3.73 3.19-2.676 5.94-2.23 2.75.442 12.992 3.94 14.22 5.94 1.23 2-3.854 6.975-3.854 6.975s-15-6.034-16.306-10.684" fill="#f1bd81"/><path d="M468.46 237.515s12.034 24.284 32.118 20.564l-28.59-25.29-3.527 4.72" fill="#614f26"/><path d="M465.886 231.46s45.008 45.435 65.72 50.587c20.713 5.153 36.165-32.313 34.217-34.467-1.948-2.154-34.16-40.37-42.012-47.754-7.85-7.385-35.09-5.463-47.62 6.655-12.53 12.12-12.23 23.06-10.3 24.98" fill="#fcd0a4"/><path d="M512.634 201.32s-6.485 14.48-10.935 13.02c-4.45-1.456-5.82-7.04-5.82-7.04s-5.33 24.164-11.5 24.265c-6.17.1-6.23-6.893-6.23-6.893s-3.1 12.592-9.56 18.435c-6.46 5.844-18.44 6.888-8.28-7.2 0 0-22.35 19.233-32.313 4.752-9.964-14.49 17.54-13.52 20.513-15.42 0 0-11.874-1.01-14.764-8.97-2.89-7.96 30.644-20.67 34.745-20.46 0 0 16.965-18.48 29.517-22.78 0 0-9.105 1.19-10.13-2.98-1.024-4.165 13.333-3.443 17.373-2.007 0 0-4.717-4.35-2.89-7.96 1.826-3.608 12.406 6.792 11.73 12.105 0 0 17.41 5.396 26.35 15.714 8.94 10.32 6.88 18.646 6.88 18.646l-.298 8s-19.78 15.047-34.397-13.24" fill="#614f26"/><path d="M538.82 220.317s-5.784-7.686-1.75-14.27c4.03-6.586 15.657-.657 19.43 6.112 3.77 6.76 1.44 16.02-7.098 16.25-8.535.23-10.583-8.1-10.583-8.1" fill="#fcd0a4"/><path d="M504.34 239.557s8.6 4.75 8.858 7.847c.255 3.097-8.278 5.136-7.807 8.038.48 2.902 6.63 7.323 11.28.567 0 0-4.36 9.03-10.72 4.8-6.363-4.23-1.38-9.34 2-11.22 3.39-1.88 3.87-3.294-3.602-10.043" fill="#c38052"/><path d="M515.445 231.414c1.524 1.36 2.104 3.196 1.296 4.1-.8.905-2.69.535-4.22-.825-1.52-1.36-2.1-3.2-1.29-4.1.81-.91 2.7-.54 4.22.82m-15.27 16.09c1.528 1.36 2.11 3.19 1.3 4.1-.805.9-2.694.53-4.22-.83-1.522-1.36-2.103-3.196-1.295-4.1.803-.905 2.693-.535 4.22.825" fill="#140e0c"/><path d="M485.995 233.496s-2.845 6.298-1.578 9.72c0 0-5.497-6.786 1.578-9.72m10.77-9.122s6.605-6.454 11.21-3.96c0 0-10.21-5.86-11.21 3.96" fill="#392d17"/><path d="M543.056 233.804c-1.637 4.66-6.16 20.622 4.67 29.656 1.658-1.015 3.14-2.266 4.333-3.824 5.2-6.787-1.82-17.78-9.01-25.832" fill="#d67a7e"/><path d="M543.056 233.804c-4.975-5.573-10.034-9.74-11.19-10.134 0 0-9.832 36.103-12.633 42.748 0 0 17.94 3.503 28.495-2.958-10.83-9.034-6.31-24.995-4.672-29.656" fill="#692926"/><path d="M662.165 196.084s-9.65-143.585 72.84-60.934c0 0 1.68 9.986-4.454 17.49 0 0-28-40.06-41.89-25.542-24.33 25.433-8.74 65.167-7.57 77.03 1.24 12.566 7.75 50.32 20.46 67.473 12.71 17.16 47.86 54.29 79.66 59.58 0 0 2.56 14.53-1.03 20.51 0 0-84.86-32.31-102.87-90.44a708.475 708.475 0 0 1-4.21-14.07c-10.81-37.615-10.93-51.085-10.93-51.085" fill="#394042"/><path d="M780.707 331.183s-.855 36.313-3.9 39.546c-3.046 3.23-12.013 4.76-12.425 7.74-.412 2.97 9.497 13.23 15.67 12.52 6.175-.71 14.912-19.58 14.963-37.92l-4.583-6.42s7.43-2.17 7.593-4.26c.162-2.086-2.353-14.316-2.353-14.316s-11.263 2.076-14.965 3.1m-45.703-196.03s4.012-7.787 5.06-16.37c1.05-8.58-1.34-15.487-1.34-15.487s11.62-4.968 13.957-2.383c2.34 2.586-.54 36.984-10.3 46.36l.348 4.337s-3.4 6.615-5.954 8.338c-2.554 1.72-9.23-11.345-9.23-11.345l7.47-13.45" fill="#372914"/><path d="M565.644 256.824s1.615 5.827 2.148 10.228c.533 4.4 19.438-3.593 34.374-6.236 14.936-2.642 72.165-.28 74.673-1.08 0 0 8.13-30.594 1.69-49.732l-6.26-2.37 4.5-3.723s-5.305-9-13.734-13.12c0 0-71.168 16.98-97.316 34.07 0 0-4.572 4.236-3.093 12.49 1.48 8.26 3.01 19.48 3.01 19.48" fill="#394042"/><path d="M554.523 234.38s10.585 2.884 17.588 2.62c7.01-.266 5.7 1.313 6.38 4.02.69 2.708-1.43 8.125-4.36 9.02-2.92.895-14.7 2.148-14.7 2.148l-4.9-17.808" fill="#fcd0a4"/><path d="M572.837 242.998l5.507-2.695-6.684-2.504.304-6.05s33.05-7.15 51.593-12.04c0 0-30.332 23.52-46.587 32.85-16.255 9.32-4.133-9.57-4.133-9.57" fill="#dfdfdd"/><path d="M575.285 237.643s-.253 4.222.995 5.238l5.78 2.88s4.575-2.33 4.99-3.45c.41-1.125-4.035-8.03-5.273-9.04-1.237-1.01-6.492 4.383-6.492 4.383" fill="#111"/><path d="M571.964 231.75s6.408-13.353 8.12-18.61c0 0 13.596 8.18 16.61 10.284 0 0 11.36-14.348 12.722-16.892 0 0 31.53 2.673 36.41 3.74 0 0-19.72 8.835-25.76 10.344-6.04 1.508-48.102 11.133-48.102 11.133" fill="#585f61"/><path d="M574.556 252.947s44.055-28.89 49.013-33.442l22.25-9.232S621 246.008 616.37 252.16c0 0-14.63-7.502-16.67-7.81 0 0-6.28 15.433-7.028 17.124 0 0-14.056-6.345-18.12-8.523" fill="#585f61"/><path d="M648.33 209.575s14.345-3.185 21.676-1.79c0 0-15.858 1.605-21.677 1.79m21.41 2.905c.09.844-.838 1.638-2.07 1.77-1.24.135-2.31-.44-2.406-1.286-.09-.845.836-1.638 2.07-1.77 1.236-.136 2.312.44 2.403 1.285m-12.6.93c.09.84-.836 1.63-2.07 1.77-1.237.13-2.31-.44-2.405-1.29-.09-.85.84-1.64 2.072-1.778 1.234-.133 2.31.444 2.402 1.29" fill="#1b1e1f"/><path d="M560.22 256.756s11.766-13.184 12.618-13.76c0 0 6.645 2.803 7.932 5.06 0 0-9.802 11.708-11.535 13.47 0 0-7.445-3.25-9.014-4.77m.05-21.38c.7.824 11.39 2.423 11.39 2.423l7.66-9.28s-11.192-3.03-12.092-3.08l-6.952 9.93" fill="#fff"/><path d="M485.64 315.102s70.98-7.328 96.988-70.53l4.42-2.273s-7.333 64.37-88.593 101.82c0 0-19.775-1-27.374-3.23 0 0 10.64-21.368 14.56-25.798" fill="#111"/><path d="M663.048 190.783s10.935 5.466 14.256 13.8l-4.363 2.848 5.59 2.58s7.72 17.5-1.69 49.738c0 0 6.09-33.097.47-47.98l-7.3-3.972 4.58-4.526s-6.61-9.4-11.533-12.477" fill="#1b1e1f"/></svg>