<?xml version="1.0" encoding="UTF-8" standalone="no"?><svg xmlns="http://www.w3.org/2000/svg" xmlns:xlink="http://www.w3.org/1999/xlink" viewBox="0 0 1000 500" preserveAspectRatio="xMidYMid slice" id="svg2"><defs id="defs4"><clipPath id="z"><path d="M481.828 394.57h81.315v-46.23h-81.315v46.23z" id="path7"/></clipPath><clipPath id="a"><path d="M54.976 265.52h703.336v-97.867H54.976v97.868z" id="path10"/></clipPath></defs><g id="g3530" fill="#fff"><path id="path3528" d="M309.59 282.742h-65.06v-1.898h65.06z"/><path id="path3526" d="M305.975 295.395H244.53v-1.898h61.445z"/></g><path d="M1000 336.748H0V295.22h1000v41.528z" id="path12" fill="#97c151"/><use xlink:href="#ellipse16-7" id="use3593" transform="translate(-82.717 -416.96) scale(2.3618)" width="100%" height="100%"/><ellipse cx="683.954" cy="309.907" rx="84.094" ry="9.738" id="ellipse14" fill="#8aad4a"/><ellipse cx="330.923" cy="310.483" rx="52.926" ry="8.764" id="ellipse16" fill="#8aad4a"/><path d="M61.983 231.138c0 34.94 30.164 49.78 60.764 49.78 30.603 0 60.72-13.95 60.72-48.888 0-34.937-30.117-77.632-60.72-77.632-30.6 0-60.764 41.805-60.764 76.74" id="K" fill="#93c148" opacity=".9"/><path d="M1000 361.16H0v-24.412h1000v24.41z" fill="#be9c40" id="path20"/><path d="M1000 500H0V361.16h1000V500z" id="path22" fill="#b2ce5f"/><path d="M635.045 382.264c-8.116-8.24-16.7-9.988-26.475.394l2.213 1.94c9.645-8.895 13.92-7.768 22.475.01z" id="b" fill="#684c46"/><use xlink:href="#b" id="c" transform="translate(23.74)" width="100%" height="100%"/><use xlink:href="#c" id="d" transform="translate(23.74)" width="100%" height="100%"/><use xlink:href="#d" id="e" transform="translate(23.588)" width="100%" height="100%"/><use xlink:href="#e" id="f" transform="translate(24.106)" width="100%" height="100%"/><use xlink:href="#f" id="g" transform="translate(23.862)" width="100%" height="100%"/><use xlink:href="#g" id="h" transform="translate(24.35)" width="100%" height="100%"/><use xlink:href="#h" id="i" transform="translate(24.277)" width="100%" height="100%"/><use xlink:href="#b" id="j" transform="translate(0 13.15)" width="100%" height="100%"/><use xlink:href="#c" id="k" transform="translate(0 13.15)" width="100%" height="100%"/><use xlink:href="#d" id="l" transform="translate(0 13.15)" width="100%" height="100%"/><use xlink:href="#e" id="m" transform="translate(0 13.15)" width="100%" height="100%"/><use xlink:href="#f" id="n" transform="translate(0 13.15)" width="100%" height="100%"/><use xlink:href="#g" id="o" transform="translate(0 13.15)" width="100%" height="100%"/><use xlink:href="#h" id="p" transform="translate(0 13.15)" width="100%" height="100%"/><use xlink:href="#i" id="q" transform="translate(0 13.15)" width="100%" height="100%"/><use xlink:href="#j" id="r" transform="translate(0 15.097)" width="100%" height="100%"/><use xlink:href="#k" id="s" transform="translate(0 15.097)" width="100%" height="100%"/><use xlink:href="#l" id="t" transform="translate(0 15.097)" width="100%" height="100%"/><use xlink:href="#m" id="u" transform="translate(0 15.097)" width="100%" height="100%"/><use xlink:href="#n" id="v" transform="translate(0 15.097)" width="100%" height="100%"/><use xlink:href="#o" id="w" transform="translate(0 15.097)" width="100%" height="100%"/><use xlink:href="#p" id="x" transform="translate(0 15.097)" width="100%" height="100%"/><use xlink:href="#q" id="y" transform="translate(0 15.097)" width="100%" height="100%"/><use xlink:href="#r" id="B" transform="translate(0 14.61)" width="100%" height="100%"/><use xlink:href="#s" id="C" transform="translate(0 14.61)" width="100%" height="100%"/><use xlink:href="#t" id="D" transform="translate(0 14.61)" width="100%" height="100%"/><use xlink:href="#u" id="E" transform="translate(0 14.61)" width="100%" height="100%"/><use xlink:href="#v" id="F" transform="translate(0 14.61)" width="100%" height="100%"/><use xlink:href="#w" id="G" transform="translate(0 14.61)" width="100%" height="100%"/><use xlink:href="#x" id="H" transform="translate(0 14.61)" width="100%" height="100%"/><use xlink:href="#y" id="I" transform="translate(0 14.61)" width="100%" height="100%"/><path d="M166.216 182.364c10.434 14.696 17.25 33.052 17.25 49.666 0 34.937-30.116 48.888-60.72 48.888-20.287 0-40.375-6.53-51.617-21.117 46.34.28 94.41-31.66 95.08-77.43z" id="L" fill="#a9ca54" opacity=".9"/><ellipse cx="87.359" cy="309.485" rx="16.45" ry="2.724" id="ellipse16-7" fill="#8aad4a"/><path d="M127.903 313.16v-49.044l22.574-15.052 18.114 6.69v-1.672l-15.6-7.245 10.87-8.916 1.36-3.38-14.46 9.24.56-16.72h-1.15L148.25 246l-20.344 11.154-.73-39.02 14.945-13.373 22.57 3.62-.1-1.85-19.13-3.86 18.116-13.792v-1.57l-20.306 12.02-1.047-20.482h-.94l-.835 23.133-13.27 11.77-1.778-47.727-2.51-2.786 1.394 62.424-20.343-11.704-6.02-22.267-2.06-.86L99.765 212l-21.18-15.886v2.786l19.507 14.49-21.18 3.624v1.322l25.363-1.602 21.738 13.934-1.26 25.637-15.46-7.8.28-16.442-1.393-2.233-1.95 17.002-18.952-12.544h-2.79l19.23 13.932-22.298 9.755.582.934 25.06-7.9 17.69 10.31-3.206 51.83z" id="M" fill="#684c46" opacity=".9"/><path d="M76.905 218.34v-1.323l21.182-3.623L78.58 198.9v-2.786L99.76 212l-3.9-21.18 2.06.86 6.02 22.267 20.344 11.707-1.395-62.423.74.83c-.01.14-.02.28-.02.42.02 10.357.072 20.766.59 31.11.5 10.06.414 20.3 1.52 30.31.66 5.974-.197 87.267-.197 87.267h-5.987l3.203-51.832-17.69-10.31-25.058 7.9-.584-.933 22.296-9.755L82.48 234.3h2.784l18.95 12.542 1.95-17.003 1.393 2.23-.28 16.44 15.462 7.8 1.26-25.64-21.74-13.934z" id="P" fill="#442e2a" opacity=".9"/><path d="M223.395 254.712c0 26.13-22.564 37.234-45.452 37.234-22.89 0-45.42-10.437-45.42-36.57 0-26.133 22.53-58.067 45.42-58.067 22.888 0 45.452 31.26 45.452 57.4" id="Q" fill="#86b43a" opacity=".9"/><path d="M145.428 218.225c-7.804 10.994-12.904 24.726-12.904 37.154 0 26.13 22.53 36.57 45.42 36.57 15.177 0 30.2-4.89 38.61-15.8-35.536-1.2-69.955-32.32-71.126-57.93z" id="R" fill="#93c148" opacity=".9"/><use xlink:href="#use3593" id="use3595" transform="translate(69.813 43.05) scale(.87005)" width="100%" height="100%"/><path d="M174.083 316.06v-36.686L157.2 268.12l-13.55 5v-1.25l11.677-5.42-8.132-6.668-1.02-2.53 10.817 6.905-.42-12.504h.862l1.433 14.17 15.216 8.34.547-29.187-11.176-10.003-16.885 2.71.07-1.384 14.303-2.9-13.55-10.32v-1.175l15.187 8.99.785-15.32h.706l.625 17.303 9.93 8.805 1.33-35.69 1.877-2.09-1.043 46.69 15.215-8.754 4.51-16.658 1.54-.64-2.92 15.843 15.846-11.88v2.083l-14.59 10.84 15.84 2.71v.988l-18.97-1.2-16.26 10.42.94 19.178 11.565-5.83-.205-12.304 1.04-1.67 1.458 12.72 14.18-9.38h2.084l-14.383 10.42 16.676 7.3-.44.693-18.744-5.905-13.235 7.71 2.396 38.77h-6.26z" id="S" fill="#684c46"/><path d="M104.127 287.01c0-9.49-8.193-20.843-16.505-20.843-8.314 0-16.494 11.593-16.494 21.085 0 8.952 7.288 12.83 15.093 13.24v8.793h2.27l-.54-8.762c8.2-.108 16.18-4.147 16.18-13.51" id="T" fill="#64842c" opacity=".9"/><use xlink:href="#ellipse16-7" id="use3591" transform="translate(136.118 1.414)" width="100%" height="100%"/><path d="M239.28 281.784c0-9.136-7.89-20.068-15.89-20.068s-15.878 11.164-15.878 20.3c0 8.566 6.925 12.307 14.383 12.74l-.528 15.798 3.494.11-.99-15.872c7.84-.152 15.42-4.055 15.42-13.01" id="V" fill="#779d2c" opacity=".9"/><path d="M747.177 308.885v-66.067L683.8 186.55l-63.107 56.27v66.346l126.484-.28z" id="path67" fill="#f8f4c5"/><g clip-path="url(#z)" transform="matrix(1.41866 0 0 -1.41866 -51.5 746.312)" id="g69" opacity=".9"><path d="M563.143 348.34v6.57l-46.047 39.66-35.268-30.5c28.907 12.406 59.826-.764 81.315-15.73z" id="path71" fill="#ecedb1"/></g><path d="M668.763 291.936h-37.176V253.2h37.176v38.736z" id="path75" fill="#f5ee94"/><path d="M648.143 252.42s.366 6.845-3.655 13.345c-4.014 6.495-7.784 8.58-7.784 8.58s3.837 4.025 4.812 8.057c.973 4.03 2.145 10.312 2.145 10.312h-11.09l-.972-40.293h16.556z" id="path77" fill="#d2796e"/><path d="M641.903 261.216s-4.547 12.607-6.236 12.477c-1.692-.13 6.236-12.477 6.236-12.477" id="path79" fill="#bb645b"/><path d="M635.428 261.216s-.088 12.41-.934 12.477c-.844.067.935-12.477.935-12.477m.54 27.98s-2.76-13.115-1.26-13.893c1.5-.776 1.25 13.892 1.25 13.892" id="path81" fill="#bb645b"/><path d="M641.48 285.793s-6.454-10.607-5.766-11.105c.684-.5 5.766 11.105 5.766 11.105" id="path83" fill="#bb645b"/><path d="M652.353 252.42s-.365 6.845 3.656 13.345c4.01 6.495 7.78 8.58 7.78 8.58s-3.84 4.025-4.81 8.057c-.98 4.03-2.15 10.312-2.15 10.312h11.1l.97-40.293h-16.55z" id="path85" fill="#d2796e"/><path d="M658.593 261.216s4.548 12.607 6.238 12.477c1.69-.13-6.23-12.477-6.23-12.477" id="path87" fill="#bb645b"/><path d="M665.067 261.216s.09 12.41.934 12.477c.85.067-.93-12.477-.93-12.477m-.54 27.98s2.76-13.115 1.26-13.893c-1.51-.776-1.254 13.892-1.254 13.892" id="path89" fill="#bb645b"/><path d="M659.02 285.793s6.45-10.607 5.764-11.105c-.683-.5-5.762 11.105-5.762 11.105" id="path91" fill="#bb645b"/><path d="M667.203 290.376h-16.2v-17.808h-2.73v17.808h-15.126v-17.808h15.126v-2.733h-15.126V254.76h34.056v35.616zm-37.176 3.117h40.296v-41.85h-40.296v41.85z" id="path93" fill="#684c46"/><path d="M630.296 251.643c1.23.892 2.18 2.06 2.852 3.377v-.26h15.125v17.808h19.172l.062-2.74-16.504.007V254.76h16.2v35.616h-.772a9.116 9.116 0 0 1 3.55 3.117h.35v-41.85H630.3zm85.727 57.52h-32.09v-59.16h32.09v59.16z" id="path95" fill="#442e2a"/><path d="M713.693 309.164h-27.587V252.42h27.587v56.744z" id="path97" fill="#684c46"/><path d="M693.71 282.232h-5.124v-27.577h5.123v27.577zm5.76 0h-5.123v-27.577h5.123v27.577zm5.77 0h-5.122v-27.577h5.123v27.577zm5.763 0h-5.122v-27.577h5.13v27.577zm-17.294 24.184h-5.13v-20.623h5.12v20.623zm5.76 0h-5.13v-20.623h5.12v20.623zm5.77 0h-5.13v-20.623h5.12v20.623zm5.76 0h-5.12v-20.623H711v20.623z" id="path99" fill="#442e2a"/><path d="M743.853 280.273h-22.72v-1.23h22.72v1.23z" id="path103" fill="#442e2a"/><path d="M743.246 286.74H721.74v-6.932h21.506v6.933z" id="path105" fill="#442e2a"/><path d="M741.91 285.74h-18.83v-4.932h18.833v4.933z" id="path107" fill="#684c46"/><path d="M725.576 286.45h-.928v-6.642h.928v6.642zm1.86 0h-.93v-6.642h.93v6.642zm1.857 0h-.926v-6.642h.927v6.642zm1.863 0h-.93v-6.642h.93v6.642zm1.86 0h-.93v-6.642h.93v6.642zm1.862 0h-.933v-6.642h.933v6.642zm1.86 0h-.93v-6.642h.93v6.642zm1.86 0h-.93v-6.642h.93v6.642zm1.857 0h-.928v-6.642h.928v6.642z" id="path109" fill="#442e2a"/><g id="g3534" fill="#fff"><path id="path3524" d="M745.638 282.742h65.06v-1.898h-65.06v1.898z"/><path id="path129" d="M745.716 295.395H810.7v-1.898h-64.986v1.898z"/></g><path d="M359.072 309.804L343.99 205.428h-27.185l-14.023 103.426 56.29.95z" id="path113" fill="#f8f4c5"/><path d="M310.803 231.407l3.128-25.98 5.34-7.684 11.59-2.945v36.61h-20.05z" fill="#5b423f" id="path115"/><path d="M350.906 231.407l-3.126-25.98-5.336-7.684-11.588-2.945v36.61h20.05z" fill="#4f322f" id="path117"/><path d="M340.728 304.09v-28.72c0-5.45-4.42-9.868-9.873-9.868-5.453 0-9.872 4.42-9.872 9.87v28.72h19.745z" fill="#5b423f" id="path119"/><path d="M336.833 280.652c1.274 6.966 3.15 13.882 3.895 20.934V275.37c0-5.448-4.42-9.87-9.873-9.87-4.87 0-8.903 3.527-9.713 8.164 6.57-3.427 14.22-1.035 15.69 6.988" fill="#4f322f" id="path121"/><path d="M242.525 274.773l2.9-2.157 2.9 2.157v30.007h-5.8z" id="W" fill="#fdfae2"/><path d="M683.968 183.132l-74.125 59.688h11.52l62.605-49.738s48.62 38.163 62.6 49.735h11.52" id="path131" fill="#442e2a"/><use xlink:href="#b" transform="translate(-400.677)" width="100%" height="100%" id="use135"/><use xlink:href="#c" transform="translate(-400.677)" width="100%" height="100%" id="use137"/><use xlink:href="#d" transform="translate(-400.677)" width="100%" height="100%" id="use139"/><use xlink:href="#e" transform="translate(-400.677)" width="100%" height="100%" id="use141"/><use xlink:href="#f" transform="translate(-400.677)" width="100%" height="100%" id="use143"/><use xlink:href="#g" transform="translate(-400.677)" width="100%" height="100%" id="use145"/><use xlink:href="#h" transform="translate(-400.677)" width="100%" height="100%" id="use147"/><use xlink:href="#i" transform="translate(-400.677)" width="100%" height="100%" id="use149"/><use xlink:href="#j" transform="translate(-400.677)" width="100%" height="100%" id="use151"/><use xlink:href="#k" transform="translate(-400.677)" width="100%" height="100%" id="use153"/><use xlink:href="#l" transform="translate(-400.677)" width="100%" height="100%" id="use155"/><use xlink:href="#m" transform="translate(-400.677)" width="100%" height="100%" id="use157"/><use xlink:href="#n" transform="translate(-400.677)" width="100%" height="100%" id="use159"/><use xlink:href="#o" transform="translate(-400.677)" width="100%" height="100%" id="use161"/><use xlink:href="#p" transform="translate(-400.677)" width="100%" height="100%" id="use163"/><use xlink:href="#q" transform="translate(-400.677)" width="100%" height="100%" id="use165"/><use xlink:href="#r" transform="translate(-400.677)" width="100%" height="100%" id="use167"/><use xlink:href="#s" transform="translate(-400.677)" width="100%" height="100%" id="use169"/><use xlink:href="#t" transform="translate(-400.677)" width="100%" height="100%" id="use171"/><use xlink:href="#u" transform="translate(-400.677)" width="100%" height="100%" id="use173"/><use xlink:href="#v" transform="translate(-400.677)" width="100%" height="100%" id="use175"/><use xlink:href="#w" transform="translate(-400.677)" width="100%" height="100%" id="use177"/><use xlink:href="#x" transform="translate(-400.677)" width="100%" height="100%" id="use179"/><use xlink:href="#y" transform="translate(-400.677)" width="100%" height="100%" id="use181"/><use xlink:href="#B" transform="translate(-400.677)" width="100%" height="100%" id="use183"/><use xlink:href="#C" transform="translate(-400.677)" width="100%" height="100%" id="use185"/><use xlink:href="#D" transform="translate(-400.677)" width="100%" height="100%" id="use187"/><use xlink:href="#E" transform="translate(-400.677)" width="100%" height="100%" id="use189"/><use xlink:href="#F" transform="translate(-400.677)" width="100%" height="100%" id="use191"/><use xlink:href="#G" transform="translate(-400.677)" width="100%" height="100%" id="use193"/><use xlink:href="#H" transform="translate(-400.677)" width="100%" height="100%" id="use195"/><use xlink:href="#I" transform="translate(-400.677)" width="100%" height="100%" id="use197"/><path d="M1000 441.46c-79.302 47.987-943.788 44.243-1000 0V500h1000z" fill="#97c151" id="path199"/><g id="g3631"><path id="path123" fill="#695352" d="M320.74 214.704l-46.652-39.49 7.854-9.282 46.653 39.496-7.855 9.276z"/><path fill="#3a2120" id="A" d="M277.09 176.097l-1.14-.967 6.22-7.345 1.14.966-6.22 7.35zm1.918 1.623l-1.14-.967 6.22-7.344 1.142.96-6.222 7.35zm1.92 1.622l-1.143-.965 6.22-7.347 1.14.966-6.218 7.346zm1.913 1.623L281.7 180l6.224-7.346 1.14.967-6.222 7.35zm1.92 1.625l-1.14-.967 6.22-7.346 1.14.963-6.22 7.35zm1.92 1.62l-1.14-.963 6.22-7.346 1.14.97-6.22 7.35zm1.92 1.625l-1.14-.965 6.22-7.345 1.14.963-6.22 7.347zm1.92 1.625l-1.14-.97 6.22-7.345 1.14.966-6.22 7.35zm1.92 1.622l-1.14-.967 6.22-7.346 1.14.96-6.22 7.35zm1.917 1.62l-1.14-.963 6.22-7.35 1.14.96-6.22 7.342zm1.917 1.625l-1.14-.965 6.22-7.347 1.14.966-6.22 7.35zm1.918 1.623l-1.14-.967 6.22-7.344 1.14.96-6.22 7.35zm1.92 1.624l-1.14-.967 6.22-7.345 1.14.964-6.22 7.348zm1.92 1.62l-1.14-.96 6.215-7.35 1.144.966-6.22 7.345zm1.914 1.626l-1.14-.966 6.22-7.347 1.14.966-6.22 7.346zm1.92 1.623l-1.14-.965 6.22-7.347 1.14.97-6.22 7.35zm1.917 1.623l-1.14-.964 6.22-7.347 1.14.963-6.217 7.348zm1.917 1.62l-1.14-.963 6.22-7.345 1.14.964-6.22 7.345zm1.916 1.628l-1.14-.968 6.217-7.344 1.144.963-6.223 7.35zm1.916 1.624l-1.14-.968 6.22-7.344 1.14.963-6.22 7.34zm1.917 1.622l-1.14-.966 6.22-7.347 1.14.963-6.22 7.35zm1.92 1.622l-1.143-.967 6.224-7.345 1.14.964-6.22 7.348zm1.917 1.624l-1.14-.968 6.22-7.344 1.143.963-6.22 7.35z"/><path fill="#695352" id="path126" d="M329.42 225.862l-43.98 42.447-8.445-8.75 43.983-42.45 8.44 8.75zm12.758-9.188l46.653 39.493-7.85 9.28-46.65-39.496 7.857-9.27zm-8.678-11.158l43.98-42.445 8.442 8.75-43.983 42.45-8.44-8.75z"/><use id="use133" height="100%" width="100%" transform="rotate(95.51 330.79 215.846)" xlink:href="#A"/><use id="use227" height="100%" width="100%" transform="translate(60.387 50.89)" xlink:href="#A"/><use id="use229" height="100%" width="100%" transform="rotate(-84.366 330.947 214.494)" xlink:href="#A"/></g><use xlink:href="#W" id="X" transform="translate(13.085)" width="100%" height="100%"/><use xlink:href="#X" id="Y" transform="translate(13.602)" width="100%" height="100%"/><use xlink:href="#Y" id="Z" transform="translate(14.463)" width="100%" height="100%"/><use xlink:href="#Z" id="aa" transform="translate(13.602)" width="100%" height="100%"/><use xlink:href="#aa" id="ab" transform="translate(455.795)" width="100%" height="100%"/><use xlink:href="#ab" id="ac" transform="translate(13.88)" width="100%" height="100%"/><use xlink:href="#ac" id="ad" transform="translate(14.853)" width="100%" height="100%"/><use xlink:href="#ad" id="ae" transform="translate(12.905)" width="100%" height="100%"/><use xlink:href="#ae" id="af" transform="translate(13.636)" width="100%" height="100%"/><use xlink:href="#use3593" id="use3597" transform="translate(718.42)" width="100%" height="100%"/><use xlink:href="#J" id="use3599" transform="translate(718.42)" width="100%" height="100%"/><use xlink:href="#K" id="use3601" transform="translate(718.42)" width="100%" height="100%"/><use xlink:href="#L" id="use3603" transform="translate(718.42)" width="100%" height="100%"/><use xlink:href="#ellipse16-7" id="use3605" transform="translate(718.42)" width="100%" height="100%"/><use xlink:href="#M" id="use3607" transform="translate(718.42)" width="100%" height="100%"/><use xlink:href="#N" id="use3609" transform="translate(718.42)" width="100%" height="100%"/><use xlink:href="#O" id="use3611" transform="translate(718.42)" width="100%" height="100%"/><use xlink:href="#P" id="use3613" transform="translate(718.42)" width="100%" height="100%"/><use xlink:href="#Q" id="use3615" transform="translate(718.42)" width="100%" height="100%"/><use xlink:href="#R" id="use3617" transform="translate(718.42)" width="100%" height="100%"/><use xlink:href="#use3595" id="use3619" transform="translate(718.42)" width="100%" height="100%"/><use xlink:href="#S" id="use3621" transform="translate(718.42)" width="100%" height="100%"/><use xlink:href="#T" id="use3623" transform="translate(718.42)" width="100%" height="100%"/><use xlink:href="#U" id="use3625" transform="translate(718.42)" width="100%" height="100%"/><use xlink:href="#use3591" id="use3627" transform="translate(718.42)" width="100%" height="100%"/><use xlink:href="#V" id="use3629" transform="translate(718.42)" width="100%" height="100%"/></svg>