<?xml version="1.0" encoding="UTF-8" standalone="no"?><svg xmlns="http://www.w3.org/2000/svg" viewBox="0 0 3543.3071 1771.6535" preserveAspectRatio="xMidYMid slice"><path d="M317.694 1419.477s693.26-634.223 805.624-638.14c112.366-3.912 831.34 639.866 831.34 639.866z" fill="#cfcf83"/><path d="M778.707 1036.102c16.987 7.44 36.607-.64 52.104-8.103 34.75-16.71 75.58-35.31 112.04-11.63 9.11 5.92 19.43 18.98 30.41 21.01 19.2 3.55 39.49-9 56.43-16.15 37.696-15.91 70.93-11.747 100.264 17.21 11.236 11.08 24.6 25.06 42.247 20.28 14.386-3.89 25.48-13.55 37.21-22.306 27.143-20.246 58.17-28.666 90.42-14.284 15.837 7.07 29.133 18.895 45.068 25.626 21.317 9.005 29.288-5.22 42.9-18.35 12.79-12.34 28.4-24.36 46.334-27.73 6.82-1.28 13.684-2.036 20.567-2.584-137.03-113.735-279.1-219.578-331.37-217.757-56.473 1.97-213.924 125.68-356.577 248.26 3.866 2.46 7.843 4.69 11.97 6.5" fill="#dfde9f"/><path d="M1079.014 1476.756s919.227-838.87 1069.212-844.098c150.003-5.226 1104.29 847.017 1104.29 847.017z" fill="#d2b350"/><path d="M1847.21 949.968c68.004-14.543 76.6-41.882 138.745-5.333 55.18 46.09 88.348 32.182 124.65 4.82 59.224-31.514 77.11 42.813 124.057 26.37 34.097-6.667 35.964-43.88 76.532-55.11 55.686-20.364 117.98 37.364 157.463-19.6 11.232-17.163 19.467-36.106 26.286-55.533-149.783-118.976-289.108-214.932-346.717-212.924-66.214 2.305-236.424 129.993-405.9 271.91 23.05 46.58 50.258 58.51 104.885 45.4zm-111.325 43.76a8.297 8.297 0 0 1-8.3 8.297 8.297 8.297 0 0 1-8.303-8.298 8.3 8.3 0 0 1 8.304-8.3 8.3 8.3 0 0 1 8.3 8.3m47.048 35.466c0 11.208-9.09 20.303-20.303 20.303-11.21 0-20.3-9.095-20.3-20.303 0-11.217 9.09-20.303 20.31-20.303 11.214 0 20.305 9.086 20.305 20.303m41.508-8.55c0 6.494-5.265 11.76-11.76 11.76-6.494 0-11.76-5.266-11.76-11.76s5.266-11.756 11.76-11.756c6.495 0 11.76 5.26 11.76 11.755m254.604 8.996c0 4.97-4.033 8.996-8.996 8.996a8.993 8.993 0 0 1-8.994-8.996c0-4.96 4.024-8.995 8.994-8.995 4.96 0 8.994 4.034 8.994 8.995m350.068-37.286c0 3.813-3.1 6.918-6.922 6.918a6.926 6.926 0 0 1-6.92-6.92 6.92 6.92 0 0 1 6.92-6.922 6.92 6.92 0 0 1 6.924 6.922m53.957 3.455c0 5.73-4.64 10.38-10.38 10.38-5.725 0-10.37-4.65-10.37-10.38 0-5.738 4.645-10.38 10.37-10.38 5.74 0 10.38 4.644 10.38 10.382" fill="#e5c56e"/><path d="M911.218 1055.726c0 3.437-2.79 6.23-6.23 6.23a6.228 6.228 0 0 1-6.223-6.23 6.228 6.228 0 0 1 6.222-6.23 6.232 6.232 0 0 1 6.23 6.23m47.042 17.108c0 7.25-5.89 13.137-13.15 13.137-7.26 0-13.146-5.88-13.146-13.13 0-7.26 5.882-13.14 13.144-13.14 7.255 0 13.14 5.885 13.14 13.144m33.21 3.15" fill="#dfde9f"/></svg>