<?xml version="1.0" encoding="UTF-8" standalone="no"?><svg xmlns="http://www.w3.org/2000/svg" viewBox="0 0 1000 1000"><defs><clipPath id="a"><path d="M4790.11 4609.87s155.41 48.55 273.28 83.7c24.66 7.36 47.93 13.31 67.28 19.74 90.8 30.15 142.24-40.09 145.79-80.88 4.35-49.98-4.57-116.05-118.47-154.58-113.89-38.54-393.11-141.51-393.11-141.51s-85.1 7.85-91.56 137.18c-6.46 129.32 116.79 136.35 116.79 136.35"/></clipPath><clipPath id="b"><path d="M4211.11 4949.03s489.38-139.3 595.83-179.94c106.44-40.65 139.15-209.4 110.91-310.92-28.24-101.52-100.19-211.06-234.44-204.18-134.25 6.88-747.3 72.44-747.3 72.44s-106.02 108.4-35.9 420.51c70.12 312.1 175.18 241.13 310.9 202.09"/></clipPath><clipPath id="c"><path d="M2895.86 5428.44s886.89-131.88 1029.6-173.48c142.7-41.6 395.42-322.05 334.73-688.82-60.7-366.78-233.43-455.07-384.9-481.16-151.47-26.08-1062.77-133.82-1062.77-133.82s-315.09 66.01-354.71 721.04c-39.62 655.02 270.63 781.56 438.05 756.24"/></clipPath><clipPath id="d"><path d="M3295.13 4675.66c79.4 526.27-223.34 1019.34-628.52 1171.41-17.25 7.2-34.89 13.14-52.95 17.67-19.86 5.86-39.91 10.92-60.15 15.12-392.7 99.07-956.17 247.29-956.17 247.29-373.73 97.65-964.457-132.28-1126.97-1025.3-162.515-893.02 507.892-1298.11 720.04-1303.97 212.16-5.86 670.66-34.73 1039.73-53.89 467.89-45.35 978.28 357.01 1064.99 931.67"/></clipPath><clipPath id="e"><path d="M579.883 4857.31c-34.336 101.38-45.13 217.56-25.985 337.44 32.145 201.3 141.247 366.41 282.118 454.72-119.39-148.3-206.094-338.65-240.688-553.55-.004-.03-.012-.07-.015-.1-.08-.49-.153-.95-.23-1.44-10.696-66.97-15.84-133.25-15.83-198.17.005-13.01.216-26 .63-38.9"/></clipPath><clipPath id="f"><path d="M658.516 4702.98c-32.825 45.49-59.422 97.61-78.633 154.33-.414 12.9-.625 25.89-.63 38.9-.01 64.92 5.134 131.2 15.83 198.17.077.49.15.95.23 1.44.003.03.01.07.015.1 34.594 214.9 121.297 405.25 240.688 553.55 48.812 30.6 101.46 52 156.01 62.46-169.23-144.07-295.866-365.97-337.667-627.73-21.1-132.1-18.5-261.28 4.15-381.22"/></clipPath></defs><path d="M981.25 790.548c0 38.325-213.183 69.395-476.156 69.395S28.94 828.873 28.94 790.548c0-38.327 217.543-52.15 480.516-52.15s471.793 13.823 471.793 52.15" fill="#397176"/><path d="M700.405 523.192c-3.118-7.216-15.62-2.59-18.29-.3-2.67 2.288-36.616 42.844-95.56 27.012-58.942-15.833-47.67-89.457-47.67-89.457s-10.934-6.526-18.83-1.93c-7.892 4.593-10.754 89.86 63.64 109.317 74.394 19.457 119.84-37.4 116.71-44.64" fill="#393f42"/><path d="M628.084 395.42s-14.9 25.52-4.78 45.19c10.12 19.667 16.606-48.24 4.78-45.19" fill="#5f4e26"/><path d="M632.28 385.225s-18.186 108.347-16.34 115.98c1.844 7.63 53.727 30.52 87.3 13.733 0 0 12.21-27.76 19.84-100.863 7.63-73.105-87.748-70.052-90.8-28.85" fill="#f9cea2"/><path d="M723.514 454.56s-21.037-22.514-4.25-51.51c0 0-25.943 6.03-29.758 3.397-3.815-2.632.764-7.973 8.394-11.026 0 0-24.855 7.63-34.555 4.58s-8.613-11.44 0-13.73c0 0-28.118 18.32-37.984 16.03-9.86-2.29-6.26-8.362 0-10.977 0 0-24.36-2.757-22.07-28.7 2.29-25.942 20.6-40.44 29 0 0 0-4.576-33.482 26.708-41.54 31.284-8.06 25.18 13.307 16.023 20.937 0 0 44.254-3.815 58.75 26.706 0 0-1.525-15.26 5.34-18.31 6.87-3.054 12.24 15.26 7.648 21.364 0 0 19.058 0 17.53 9.153-1.523 9.155-11.443 6-11.443 6s21.996 41.29-9.92 67.635c-10.522 8.686-19.402 0-19.402 0" fill="#5f4e26"/><path d="M672.91 422.604s-5.397 25.847-9.565 26.42c-4.17.57-13.325-7.44-15.04 0-1.717 7.44 12.303 9.397 12.303 9.397s-16.432 2.28-16.882-8.82c-.45-11.1 9.567-8.58 14.593-4.58 5.02 4.01 14.59-22.41 14.59-22.41" fill="#bc7d51"/><path d="M683.75 430.504s17.2 8.557 21.78 10.105c0 0-8.394-8.6-12.59-10.11 0 0 9.1-2.25 14.497-2.28 0 0-12.273-3.466-23.686 2.273" fill="#140e0c"/><path d="M683.75 422.604s13.386 1.43 19.873-2.766c0 0-2.354 7.82-19.872 2.766m-40.04-19.554s12.99-6.178 17.95 3.397c0 0-1.89-2.82-17.94-3.396" fill="#392d17"/><path d="M654.03 424.875c-.506 4.543-3.208 7.97-6.035 7.654-2.826-.32-4.707-4.26-4.2-8.8.505-4.54 3.206-7.97 6.034-7.66 2.82.315 4.7 4.253 4.2 8.794" fill="#140e0c"/><path d="M658.403 505.906c1.557.2 3.2.276 4.942.2 18.73-.84 29.008-20.787 33.903-34.613-12.07.94-37.205 6.288-38.845 34.413" fill="#e48d8d"/><path d="M631.71 468.29s2.527 34.506 26.692 37.616c1.64-28.125 26.775-33.474 38.845-34.414 2.627-7.415 3.704-13.07 3.704-13.07-6.86 4.247-69.24 9.868-69.24 9.868" fill="#652825"/><path d="M712.398 454.56s4.577-18.79 24.416-16.455c19.837 2.335 6.232 38.54-8.394 38.196-14.625-.34-18.687-15.64-16.022-21.74" fill="#f9cea2"/><path d="M401.64 487.433l-67.91 331.772-26.136-2.666 67.722-337.64s12.087 8.53 26.324 8.53" fill="#826824"/><path d="M401.64 487.433h8.125L344.415 813.5l-10.684 5.705 67.91-331.773" fill="#503e14"/><path d="M664.9 422.604c0 8.83-7.16 15.987-15.988 15.987-8.83 0-15.987-7.15-15.987-15.98s7.157-15.99 15.988-15.99c8.828 0 15.986 7.16 15.986 15.99" fill="#9b7421"/><path d="M598.764 423.767s19.426-6.07 34.16-10.463c3.082-.92 5.99-1.664 8.41-2.468 11.35-3.77 17.78 5.01 18.223 10.11.544 6.248-.57 14.506-14.808 19.323-14.24 4.81-49.14 17.68-49.14 17.68s-10.64-.98-11.45-17.15c-.81-16.167 14.6-17.045 14.6-17.045" fill="#eeb646"/><g clip-path="url(#a)" transform="matrix(.125 0 0 -.125 0 1000)"><path d="M4825.07 4460.46s325.28 149.67 532.21 211.05c122.15 18.62 1.11-210.09-64.03-225.03-65.13-14.93-432.66-198.69-468.18-184.2-35.52 14.48 0 198.18 0 198.18" fill="#d7a42d"/></g><path d="M631.71 413.666s11.98-2.406 15.586 10.64c3.154 11.413-2.074 15.763-7.114 17.535l.682.61s12.447-4.15 14.878-6.29c2.433-2.148 5.82-6.583 5.914-11.16.095-4.58 1.813-11.875-4.34-14.02-6.15-2.147-12.446-2.19-12.446-2.19l-13.16 4.192v.696" fill="#9b7421"/><path d="M645.014 409.923s12.14 1.552 13.388 11.488c1.25 9.94-6.695 14.74-6.695 14.74s9.288-3.79 7.85-15.2c-1.436-11.41-14.543-11.02-14.543-11.02" fill="#6c4c16"/><path d="M526.39 381.37s61.17 17.414 74.477 22.494c13.307 5.08 17.394 26.175 13.864 38.865-3.53 12.69-12.52 26.38-29.3 25.52-16.78-.86-93.41-9.06-93.41-9.06s-13.25-13.55-4.49-52.57c8.77-39.01 21.9-30.14 38.87-25.26" fill="#eeb646"/><g clip-path="url(#b)" transform="matrix(.125 0 0 -.125 0 1000)"><path d="M4975.19 4539.61c-.08 22.98-1146.71 251.67-1146.71 251.67s-35.2-460.42 96.74-506.64c131.95-46.22 735.35-61.51 827.36-59.97 92.02 1.55 223.16 141.76 222.61 314.94" fill="#d7a42d"/></g><path d="M614.086 420.36s6.26 16.3-1.39 28.256c0 0 10.665-8.655 1.39-28.255" fill="#856018"/><path d="M361.983 321.445s110.86 16.485 128.7 21.685c17.837 5.2 49.427 40.256 41.84 86.103-7.587 45.847-29.178 56.883-48.112 60.145-18.93 3.26-132.84 16.727-132.84 16.727s-39.38-8.25-44.34-90.13c-4.95-81.877 33.83-97.695 54.76-94.53" fill="#eeb646"/><g clip-path="url(#c)" transform="matrix(.125 0 0 -.125 0 1000)"><path d="M4284.64 4837.43s-1293.11 50.49-1428.69 52.31c-135.58 1.82-355.7-18.4-441.28-.57 0 0-106.64-818.94 255.18-997.32 361.83-178.38 1217.26 121.95 1360.28 197.64 143.02 75.68 366 339.76 254.51 747.94" fill="#d7a42d"/></g><path d="M527.79 388.854c-.335-1.746 13.955 28.807-1.055 63.087 0 0 7.963-26.92 1.054-63.08" fill="#856018"/><path d="M332.416 476.304s13.993 22.57 39.29 20.6c43.044-3.358 56.85-53.265 59.14-56.295 2.288-3.03 78.97 0 78.97 0s-5.59 46.55-45.1 51.57c-39.51 5.02-94.092 18.18-119.344 9.49-13.577-4.68-23.432-8.7-30.145-40.06l2.61-.58s4.278 6.11 14.58 15.262" fill="#9c6f2b"/><path d="M441.145 482.164H424.74s32.43-17.53 40.06-28.1l19.838-.002s-9.538 19.085-43.493 28.102" fill="#3b2d14"/><path d="M435.14 478.944s17.695-9.198 31.356-20.645l57.227 373.11h-28.995l-59.59-352.47" fill="#826824"/><path d="M466.496 458.3h12.934l53.447 367.77-9.155 5.342L466.496 458.3m21.194 183.91a9.15 9.15 0 0 1-9.45 8.85l-117.82-3.845a9.156 9.156 0 0 1-8.854-9.45l-2.01-11.516c.165-5.06 6.704-6.66 11.76-6.49l117.822 3.84a9.156 9.156 0 0 1 8.852 9.45l-.3 9.15" fill="#503e14"/><path d="M481.935 643.166a9.156 9.156 0 0 1-9.45 8.853l-117.825-3.85a9.157 9.157 0 0 1-8.85-9.45l.298-9.16a9.157 9.157 0 0 1 9.45-8.85l117.824 3.844a9.157 9.157 0 0 1 8.854 9.45l-.3 9.15" fill="#99792e"/><path d="M478.558 638.476a5.438 5.438 0 0 1-10.868-.355 5.437 5.437 0 0 1 10.868.36" fill="#503e14"/><path d="M477.414 638.44a5.438 5.438 0 0 1-10.868-.356 5.436 5.436 0 0 1 10.868.355" fill="#826824"/><path d="M361.306 634.648a5.436 5.436 0 1 1-10.866-.355 5.436 5.436 0 0 1 10.866.355" fill="#503e14"/><path d="M360.16 634.61a5.436 5.436 0 1 1-5.255-5.61c3 .098 5.355 2.61 5.256 5.61" fill="#826824"/><path d="M411.89 415.543c9.926-65.784-27.916-127.418-78.564-146.427a46.615 46.615 0 0 0-6.62-2.208 94.18 94.18 0 0 0-7.517-1.89c-49.09-12.384-119.53-30.912-119.53-30.912C152.95 221.9 79.11 250.64 58.79 362.27c-20.31 111.625 63.497 162.262 90.01 162.994 26.52.733 83.834 4.34 129.968 6.736 58.486 5.67 122.285-44.625 133.123-116.457" fill="#eeb646"/><g clip-path="url(#d)" transform="matrix(.125 0 0 -.125 0 1000)"><path d="M339.766 5138.01l1619.024-153.35s1036.12-218.97 1436.01-293.37c399.89-74.41-278.05-942.59-934.05-1051.77-656-109.17-2015.523 174.94-2015.523 174.94s-312.993 892.47-105.46 1323.55" fill="#d7a42d"/></g><path d="M286.2 397.027c-12.865 80.577-76.174 137.453-141.4 127.036-65.23-10.415-107.676-84.18-94.81-164.755 12.868-80.577 76.177-137.453 141.405-127.037 65.228 10.42 107.675 84.18 94.808 164.76" fill="#f4d37f"/><path d="M74.385 363.202c10.736-67.23 62.277-115.285 116.567-109.977a85.548 85.548 0 0 0-5.068-.97c-56.134-8.965-110.614 39.98-121.687 109.32-11.073 69.34 25.456 132.82 81.588 141.784 1.71.27 3.415.49 5.12.65-53.243-11.86-87.255-73.58-76.52-140.81" fill="#c6931c"/><path d="M267.47 394.036c10.737-67.23-23.275-128.947-76.518-140.81-54.29-5.31-105.83 42.747-116.567 109.976-10.736 67.23 23.277 128.948 76.52 140.813 54.29 5.306 105.83-42.75 116.566-109.98" fill="#93dbdc"/><path d="M257.78 392.577c9.785-61.275-21.215-117.526-69.743-128.34C138.557 259.4 91.58 303.2 81.795 364.475c-9.785 61.276 21.216 117.527 69.742 128.34 49.482 4.837 96.458-38.96 106.243-100.238" fill="#bfeaef"/><path d="M400.85 336.174s42.986 93.847-36 165.5c0 0 87.43-53.197 36-165.5" fill="#856018"/><path d="M599.048 752.817s-25.028 15.447-34.184 15.447h-18.717s-3.455 14.497 0 18.312c3.457 3.815 48.6-2.29 65.705-7.63 0 0 24.706 3.053 27.773-2.29 0 0 3.83-12.207-4.564-22.89-8.39-10.68-36.01-.95-36.01-.95" fill="#1f1611"/><path d="M696.865 610.7s-62.685-25.56-92.384-3.43c-29.69 22.126-19.01 77.062-15.96 96.9 3.05 19.84 5.56 48.92 5.56 48.92s15.68 10.867 40.99.677c0 0-7.63-27.468-15.26-57.99-7.63-30.52-5.34-65.618 14.5-68.67 19.838-3.052 92.5 12.97 125.98 28.994 33.49 16.03 57.14-3.81 56.38-19.07-.764-15.26-93.85-24.41-119.794-26.32" fill="#393f42"/><path d="M889.104 720.835s10.783-8.35 20.488-7.22c9.704 1.13 16.663 19.063 18.765 23.26l-.643 5.173s2.235 3.14 5.162 11.262c2.928 8.12-5.623 29.374-14.183 34.87-8.562 5.5-38.515 4.4-38.515 4.4s-4.638-11.015-1-13.877 21-15.797 21-15.797 1.502-6.796-2.85-14.02c-4.353-7.222-10.95-21.17-8.224-28.05" fill="#1f1611"/><path d="M768.59 650.76s-20.603 140.395 19.074 150.314c39.677 9.92 93.087-25.09 106.06-39.624 12.97-14.535 16.785-9.957 16.785-9.957s3.05-38.15-22.13-36.625c0 0-41.93 51.87-71.71 58.737-29.78 6.867-24.22-71.088-3.34-125.58 0 0-28.728-20.92-44.75 2.735" fill="#393f42"/><path d="M719.428 492.816s-17.412 11.445-20.274 17.55c0 0 7.342 3.77 8.392 4.08 1.05.307 18.043-12.226 17.56-12.397-.486-.18-5.678-9.24-5.678-9.24" fill="#979999"/><path d="M745.7 492.816s-31.666 0-64.476 29.377c0 0 27.85 21.363 32.81 37.387 4.96 16.024 11.07 31.856-1.145 40.44-3.54 2.48-16.03 10.68-16.03 10.68s14.22 8.776 22.56 16.406c0 0 6.43-6.866 8.34-9.92 0 0 .38 16.025 2.67 17.17 0 0 6.9-2.29 12.222-1.91 5.325.383 66.366 10.303 75.522 18.314 0 0 40.44-110.638-72.487-157.944" fill="#393f42"/><path d="M696.865 507.314s9.975 7.066 18.36 11.735c0 0 15.404 13.83 11.438-9.07-1.938-11.19-23.312-25.26-23.312-25.26s-16.02 9.23-6.48 22.583" fill="#f9cea2"/><path d="M714.034 514.18l11.07 8.394-2.678-13.353.11-8.17 6.067-2.31s38.84 39.48 7.94 86.79c0 0 .015-24.8-11.438-38.53-11.454-13.732-21.754-35.26-21.754-35.26l10.69 2.453" fill="#caccc9"/><path d="M722.045 524.862s3.434-4.963 7.63-5.533l6.867 7.82s-8.28 5.34-10.626 5.72c-2.345.38-3.87-8.01-3.87-8.01" fill="#111"/><path d="M733.43 563.216s1.586-14.32-6.21-30.77c0 0 6.27-3.37 7.796-4.332 0 0 5.12 4.773 13.466 25.743 0 0-2.02 20.983-11.94 31.665 0 0 0-13.735-3.11-22.306" fill="#111"/><path d="M731.17 501.675s20.806 8.31 29.113 8.69c0 0 .295 19.076-5.047 30.14 0 0 11.827 7.63 19.838 6.485 0 0-17.16 29.616-38.53 38.532 0 0 25.852-36.586-5.373-83.847" fill="#575e60"/><path d="M703.732 512.273s-.762 17.55-4.196 26.706c0 0 8.393 7.63 22.51 10.3 0 0-5.017 8.06-8.012 10.3 0 0 14.115 18.69 22.508 25.94 0 0 1.328-18.44-6.082-29.77-7.41-11.33-24.238-35.92-26.728-43.49" fill="#575e60"/><path d="M736.635 588.956s-4.29 12.59-7.34 23.27c0 0-.96-17.93 7.34-23.27" fill="#1c1f21"/><path d="M714.034 514.18v10.682s-14.116-6.867-14.498-10.682l-.382-3.815s1.526 0 14.88 3.815" fill="#fff"/><path d="M699.154 610.876s17.825 13.338 20.273 16.23l9.833-11.48s-1.68 12.514 0 16.413c0 0 46.697-2.96 74.97 12.81 0 0-46.46-11.73-78.314-9.548 0 0-1.85-6.875 0-12.5 0 0-6.62 6.25-7.83 8.125 0 0-16.965-14.5-18.932-20.06" fill="#1c1f21"/><path d="M719.428 492.816l2.998 16.405 12.59 7.16s-4.578-21.65-6.486-23.56h-9.102" fill="#fff"/><path d="M727.48 591.426c-.7 1.64-.472 3.31.51 3.73.984.422 2.35-.568 3.05-2.208.7-1.642.472-3.312-.51-3.732-.984-.42-2.35.57-3.05 2.21m-4.264 14.03c-.347 1.75.22 3.338 1.27 3.546 1.05.208 2.18-1.042 2.528-2.792.346-1.75-.223-3.338-1.272-3.545-1.048-.21-2.18 1.042-2.526 2.792" fill="#1c1f21"/><path d="M561.32 465.582s12.902.383 16.216-4.075c3.313-4.458 4.548-7.732 4.548-7.732s-1.26-5.3-7.835-.848-6.39-.37-7.28-2.337c0 0 12.83-10.244 10.1-26.77 0 0-4.95-2.982-8.17 4.482-3.23 7.465-3.97 8.44-6.07 9.685 0 0 2.883-18.79-3.22-20.923-6.104-2.134-4.754 6.53-5.79 11.44-1.038 4.91-4.6 7.464-4.6 7.464s-.018-16.75-7.107-20.342c0 0-5.037 1.148-3.987 10.572 1.05 9.422-5.964 23.468-.37 32.103 5.593 8.64 18.82 4.69 23.55 7.29" fill="#f9cea2"/><path d="M745.7 492.816c-5.358 1.854-8.104 52.84-71.96 59.707-63.86 6.866-105.78-24.797-106.123-91.374 0 0-15.922-15.19-32.037-1.11 0 0 15.966 126.43 140.684 111.74 105.296-12.4 86.53-84.89 69.435-78.97" fill="#393f42"/></svg>