<?xml version="1.0" encoding="UTF-8" standalone="no"?><svg xmlns="http://www.w3.org/2000/svg" viewBox="0 0 1000 1000"><defs><clipPath id="a"><path d="M3488.46 3361.33s-272.62 156.42-431.06 170.48c0 0-2432.4-1455.14-2088.205-2326.97C1265.65 453.93 2517 1215.39 2682.79 1394.65c0 0 8.39 442.32-151.35 421.52 0 0-613.18-579.69-961.17-526.97-347.99 52.73-115.99 390.17 126.54 611.62 242.54 221.45 1209.75 963.79 1258.68 993.34l-193.61-483.09s715 428.28 726.58 950.26z"/></clipPath><clipPath id="b"><path d="M4165.79 3361.33s361.73 145.88 470.16 170.48c108.43 24.61 1690.2-1019.36 2038.2-1462.26 347.99-442.9 316.35-1170.52-558.9-949.07-875.25 221.45-1223.49 558.89-1223.49 558.89l147.8 518.02s485.16-370.38 748.79-507.47c263.63-137.09 474.53-179.27 569.44-137.09 94.91 42.18 52.73 221.45-284.72 485.08-337.45 263.63-1153.49 856.25-1153.49 856.25l-86.18-286.81s-662.72 614.5-667.61 753.98z"/></clipPath><clipPath id="c"><path d="M3215.32 5808.97s-543.07-1745.29-500.89-1903.47c42.18-158.18 1328.69-326.9 1439.41-221.45 110.73 105.45 379.63 1486.87 390.18 1623.96 10.54 137.09 147.63 358.54 63.27 448.17-84.36 89.64-1054.52 290.13-1391.97 52.79z"/></clipPath><clipPath id="d"><path d="M4491.29 4764.93s-247.81 374.36 89.64 875.26c0 0-342.72-189.82-537.81-152.91-195.09 36.91-58 179.27-58 179.27s-395.44-184.54-595.8-121.27c-200.36 63.27 0 121.27 0 121.27s-258.36-47.46-390.17 116c-131.82 163.45 89.63 147.63 137.08 137.08 0 0-363.81 184.54-289.99 569.44 73.82 384.9 553.62 395.45 632.71 316.36 79.09-79.09 31.64-358.54 31.64-358.54s279.45 474.03 643.25 397.83c363.81-76.2 210.91-413.65-68.54-550.73 0 0 579.99 26.36 753.98-216.18 0 0 147.64 174 316.36 105.45 168.72-68.54-163.45-242.54-189.82-237.26 0 0 295.27-126.55 216.18-263.63-79.09-137.09-258.36-52.73-258.36-52.73s258.36-811.98-432.35-864.71z"/></clipPath></defs><path d="M635.14 833.587s107.548 112.695 173.158 195.517c0 0-72.296-69.047-173.158-195.517m168.007 20.85s110.59 52.656 180.947 96.91c0 0-72.96-29.61-180.947-96.91m5.277-177.45s110.23 7.458 183.79 22.06c0 0-71.09-.218-183.79-22.06M680.987 508.8S858.652 387.94 984.99 315.35c0 0-110.87 81.79-304.003 193.453M613.1 526.375s166.61-154.21 287.173-249.933c0 0-102.975 102.88-287.172 249.933m-300.26 160.12s-99.19-31.196-163.53-60.18c0 0 64.858 16.22 163.53 60.18m444.32-59.725s74.2-1.756 124.14 5.29c0 0-47.65 5.05-124.135-5.29m-90.14-350.176s55.95-103.1 103.757-166.822c0 0-31.083 68.915-103.752 166.822M280.6 379.85s-97.106-133.22-153.222-229.968c0 0 66.768 82.175 153.22 229.97M758.842 883.64s41.272 27.144 63.99 52.007c0 0-28.92-14.287-63.99-52.006M200.94 916.67s-20.442 28.748-40.356 42.472c0 0 10.192-21.142 40.355-42.47M602.11 462.66S821.38 171.324 978.682-19.32c0 0-136.17 189.684-376.564 481.98m29.614-295.44s46.57-92.113 69.007-150.74c0 0-34.95 60.876-69.01 150.74M349.42 281.515s-68.21-157.267-108.5-266.273c0 0 46.49 99.49 108.507 266.273m-41.94 307.205S97.755 364.268-37.137 205.63c0 0 137.678 140.53 344.626 383.09m-14.1 64.177S134.07 573.984 30.7 511.91c0 0 104.155 46.403 262.68 140.987m-45.833 43.775s-159.285-16.162-265.9-36.774c0 0 102.576 5.736 265.908 36.774m1.052 62.678s-155.21 39.295-262.45 56.39c0 0 98.352-29.692 262.45-56.39m-86 129.923S94.717 936.8 43.687 960.65c0 0 41.056-34.404 118.92-71.377m154.46-16.96s-54.44 77.078-97.094 124.84c0 0 32.096-51.463 97.094-124.84" fill="#fff"/><path d="M436.058 579.834s-34.078-19.553-53.883-21.31c0 0-304.05 181.892-261.026 290.87 37.05 93.865 193.47-1.318 214.2-23.725 0 0 1.04-55.29-18.92-52.69 0 0-76.65 72.46-120.15 65.87-43.5-6.59-14.5-48.77 15.81-76.46 30.32-27.68 151.22-120.476 157.336-124.17l-24.2 60.385s89.374-53.535 90.822-118.78" fill="#42464e"/><g clip-path="url(#a)" fill="#302f36" transform="matrix(.125 0 0 -.125 0 1000)"><path d="M3101.54 3190.85s-996.54-659.4-1363.21-993.46c-366.66-334.06-535.57-790.72-224.45-895.72 0 0-122.21 175 271.12 555s855.41 388.54 1002.5 487.92c147.09 99.39 657.24 338.19 314.04 846.26m-2001.1-2172.52s257.89-175.99 817.89 61.17c560 237.17 646.16 399.9 646.16 399.9L2690 1345s-980.78-825-1589.56-326.67"/></g><path d="M520.724 579.834s45.216-18.235 58.77-21.31c13.553-3.076 211.275 127.42 254.775 182.782 43.49 55.364 39.54 146.314-69.87 118.634-109.4-27.68-152.93-69.86-152.93-69.86l18.47-64.754s60.646 46.298 93.6 63.434c32.954 17.136 59.316 22.41 71.18 17.136 11.864-5.272 6.59-27.68-35.59-60.635-42.182-32.95-144.187-107.03-144.187-107.03l-10.772 35.85s-82.84-76.81-83.45-94.24" fill="#302f36"/><g clip-path="url(#b)" fill="#232025" transform="matrix(.125 0 0 -.125 0 1000)"><path d="M4635.95 3531.81S6145 2490.02 6478.33 2100.01c333.34-390.01 369.35-706.18 46.67-869.52-137.53-69.61-773.33 71.18-1525.18 481.07-246.26 134.26-122.74-91.94-122.74-91.94S6425 757.66 6798.33 1090.5c373.34 332.83 400 632.85 113.34 1009.51-286.67 376.66-1851.44 1460.28-2275.72 1431.8"/><path d="M5184.24 2089.59s151.72-170.14 110.84-312.92c-85.12-297.27-315.23-168.36-315.23-168.36s23.62 374.21 204.39 481.28"/></g><path d="M439.336 593.4l93.218-3.17s86.204 73.11 83.227 151.714c-2.97 78.6-153.51 233.165-153.51 233.165s-115.2-63.28-115.2-131.82c0-68.55 38.67-220.34 92.27-249.9" fill="#e1b31e"/><path d="M363.75 711.766s8.06 87.134 17.155 103.31C390 831.25 466.22 828.75 466.22 828.75l5.076-8.75 9.6 11.875s52.844-6.105 64.73-13.922C557.51 810.135 590 774.375 590 774.375s-24.57 65.384-59.785 100.504C495 910 467.55 974.51 467.55 974.51s-55.194-42.438-77.62-64.1C367.5 888.75 325 777.284 363.75 711.767" fill="#a98e25"/><path d="M457.576 596.813s-16.917 35.27-31.934 54.437c-15.017 19.166-38.266 65.62-42.18 86.25 0 0 11.402 4.012 5.7 25 0 0 12.347 12.41 1.644 29.145 0 0 25.217 19.9 11.11 33.236-14.107 13.34-43.218 1.81-43.218 1.81s-25.402-71.47 22.207-133.56c47.61-62.09 76.67-96.31 76.67-96.31" fill="#a98e25"/><path d="M472.33 815.075c14.654-14.456 92.11-129.61 92.11-129.61-102.105-17.445-167.088-4.485-167.088-4.485 7.28 61.612 74.977 134.095 74.977 134.095zM372.912 668.15s85.916-17.136 220.91 5.93c0 0-102.405 152.247-121.782 171.36 0 0-89.865-102.96-99.128-177.29" fill="#c24826"/><path d="M471.296 826.666c15.484-15.272 104.26-142.082 104.26-142.082-107.87-18.433-182.92-7.258-182.92-7.258 7.69 65.09 78.66 149.34 78.66 149.34zm-93.742-154.92s82.306-16.416 211.627 5.683c0 0-98.1 145.84-116.66 164.15 0 0-86.09-98.63-94.96-169.84" fill="#e24b24"/><path d="M494.186 716.245c.94-7.96-7.895-13.425-19.194-13.285-4.663.02-10.985 2.305-10.768 6.034.17 5.426 15.62 6.582 29.625 12.097 14.08 5.11 26.71 14.57 23.08 27.03-4.77 16.478-22.09 18.028-35.258 17.22-1.347-.11-2.7-.3-3.94-.48l-.173 6.87c-2.3-.14-4.6-.223-6.905-.25l-.197-8.425c-5.637-1.835-10.216-4.71-13.434-7.394-.15 2.734-.276 5.464-.38 8.19a150.82 150.82 0 0 0-19.85 3.098 93713.12 93713.12 0 0 1-6.506-25.34 177.458 177.458 0 0 1 24.757-4.326c1.07 8.72 11.78 9.416 17.07 9.766 4.416-.03 10.75-.51 11.03-5.01.43-10.556-50.29-2.944-57.343-26.07-4.223-14.965 17.904-27.66 35.14-28.678a66.405 66.405 0 0 1 7.742-.17l-.188-7.89c3.794-.186 7.6-.28 11.4-.28l-.24 9.55c7.15 1.735 13.042 4.927 16.175 9.76a627.84 627.84 0 0 1 2.628-8.908 225.73 225.73 0 0 1 29.196 4.494c-2.17 8.948-4.34 17.896-6.508 26.845a198.354 198.354 0 0 0-26.98-4.43" fill="#c24826"/><path d="M434.375 744.01l17.5-3.594v20.2l-13.05 1.884-4.45-18.49m62.915-29.946L500 692.17l22.71 4.496-4.63 20.26-20.79-2.862" fill="#e24b24"/><path d="M500 706.926s-8.072-16.195-30.052-16.584c-21.98-.39-43.095 9.052-40.895 21.424 2.2 12.372 22.555 18.89 39.98 20.644 17.426 1.756 24.573 6.44 20.166 11.6-4.41 5.156-31.08 3.49-37.33-3.594v6.598s7.23 9.722 23.2 12.812 35.51-1.494 38.05-12.326c2.54-10.832-9.86-22.916-38.057-28.75-28.197-5.834-20.02-18.523-3.9-18.427 16.12.093 24.23 4.526 26.12 13.74l2.71-7.137" fill="#e24b24"/><path d="M365.92 817.066s6.21 27.393 17.54 46.62c11.33 19.23 39.41 32.11 49.665 33.397 7.88.99 27.376-22.204 27.376-22.204s13.24 16.56 18.27 18.17c5.03 1.61 23.97-1.56 30.22-4.62 6.25-3.05 22.38-27.07 22.38-27.07s-62.41 97.38-65.74 110.713c-3.33 13.333-37.2-31.18-67.76-54.34-30.57-23.16-44.146-71.527-31.94-100.677" fill="#8e7928"/><path d="M451.46 593.75s-5.68 15.17-6.174 21.35c-.494 6.183 26.463 19.223 36.175 18.65 9.72-.573 7 29.67 16.42 38.167 9.42 8.5 37.27 16.283 52.26 7.014 14.99-9.26 22.57-15.33 22.57-15.33s-52.074.16-58.74-8.6c-6.67-8.75-5.204-24.58-5.204-24.58s14.035-7.79 18.918-23.99c4.88-16.19-18.917-34.49-18.917-34.49s-51.126.47-57.298 21.82" fill="#a98e25"/><path d="M459.168 526.888c3.382 2.636-8.688 60.97-.033 73.273 8.655 12.31 27.33 14.94 34.69 10.55 7.36-4.39 13.543-18.79 15.3-27.57 1.758-8.79 10.105-56.24 10.105-56.24h-60.063" fill="#eccca0"/><path d="M459.168 539.38s23.818 13.035 38.07 12.992c0 0 2.732 53.777-6.003 59.453 0 0 13.29-4.063 17.902-27.944C513.75 560 519.23 537 519.23 537l-60.063 2.386" fill="#d5a474"/><path d="M457.576 596.813l4.845 7.14s5.08-2.078 3.8-11.65c-1.27-9.574-7.6-43.405-7.6-43.405s-.85 33.59.19 38.917c1.04 5.327.03 5.545-1.23 8.998" fill="#ddb283"/><path d="M613.21 791.645s-21.32 66.978-3.606 108.5c17.715 41.52 57.993 107.81 57.993 107.81s-56.695 20.71-127.246 38.504c0-.01-21.63-15.82-36.86-28.35s-33.96-52.727-4.16-86.34c29.796-33.61 113.89-140.135 113.89-140.135" fill="#302f36"/><path d="M610.274 818.825s-11.493 32.928-52.238 75.594c-40.745 42.66-72.36 81.69-58.218 116.34 0 0-21.21-10.56-16.45-42.95 4.757-32.4 84.655-125.81 126.906-148.99" fill="#232025"/><path d="M564.734 581.38s-25.732-12.31-40.67-29.007c0 0-17.394 13.507-14.63 29.162 2.766 15.654 4.958 8.185 4.958 8.185s30.94 7.48 50.342-8.34" fill="#abaead"/><path d="M516.365 543.104s-13.89 21.57-11.634 42.68c1.38 12.838 26.64 38.875 26.64 38.875s-25.32-35.82-7.3-72.29l-7.7-9.27" fill="#dedfdd"/><path d="M518.08 586.548s55.607 28.445 98.9-10.774c0 0-7.484 60.946-20.76 84.24 0 0 30.78 26.81 56.644 18.9 0 0 18.893 123.027-112.513 195.965 0 0 85.59-116 71.12-157.3-14.47-41.31-70.17-92.92-75.71-92.92-5.54 0-18.03-11.76-17.5-32.36" fill="#5c6268"/><path d="M646.875 743.96c.385 1.26 3.61-21.633-2.775-31.018-6.6-9.696-22.9-12.62-22.9-12.62s17.654 17.36 25.675 43.637" fill="#d3a272"/><path d="M572.7 643.655S538.1 619.89 525 595c0 0 40.002 26.22 81.876-8.453l-5.626 25.278s-23.288 24.786-28.55 31.83" fill="#717c80"/><path d="M517.41 604.785s21.526 31.935 41.33 55.23c19.808 23.292 40.006 47.9 40.006 90.96 0 30.902-134.23 171.57-136.53 207.054-2.302 35.48 17.963 81.17 23.21 85.57l28.967-16.7s-24.554-20.21-26.774-46.58c-2.22-26.363 34.15-69.304 71.12-105.45 31.36-30.666 112.07-106.33 70.15-165.21-22.29-31.29-105.02-87.1-110.64-117.36l-.843 12.48" fill="#c6c5c3"/><path d="M605.383 785.56s-3.614 4.394-9.648 11.726c-3.15 3.55-6.89 7.86-11.205 12.607-4.353 4.712-9.19 9.958-14.425 15.473-10.398 11.104-22.34 23.385-33.355 36.507-10.693 13.305-22.355 26.304-27.995 40.703 0 0 .29-.86.853-2.54l.487-1.413c.21-.51.438-1.07.686-1.68.26-.61.53-1.268.82-1.976l1.06-2.21c1.515-3.128 3.62-6.906 6.456-11.134a206.514 206.514 0 0 1 4.698-6.724c1.76-2.34 3.63-4.84 5.615-7.47l3.08-4.06c1.04-1.4 2.246-2.73 3.41-4.14 2.365-2.8 4.823-5.76 7.462-8.79 2.71-2.97 5.537-6.06 8.47-9.28 2.96-3.2 6.13-6.43 9.376-9.81 13.016-13.48 28.416-28.2 44.17-45.8m15.406 5.844l-4.31 4.646c-1.404 1.495-3.09 3.37-5.133 5.48l-6.996 7.187c-5.257 5.303-11.64 11.594-18.897 18.6-7.253 7.01-15.38 14.73-23.93 23.084-4.31 4.15-8.638 8.538-13.116 12.98-4.37 4.54-8.926 9.1-13.315 13.95-4.5 4.747-8.794 9.8-13.175 14.84l-6.34 7.798c-1.084 1.286-2.08 2.64-3.08 3.99l-3.02 4.04c-1 1.354-2.04 2.68-3.01 4.055l-2.823 4.175c-1.852 2.804-3.86 5.505-5.51 8.416-1.723 2.87-3.44 5.727-5.15 8.57a34785.85 34785.85 0 0 1-4.61 8.757c-5.942 11.654-8.934 24.316-9.605 36.377l.104-4.217c.18-2.78.4-6.947 1.447-12.315a88.37 88.37 0 0 1 2.172-8.91c.46-1.624 1.087-3.282 1.665-5.04.34-.86.683-1.74 1.04-2.64.355-.896.693-1.825 1.163-2.71 1.795-3.57 3.61-7.49 5.788-11.552l3.56-6.188 1.866-3.24c.63-1.095 1.374-2.14 2.073-3.236a8501.06 8501.06 0 0 1 4.395-6.71c1.493-2.303 3.24-4.514 4.92-6.863 3.32-4.73 7.22-9.366 11.17-14.31 8.17-9.66 17.53-19.737 28.017-30.108 10.474-10.39 22.08-21.055 34.367-32.368 12.28-11.323 25.29-23.262 38.272-36.534" fill="#868d8f"/><path d="M518.08 888.42c-1.45-.47 27.232-33.164 37.232-42.98 10-9.815 35.625-41.31 41.25-41.5 5.625-.19-5 11.894-27.812 33.35-22.813 21.46-47.998 51.995-50.67 51.13" fill="#e9e7e3"/><path d="M591.563 795.14s-6.44-3.442-8.69-3.596c-2.248-.154-35.06 45.053-47.873 60.887-12.813 15.84-70.313 85.39-70.313 104.76 6.61 9.02 7.44 17.32 10.313 32.95 3.355 7.82 7.103 5.94 5.895 4.07-1.208-1.872-7.633-18.46-4.195-36.9 3.438-18.44 24.55-47.16 24.55-47.16s14.375-35.12 41.25-60.624c10.45-9.916 49.063-54.375 49.063-54.375" fill="#e9e7e3"/><path d="M615.857 803.938c-2.14-1.83-28.6 22.512-40.198 34.912-11.6 12.4-60.35 62.712-72.85 82.088-12.5 19.375-20.77 42.812-19.45 46.875 1.32 4.062 6.63-10.313 13.51-25 6.87-14.688 36.25-46.193 48.12-57.94 11.875-11.748 75.464-76.998 70.858-80.936m-55.54-143.923S530.625 624.062 525 610c0 0 30.938 36.563 42.5 43.75l-7.188 6.264M590 697.188s10.49-2.13 16.183-6.845l14.607 13.407s-14.227.313-25.165 6.563c0 0-4.155-10.32-5.625-13.125" fill="#e9e7e3"/><path d="M650.06 768.987c5.648-21.748-10.546-53.165-21.092-60.195-10.545-7.03-44.378 7.483-48.772 15.605-4.393 8.122 10.473 13.56 10.473 13.56s-11.7 6.864-11.35 15.083c.52 12.165 13.88 13.804 13.88 13.804s-12.44 1.705-13.826 12.25c-1.384 10.545 21.463 15.378 30.25 18.453 8.79 3.077 31.637 5.273 40.425-28.56" fill="#f2d0a5"/><path d="M623.64 707.067s11.762 13.35 0 24.6c0 0 11.465 20.833-3.275 34.583 0 0-.05 18.75-4.27 23.334-4.22 4.582 6.386 9.377 6.386 9.377s14.16 1.33 23.03-17.57c8.87-18.89 8.5-34.13-2.15-54.43-10.64-20.29-15.03-19.83-19.71-19.89" fill="#ddb283"/><path d="M656.58 712.49c-1.248-3.6-3.266-6.882-6.27-9.257-.724-.573-1.71.338-1.036 1.035 2.696 2.788 4.21 6.3 5.312 9.973.968 3.23.75 6.83 2.048 9.9.287.68 1.19.35 1.392-.18 1.314-3.44-.303-8.16-1.446-11.46m4.735-10.265c-.917-.88-2.205.44-1.38 1.38 1.798 2.05 3.106 4.4 4.098 6.93.776 1.988.937 4.116 1.843 6.05.277.59 1.042.32 1.232-.16 1.966-4.94-2.412-10.964-5.793-14.2" fill="#fff"/><path d="M593.822 736.933s12.22-5.267 24.72-4.433c0 0-17.14 5.53-24.72 4.433m1.803 29.225s11.723-.663 22.503.587c0 0-12.745 2.84-22.503-.588" fill="#c19766"/><path d="M331.394 838.85s-5.834 48.36-4.564 80.2c1.27 31.843-40.727 100.024-40.727 100.024s91.167 38.59 149.954 37.93c0 0 16.985-5.933 19.103-36.25 2.118-30.318-21.42-84.11-57.104-101.703-35.685-17.59-70.616-67.02-66.662-80.2" fill="#42464e"/><path d="M336.25 863.688s25.617 61.102 52.913 86.416c27.296 25.312 20.16 74.027 8.19 85.312-11.972 11.285-91.69-8.665-91.69-8.665s75.26 29.56 133.16 28.81c0 0 24.512-18.86 14.407-64.914S336.25 863.69 336.25 863.69" fill="#302f36"/><path d="M449.08 589.72s-45-.44-64.536-25.045c0 0-9.738 43.938 8.65 85.24 0 0-30.968.358-54.183-11.685 0 0-45.18 125.43-17.06 179.723 0 0 27.31-75.768 47.49-111.797 20.18-36.03 79.65-116.436 79.65-116.436" fill="#5c6268"/><path d="M313.082 757.683s5.627-26.837 28.278-33.285c0 0-10.29 17.965-14.53 31.766 0 0-14.265 8.91-13.748 1.52" fill="#f2d0a5"/><path d="M389.163 655s-30.773 5-45.905-8.334c0 0-18.194 58.04-22.288 81.668 0 0 11.74-6.668 16.946-9.168 0 0 41.034-54.58 51.247-64.165" fill="#717c80"/><path d="M449.08 610.22s-67.306 80.12-79.644 117.905c-12.337 37.788-7.065 127.86 23.758 164.33 20.092 23.77 64.395 41.3 73.027 76.452 8.64 35.15 12.59 72.06 8.86 74.695l-25.9-7.03s14.23-57.998-28.375-87.877c-42.605-29.878-90.45-55.876-93.964-120.39-3.515-64.515-7.52-78.21 27.633-121.27 35.15-43.06 87.218-103.808 94.618-117.315 7.403-13.51 0 20.5 0 20.5" fill="#c6c5c3"/><path d="M408.795 925.665s-42.63-37.826-48.047-96.16l3.21-.755s2.956 52.506 51.697 86.625c48.74 34.12 49.554 52.96 52.886 74.625 3.34 21.666 2.71 45.416 2.71 45.416l-16.09-2.916s4.96-31.344-8.28-61.835c-9.362-21.574-23.7-34.296-38.08-45" fill="#e9e7e3"/><path d="M462.442 958.503s15.53 27.31 13.3 64.267c0 0-3.046-33.89-13.3-64.267" fill="#6f7478"/><path d="M358.788 803.94l-.377 3.58c-.29 2.31-.47 5.7-.6 9.924-.04 4.23-.004 9.312.57 14.995.2 2.84.67 5.82 1.08 8.94.24 1.55.558 3.13.838 4.74.263 1.61.62 3.24 1.008 4.88 2.847 13.215 8.14 27.68 15.825 40.843 1.01 1.612 1.93 3.292 3 4.856 1.09 1.552 2.1 3.156 3.235 4.67 2.425 2.92 4.72 5.914 7.24 8.692 4.87 5.68 9.91 10.982 14.533 16.11 0 0-2.445-2.162-6.972-6.42-2.23-2.162-5.05-4.78-8.185-8.085-1.59-1.634-3.3-3.39-5.014-5.39-1.726-1.988-3.673-4.017-5.34-6.506-1.82-2.38-3.45-5.066-5.225-7.86-1.624-2.88-3.37-5.883-4.89-9.177a129.23 129.23 0 0 1-8.192-22.076 132.765 132.765 0 0 1-4.39-26.65c-.58-9.542-.148-19.715 1.866-30.08m-26.69 13.13l.29 2.05c.158 1.327.478 3.247.9 5.637.887 4.77 2.402 11.417 5.112 18.668.633 1.83 1.44 3.653 2.21 5.54.864 1.844 1.682 3.763 2.69 5.62.932 1.896 2.04 3.73 3.106 5.606 1.167 1.82 2.3 3.674 3.59 5.425 2.536 3.537 5.266 6.933 8.285 9.972 1.46 1.564 2.954 2.984 4.52 4.385.76.71 1.51 1.445 2.25 2.156.694.767 1.35 1.56 1.992 2.315l-1.07-.9c-.358-.293-.773-.683-1.308-1.097-.548-.4-1.18-.865-1.9-1.39l-2.436-1.748c-.86-.695-1.845-1.44-2.82-2.316-1.985-1.71-4.21-3.8-6.464-6.39-2.3-2.553-4.548-5.66-6.807-9.18a81.276 81.276 0 0 1-6.06-12.156c-3.612-9.05-5.974-20.06-6.082-32.2" fill="#868d8f"/><path d="M427.74 925.696c2.104 2.97 1.63 6.923-1.06 8.826-2.69 1.904-6.575 1.04-8.678-1.932-2.103-2.97-1.628-6.923 1.06-8.826 2.69-1.904 6.575-1.04 8.678 1.932" fill="#6f7478"/><path d="M426.816 926.35c1.705 2.407 1.32 5.61-.858 7.153-2.18 1.542-5.328.84-7.032-1.567-1.705-2.407-1.32-5.61.86-7.152 2.178-1.543 5.327-.842 7.03 1.566" fill="#93999a"/><path d="M397.9 903.612c-1.874 1.992-5.54 1.585-8.192-.907-2.653-2.493-3.287-6.127-1.416-8.12 1.872-1.99 5.54-1.584 8.192.91 2.652 2.49 3.286 6.126 1.415 8.117" fill="#6f7478"/><path d="M396.988 902.757c-1.517 1.613-4.49 1.284-6.638-.736-2.15-2.02-2.663-4.96-1.146-6.57 1.516-1.61 4.487-1.283 6.637.737 2.15 2.02 2.67 4.966 1.15 6.58" fill="#93999a"/><path d="M461.75 970.665a6.59 6.59 0 1 1-13.18-.002 6.59 6.59 0 0 1 13.18.002" fill="#6f7478"/><path d="M460.5 970.665a5.34 5.34 0 1 1-10.68-.002 5.34 5.34 0 0 1 10.68.002" fill="#93999a"/><path d="M441.81 606.426c-2.44-3.064-62.468 73.063-78.373 92.19-13.28 15.97-25 34.194-27.187 38.883 0 0 18.295-5.6 23.125-2.5 0 0 13.06-30.63 21.53-41.88s65.526-80.9 60.905-86.7M337.916 835.83s8.52-2.427 11.658-3.96c0 0 1.5 24.168 9.385 40.836 0 0-14.8-13.75-21.05-36.877" fill="#e9e7e3"/><path d="M328.75 837.29h2.5s5.834 24.748 27.71 47.583c21.874 22.835 55.324 48.46 63.286 56.377 7.963 7.916 8.588 11.484 1.504 6.68-7.084-4.805-45.998-30.46-62.084-46.68-16.085-16.22-26.04-30.834-32.916-63.96" fill="#e9e7e3"/><path d="M401.915 601.144s30.317-31.637 36.91-42.62c0 0 10.85 16.696 10.256 31.196 0 0-16.84 7.91-47.16 11.424" fill="#abaead"/><path d="M458.62 548.898s-1.078 35.988.547 40.822c1.625 4.832-8.48 19.77-20.343 32.954 0 0 9.666-36.91 0-64.15l19.797-9.626" fill="#dedfdd"/><path d="M303.054 796.67c0-18.46 8.16-46.2 24.95-54.077 16.79-7.877 51.225-6.998 52.9 5.305 1.678 12.302-9.307 15.817-9.307 15.817s11.864 7.03 11.864 19.773c0 12.742-10.98 15.667-10.98 15.667s8.95 6.645 8.43 15.92c-.52 9.275-20.29 11.473-28.2 12.35-7.91.88-17.57 8.35-24.16 7.03-6.593-1.317-25.486-11.422-25.486-37.786" fill="#f2d0a5"/><path d="M304.55 756.207c-3.572.627-5.505 4.852-6.81 7.8-1.205 2.723-3.67 8.037-1.93 10.956.3.508.985.462 1.298 0 1.48-2.19 1.61-5.753 2.448-8.267.888-2.666 2.594-7.522 5.477-8.737 1.068-.45.692-1.96-.483-1.76m-12.866 1.934c-3.505 3.015-6.87 9.39-5.09 14.132.262.695 1.126.674 1.395 0 .71-1.8.64-3.948 1.02-5.846.54-2.68 1.79-5.276 3.88-7.072.84-.724-.38-1.934-1.217-1.215" fill="#fff"/><path d="M337.916 739.34s6.46 10.64-1.666 21.275c0 0 14.273 14.55 2.76 31.03 0 0 14.74 25.793 9.428 36.76 0 0 31.498-2.63 32.467-13.33.97-10.7-8.43-15.92-8.43-15.92s12.04-4.98 12.236-14.417c.25-11.767-7.76-17.308-13.11-21.023 0 0 9.31-.902 9.97-13.09.93-17.25-33.73-14.536-43.644-11.285" fill="#dcb787"/><path d="M341.36 760.615s16.59-2.696 25.686 1.885c0 0-16.2-.02-25.686-1.885m7.078 39.232s10.937-2.72 20.52-.867c0 0-15.423 2.522-20.52.868" fill="#ae7c50"/><path d="M442.324 585.785s7.484 25.464 35.165 31.176c27.68 5.72 40.76-24.65 40.76-24.65s4.45.94 1.39 7.09c0 0-7.425 27.62-42.16 27.678-23.73.04-34.68-30.754-34.68-30.754s-3.576-8.31-.486-10.527" fill="#222025"/><path d="M475.566 616.525c10.188-1.863 29.795 29.875 29.04 37.345-.753 7.47-31.51 7.47-35.465 3.515-3.95-3.955-5.6-38.66 6.43-40.86" fill="#222025"/><path d="M493.856 649.695s7.426 36.25 56.275 17.795c48.85-18.454 73.44-117.315 170.33-157.52 96.88-40.203 170.04-21.748 170.04-21.748l64.59 68.544-78.43 37.567s-73.157-31.175-164.11 12.093c-90.95 43.27-88.52 95.336-158.38 92.04-69.862-3.295-79.09-45.475-79.09-45.475l18.784-3.29" fill="#222025"/><path d="M481.46 655c-10.84.138-12.397-8.852-11.147-16.77 1.25-7.918 3.437-15.07 7.5-15.556 4.062-.486 25.315 20.72 21.562 26.39-3.752 5.666-12.15 5.862-17.914 5.936m247.92-142.5s-11.76 71.074-14.292 82.5c0 0-44.912 23.75-74.37 50.625-29.46 26.875-51.48 51.487-95.71 45.69-14.784-1.94-35.86-12.384-16.874-12.384 29.78 0 42.02-8.14 65.698-40.09 23.678-31.96 71.803-105.71 135.553-126.33m0 77.73s17.082-78.146 21.25-82.314c0 0 33.332-10.832 47.5-13.332l-23.336 85.25s-31.115 5.626-45.413 10.397" fill="#393941"/><path d="M397.353 646.666s-14.235-44.65-8.19-70.24c0 0 13.65 9.646 19.796 10.12l-15.87 19.79s21.36-.716 39.44-5.192c0 0-27 37.187-35.187 45.522" fill="#717c80"/><path d="M391.37 279.82s-34.27 61.293-17.136 102.155c0 0 30.317-93.59 31.636-98.86 1.317-5.274-14.5-3.296-14.5-3.296m177.29 147.63s2.72 23.07 7.623 35.59c4.9 12.52 4.612 24.38-3.812 25.04-8.42.66-25.56-13.84-25.56-13.84s6.6 41.52-18.45 20.43c-25.04-21.09 17.14-88.32 40.21-67.228" fill="#443c2b"/><path d="M401.915 273.88s-67.884 218.16-62.61 237.933c5.27 19.772 166.085 40.862 179.925 27.68 13.84-13.18 47.454-185.858 48.773-202.994 1.317-17.14 18.453-44.82 7.908-56.03-10.54-11.208-131.81-36.27-173.99-6.6" fill="#f2d0a5"/><g clip-path="url(#c)" transform="matrix(.125 0 0 -.125 0 1000)"><path d="M3126.45 5518.34s93.47-18.33 139.34 0c0 0 59.55-261.67 546.05-61.67 0 0 173.14-213.34 526.48-46.67 0 0-119.02-386.67-42.84-553.33 0 0-157-871.77-258.46-1020-101.45-148.23-1139.83-42.34-1322.59 68.83 0 0-60.64-85.7 31.63-140.6 92.27-54.9 1385.72-245.78 1495.66-113.68 109.95 132.11 267.13 1259.64 368.54 1512.54 101.41 252.91 259.84 726.24 77.29 832.91-182.55 106.66-1599.65 656.67-1561.1-478.33" fill="#ddb283"/></g><path d="M561.41 404.384s-30.975-46.795 11.206-109.408c0 0-42.84 23.728-67.226 19.114-24.386-4.614-7.25-22.41-7.25-22.41s-49.43 23.07-74.475 15.16c-25.045-7.91 0-15.16 0-15.16s-32.295 5.934-48.77-14.5c-16.48-20.43 11.203-18.452 17.134-17.134 0 0-45.48-23.067-36.25-71.18 9.22-48.112 69.2-49.43 79.09-39.545 9.88 9.89 3.95 44.82 3.95 44.82s34.93-59.25 80.4-49.73c45.475 9.53 26.363 51.71-8.57 68.84 0 0 72.5-3.29 94.25 27.03 0 0 18.454-21.75 39.544-13.18 21.09 8.57-20.43 30.32-23.727 29.66 0 0 36.91 15.82 27.022 32.955-9.888 17.136-32.297 6.59-32.297 6.59s32.295 101.5-54.044 108.09" fill="#5f5838"/><g clip-path="url(#d)" fill="#443c2b" transform="matrix(.125 0 0 -.125 0 1000)"><path d="M2983.3 5920.81s70.62-175.63 263.66-185.72c193.04-10.09 263.63 29.27 263.63 29.27s-126.83-115.72-22.13-169.36c104.7-53.64 548.56 169.36 548.56 169.36s5.56-209.36 101.77-214.36 471.47 110 471.47 110 15.32-95 169.74-125c154.42-30 146.86 160 146.86 160s161.34-115.95 264.74 9.53C5295 5830 5175 4710 4845 4480s-1837.29-99.82-2008.64 350.09C2665 5280 2641.59 5786.62 2983.3 5920.81m1066.33 932.2s342.3-279.02-91.33-603.01c0 0 442.91 153.33 538.14 346.67 95.23 193.33-162.19 459.36-446.81 256.34m-936.33-48.07s201.72 93.03 304.76-88.27c103.04-181.31-15.76-373.34-15.76-373.34S3562.46 6390 3538.59 6790c-9.51 159.54-343.65 203.21-425.29 14.94"/></g><path d="M549.548 394.498s15.19-15.817 38.227-15.82c23.035 0 27.68 30.318 17.135 48.113-10.545 17.8-40.413 33.07-58.657 0-10.546-19.11 3.294-32.29 3.294-32.29" fill="#ddb283"/><path d="M558.125 412.48s15.637-15.176 27.82-13.515c12.18 1.66 15.305 12.684 14.055 19.36 0 0-3.125-27.118-41.875-5.846" fill="#c19766"/><path d="M385.7 418.324s10.124 5.426 22.524 8.342c12.4 2.918 22.03 3.334 22.03 3.334s-15.74 8.334-37.06 2.5-7.495-14.176-7.495-14.176" fill="#ddb283"/><path d="M430.255 381.975s-4.612 23.067-8.568 26.363c-3.955 3.295-19.112-9.887-25.703-9.227-6.59.66-13.948 21.09-8.29 26.37 5.653 5.27 30.038 9.23 30.038 9.23s-27.68 1.32-34.93-3.294-3.955-32.954 8.568-36.907c12.523-3.955 24.386 10.546 27.023 7.25 2.636-3.297 11.862-19.773 11.862-19.773" fill="#c19766"/><path d="M382.175 467.692s67.293-13.22 120.3 15.78c0 0-45.664-15.12-120.3-15.78" fill="#6e4934"/><path d="M497.262 377.714c-2.167 11.445-9.432 19.68-16.227 18.392-6.796-1.287-10.548-11.607-8.38-23.052 2.167-11.444 9.432-19.68 16.227-18.39 6.797 1.285 10.548 11.606 8.38 23.05" fill="#1f1718"/><path d="M488.608 369.228c-1.18 6.23-5.137 10.713-8.835 10.012-3.7-.7-5.742-6.32-4.563-12.55 1.18-6.23 5.136-10.713 8.835-10.012 3.7.7 5.742 6.318 4.563 12.55" fill="#fff"/><path d="M473.755 351.814s24.56-11.883 46.97-10.564c0 0-34.448-16.96-46.97 10.564m-48.113-4.77s-5.837-22.994-34.836-16.403c0 0 23.63 5.86 34.836 16.41" fill="#3e3528"/><path d="M413.752 368.955c-2.088 11.03-9.09 18.966-15.64 17.726-6.55-1.24-10.165-11.18-8.076-22.21 2.09-11.03 9.09-18.964 15.64-17.724 6.55 1.24 10.165 11.188 8.076 22.22" fill="#1f1718"/><path d="M404.22 359.692c-1.014 5.36-4.416 9.217-7.6 8.614-3.18-.602-4.94-5.436-3.924-10.796 1.015-5.36 4.418-9.216 7.6-8.614 3.183.603 4.94 5.436 3.925 10.796" fill="#fff"/></svg>