<?xml version="1.0" encoding="UTF-8" standalone="no"?><svg xmlns="http://www.w3.org/2000/svg" viewBox="0 0 1000 1000"><path fill="#418586" d="M950 811.59c0 37.7-220.25 64.3-455.665 64.3-251.655 0-455.663-28.788-455.663-64.3 0-35.51 204.008-64.296 455.663-64.296S950 776.08 950 811.59"/><path fill="#261b12" d="M504.304 811.595s39.266 13.615 44.257 16.337c5 2.723 21.79 25.414 25.87 23.598 4.09-1.815 19.52-14.975 21.78-30.63 2.27-15.66-43.56-28.365-52.64-27.458 0 0-7.96-7.7-15.43-8.168-7.46-.468-18.15 0-18.15 0l-5.68 26.32m-97.35-30.004s-37.66 14.22-43.56 19.817c-5.9 5.598 8.17 31.465 21.78 35.095 0 0 31.77-33.43 38.12-35.095 6.356-1.663 22.69-4.386 22.69-4.386s-20.8-22.68-39.03-15.43"/><path fill="#394042" d="M417.852 723.73s-63.67-5.77-77.286-8.53c-13.614-2.76-43.38-.036-50.867 5.26-7.49 5.292-5.45 26.395 0 32.52 5.44 6.128 214.6 66.505 227.53 69.228 0 0 13.86-20.422 11.35-38.802 0 0 106.27-7.247 114.44-18.987 8.166-11.74.44-40.29-11.014-43.03-11.45-2.75-91.636 7.47-109.335 6.49-17.697-.98-104.83-4.16-104.83-4.16"/><path fill="#1b1e1f" d="M340.566 732.806s131.837 33.583 187.27 41.75c0 0 .462 4.324.755 8.85l-3.64-5.446s-147.4-28.135-184.38-45.154"/><path fill="#1b1e1f" d="M610.27 736.264s-114.363 25.86-136.6 26.517c0 0 99.386-20.41 136.6-26.51"/><path fill="#364e59" d="M346.15 436.694s-4.992 5.597-3.63 11.875c1.36 6.27 27.71 72.08 32.395 76.24 4.688 4.15 17.117-1.74 17.536-1.86.42-.12-46.3-86.268-46.3-86.268"/><path fill="#f1fafb" d="M346.15 436.694c2.343-8.2 47.65-23.113 51.734-19.27 4.085 3.84 37.44 82.97 36.646 87.65-.795 4.684-47.84 21.02-51.09 19.66-3.254-1.363-38.197-84.864-37.29-88.04"/><path fill="#276363" d="M354.196 442.905c1.915-6.705 38.974-18.904 42.314-15.76 3.34 3.14 26.985 61.537 26.335 65.367-.65 3.83-39.128 17.193-41.79 16.08-2.66-1.115-27.6-63.088-26.86-65.687"/><path fill="#506f7b" d="M412.974 508.657a4.198 4.198 0 1 1-8.397 0 4.198 4.198 0 0 1 8.397 0"/><path fill="#394042" d="M349.772 476.245s-61.257 63.438-56.492 106.336c4.765 42.9 63.308 96.63 153.162 8.16 0 0 12.875-18.41 7.262-26.8-5.615-8.397-19.288 18.665-44.928 35-25.64 16.34-61.72 30.18-82.14 2.498-20.422-27.68 5.94-67.55 33.603-96.967l-10.47-28.216"/><path fill="#fcd0a4" d="M349.772 483.89s-6.538-8.78-3.64-13.082c2.9-4.302 19.985-12.488 24.523-10.594 4.54 1.894-10.49 13.96-12.63 18.684 0 0 19.817-8.937 23.03-2.653 3.215 6.284-13.686 16.72-13.686 16.72s16.32-4.082 21.15 0c4.82 4.086-19.29 15.448-23.77 15.693-4.48.245-11.35-4.825-8.17-10.245 0 0-10.08-7.232-6.82-14.523"/><path fill="#fff" d="M329.45 438.817a1.873 1.873 0 0 1-1.873-1.8c-.007-.197-.546-19.867 19.518-23.267a1.88 1.88 0 0 1 2.162 1.535 1.877 1.877 0 0 1-1.536 2.163c-16.77 2.842-16.42 18.75-16.39 19.427a1.88 1.88 0 0 1-1.8 1.94l-.07.003"/><path fill="#fff" d="M337.935 440.163c-1 0-1.833-.79-1.87-1.8-.197-5 2.52-14.98 14.214-16.962a1.883 1.883 0 0 1 2.16 1.54 1.876 1.876 0 0 1-1.54 2.17c-11.33 1.92-11.11 12.67-11.1 13.125a1.878 1.878 0 0 1-1.807 1.937l-.07.004m-15.378-2.284c-.99 0-1.82-.78-1.87-1.78-.014-.26-1.03-25.838 25.033-30.59a1.875 1.875 0 0 1 .672 3.69c-22.864 4.167-22.01 25.787-21.964 26.705a1.875 1.875 0 0 1-1.774 1.97h-.1"/><path fill="#262628" d="M741.546 518.24s2.413-29.816 4.088-30.27c1.675-.455 69.05-2.978 76.002-1.06 0 0-.28 26.05-1.952 31.57 0 0-9.753 2.077-12.565.85 0 0 1.32-20.72.22-21.785-1.1-1.064-51.8 1.124-51.83 1.613-.022.488-1.294 19.955-1.294 19.955s-10.53.66-12.68-.873"/><path fill="#0f0f0f" d="M861.822 526.145s-27.383-9.006-41.708-9.694c-14.327-.68-19.897 115.76-14.22 117.31 5.678 1.55 27.64 3.48 32.712 2.79 5.07-.68 20.88-74.42 23.216-110.4"/><path fill="#262628" d="M695.934 522.725c.82-1.93 121.418-11.2 130.635-4.713 0 0-11.2 109.606-20.68 115.743 0 0-76.59 10.104-114.6 3.815 0 0-7.897-85.34 4.633-114.845"/><path fill="#4e5152" d="M845.86 521.428s-10.255 87.637-23.897 114.513l2.676.23s17.37-34.92 24.08-113.95l-2.87-.782"/><path fill="#e5e6e3" d="M832.763 604.227s23.565 4.545 29.397 15.157l13.334-61.438s-15.6-6.185-32.593-7.277c0 0-7.03 35.7-10.13 53.55"/><path fill="#fff" d="M845.13 533.75s-5.295 43.87-10.382 62.614l21.58 7.863s13.332-66.305 13.332-70.477h-24.53"/><path fill="#191a1b" d="M691.303 637.57s15.53 2.655 24.13 3.675c0 0 88.357.046 123.173-4.703l-38.16-9.35s-97.85 10.884-109.143 10.378"/><path fill="#fcd0a4" d="M754.11 517.39s2.514-23.31 1.234-32.11c-1.28-8.8 2.048-10.047 4.062-10.525 2.015-.48 7.353 2.78 7.353 2.78s3.9-7.75 7.34-7.416c3.43.33 8.78 3.8 9.97 6.24 0 0 3.983-6.62 9.15-5.95 5.16.67 7.37 13.14 7.62 16.88.255 3.73-.867 12.34-.867 12.34s2.082.54 3.532 1.81c1.45 1.26-3.137 9.08-4.11 9.83-.973.75-16.22 8.94-19.685 9.86-3.463.92-25.613-3.75-25.613-3.75"/><path fill="#394042" d="M524.14 572.885s38.084 43.786 97.358 55.667c63.45 12.72 115.146-66.895 126.39-112.383 0 0 26.448-12.41 35.07 4.06 0 0-38.112 132.38-143.42 127.27-69.24-3.36-120.49-53.656-121.226-64.42-.735-10.77-4.63-17.79 5.83-10.207"/><path fill="#8a8d8d" d="M513.47 109.29s5.794 4.334 7.17 7.52c1.373 3.19-12.08 146.023-15.132 148.023-3.054 2-10.303 2.238-14.775 1.96-4.473-.28 22.737-157.504 22.737-157.504"/><path fill="#292a2c" d="M513.47 109.29c-1.43-4.745-100.117-14.19-106.18-10.812-6.06 3.377-21.234 140.826-19.04 149.507 2.19 8.683 104.883 20.83 108.594 18.65 3.71-2.182 18.992-149.497 16.626-157.346"/><path fill="#628e97" d="M504.24 116.184c-1.202-3.983-84.026-11.91-89.112-9.074-5.088 2.835-17.822 118.19-15.982 125.475 1.84 7.286 88.024 17.483 91.14 15.65 3.114-1.83 15.938-125.465 13.953-132.05"/><path fill="#a2a4a3" d="M436.595 253.492a4.272 4.272 0 1 0 8.357-1.78 4.272 4.272 0 0 0-8.357 1.78"/><path fill="#fcd0a4" d="M381.23 259.92s31.73-10.69 36.16-15.57c4.43-4.878-.62-12.988-.62-12.988s22.848-28.48 23.616-32.58c.768-4.1-8.105-6.147-8.105-6.147s-18.77 19.084-21.7 19.707c0 0-4.99-7.466-8.73-7.327-3.73.14-8.62 1.835-8.62 1.835s-2.47-3.41-6.43-4.536c-3.96-1.125-28.14 24.358-27.63 37.37.52 13.01 22.07 20.235 22.07 20.235"/><path fill="#394042" d="M445.875 558.582c-20.04-5.645-116.164-39.728-127.37-91.005-14.756-67.528 22.073-140.547 69.47-205.614 0 0-10.13-31.25-34.524-28.148 0 0-91.67 140.512-60.66 233.9 31.01 93.387 159.95 106.91 159.95 106.91s5.09-12.68-6.853-16.043"/><path fill="#fcd0a4" d="M509.31 251.454s-35.814-16.04-36.52-19.37c-.71-3.33 3.907-7.79 7.52-7.17 3.612.625 17.54 3.925 19.776 1.36 2.24-2.564 13.285-20.326 14.106-29.55 0 0 12.683 14.802 6.365 43.985l-11.247 10.74"/><path fill="#394042" d="M505.69 551.422c15.896-2.736 108.87-39.212 102.17-131.74-6.697-92.53-100.68-162.227-100.68-162.227s3.96-15.206 18.043-20.986c0 0 107.06 71.22 111.96 181.45C642.08 528.16 519.63 567.77 504.215 569.2c-15.412 1.425 1.475-17.778 1.475-17.778"/><path fill="#fcd0a4" d="M411.952 392.22s-1.815 141.59 4.538 147.49c6.354 5.9 80.325.906 87.133-9.53 6.807-10.44 9.53-61.72 10.437-74.88.907-13.16 14.07-52.19 14.523-59.45.453-7.26-17.245-33.58-55.82-33.127-38.574.453-66.257 11.345-60.81 29.497"/><path fill="#fcd0a4" d="M509.522 466.19s2.27-17.455 22.69-13.72c20.422 3.737 13.615 30.06 9.984 34.596-3.63 4.54-34.944 25.868-32.674-20.875"/><path fill="#614f26" d="M522.683 394.035s-29.952 16.337-36.305 11.345c-6.353-4.99 3.63-15.883 3.63-15.883s-44.02 22.773-50.373 16.832c-6.354-5.94 0-14.57 0-14.57s-28.136 19.06-43.113 8.62c-14.975-10.44-14.067-15.887-11.798-17.248 2.27-1.36 16.79-1.36 20.42 0 0 0-21.328-10.438-17.244-34.49 4.085-24.053 33.13-24.053 29.953 0 0 0 3.252-43.113 35.207-43.113 31.956 0 31.956 20.423 18.796 32.675 0 0 59.903-5.005 64.44 24.5 0 0 1.816-21.325 7.716-18.6 5.9 2.722 6.353 10.89 0 21.782 0 0 18.607-6.356 23.144 4.536 4.54 10.89 2.27 15.882 0 16.336-2.27.45-14.976-4.54-14.976-4.54s15.884 46.743-20.875 75.333l-14.52 3.176s-7.498-7.26-7.38-23.146c.117-15.88 9.334-39.07 13.277-43.563"/><path fill="#c38052" d="M453.704 444.18s0 15.885-2.95 16.565c-2.95.68-12.708-1.815-15.43 0-2.723 1.816-3.858 10.893 0 12.254 3.857 1.36 13.615 0 13.615 0s-16.34 8.39-18.84-1.82 2.72-14.53 7.71-14.07c4.99.45 11.8 1.81 12.48-.91.68-2.726 2.493-7.49 3.402-12.03"/><path fill="#140e0c" d="M468.452 444.18s7.942 11.574 22.464 0c0 0-13.615 19.743-22.464 0m-44.702 0s10.666 10.213 21.557 0c0 0-10.665 17.7-21.556 0"/><path fill="#392d17" d="M468.452 414.456s18.833 0 23.825 8.396c0 0-8.622-16.11-23.825-8.396m-22.01.682s-15.656-1.815-21.783 7.715c0 0 8.85-17.927 21.78-7.715"/><path fill="#d67a7e" d="M453.244 526.838c4.666 3.02 9.776 4.583 15.21 3.568 12.252-2.29 19.36-18.627 23.396-34.247-9.134 1.11-32.856 6.35-38.606 30.67"/><path fill="#692926" d="M426.248 488.2s10.805 28.157 26.996 38.637c5.75-24.32 29.472-29.565 38.606-30.678 3.96-15.33 4.965-29.97 4.965-29.97-6.353 2.04-70.568 22.01-70.568 22.01"/><path fill="#e9b082" d="M181.92 470.367s13.696 3.468 19.464 5.878c5.767 2.41 18.72 8.055 18.72 8.055s4.836 23.284 3.61 27.604c-1.228 4.32-24.408 7.65-24.415 7.666-.01.016-6.14-4.836-9.01-6.133-2.87-1.297-9.33-18.468-9.33-18.468s17.44 5.82 5.14-6.89c-12.297-12.71-4.19-17.72-4.19-17.72"/><path fill="#fff" d="M204.446 466.19c-5.786-10.21-24.994-10.21-24.994-10.21-2.658.846-4.32 4.296-5.32 9a4.04 4.04 0 0 1 1.005-.424s15.83 0 20.598 6.723c4.767 6.72 1.402 22.82-5.33 25.19-4.838 1.7-12.843 1.11-16.974.65.36 4.663.73 7.8.73 7.8s15.66 3.123 23.83-.47c8.17-3.6 12.254-28.06 6.468-38.27"/><path fill="#fff" d="M124.803 436.694s47.99 2.27 56.16 4.65c0 0-4.767 78.625-6.468 80.666-1.7 2.042-49.01 2.956-59.222-5.67-.44-11.41 9.53-79.646 9.53-79.646"/><path fill="#fcd0a4" d="M182.434 470.342s18.287 8.138 19.16 12.254c.875 4.116-.66 12.86-4.554 13.75-3.89.894-20.274-10.85-20.808-14.197-.532-3.35 2.11-11.07 6.202-11.81"/><path fill="#fcd0a4" d="M179.453 490.613s15.805 4.328 18.527 7.39c2.723 3.065.87 15.182-2.287 15.42-3.16.238-17.114-2.617-18.815-4.423-1.702-1.806-.297-16.59 2.575-18.388m42.352 22.826s9.87-6.712 9.87-17.28c0-10.567-4.935-19.913-4.935-19.913s-27.06 3.9-31.824 2.88c-4.765-1.02-2.382 13.615 3.064 13.955 5.445.34 17.7-.68 17.7-.68s-13.275 7.67-9.19 16.258c4.084 8.587 10.24 9.633 15.315 4.78"/><path fill="#666a6c" d="M149.65 433.97s-15.317-4.764-15.317-20.08c0-12.14 16.69-9.53 15.33-19.74-1.362-10.212-30.987-29.612 6.793-42.546 0 0-13.968 9.52-8.346 20.416 5.623 10.896 15.154 13.28 14.473 23.15-.682 9.87-31.654 11.23-12.934 38.8"/><path fill="#666a6c" d="M162.618 432.155s-9.225-9.076-5.14-13.84c4.083-4.766 22.69-8.85 18.662-20.083-4.027-11.23-11.97-20.76 0-30.29 0 0-2.71 9.19 0 15.315 2.255 5.097 13.856 17.7 9.97 24.847-3.89 7.147-29.925 7.26-23.492 24.05"/><path fill="#394042" d="M444.39 572.642s-40.832 97.084-126.604 78.705c-85.77-18.38-87.812-138.492-87.812-138.492s-23.145-5.14-31.994 8.475c0 0 21.955 139.564 122.53 146.366 80.324 5.434 125.207-51.292 130.874-74.21 0 0 6.938-31.426-6.995-20.843"/><path fill="#fefde4" d="M165.555 783.197s98.75-.64 102.917 0v50.268s-113.005.64-122.626 0c0 0 17.464-46.42 19.71-50.267"/><path fill="#394042" d="M215.207 786.227s-4.81 8.773-7.86 8.773c-3.05 0-4.09-5.416-6.59-5.625-2.5-.21-3.96 7.084-6.25 5.625-2.292-1.46-2.5-5.21-2.5-5.21s-2.292-.87-3.335.92c-1.04 1.79-2.977-1.335-4.717-1.335-1.74 0-8.05-.834-8.05-.834s7.38-2.16 10.074 0c2.69 2.17 2.9-.41 4.98 0 2.08.42 1.55 4.03 3.75 4.59 2.2.56 4.16-5.83 6.25-5.62 2.08.21 3.01 5.71 6.04 5.836 3.03.12 8.2-7.106 8.2-7.106m45.622 42.31h-103.04a.625.625 0 0 0 0 1.25H260.83a.625.625 0 0 0 0-1.25m0-6.958H160.207a.625.625 0 0 0 0 1.25h100.625a.625.625 0 0 0 0-1.25m0-7.207h-98.958a.625.625 0 0 0 0 1.25h98.958a.625.625 0 0 0 0-1.25m1.443-6.67h-97.35a.625.625 0 0 0 0 1.25h97.35a.625.625 0 0 0 0-1.25m189.11-194.21S378.85 701.863 287.54 725.39c-55.865 14.394-116.338 22.37-130.576 12.854-14.24-9.518-13.344-32.244-6.084-29.346 7.26 2.897 71.095 11.746 131.215-6.075 66.396-19.68 145.01-74.338 156.17-94.35 11.162-20.01 13.12 5.02 13.12 5.02"/><path fill="#364348" d="M173.925 784.174s2.385 4.84 3.406 4.33c1.03-.512.51-2.628-.51-4.33s-2.89 0-2.89 0"/><path fill="#468898" d="M125.528 683.91s-4.595 2.554-4.595 8 3.064 14.295 7.828 19.91c4.77 5.616 8.51 10.552 7.32 13.615-1.19 3.064 1.19 6.114 2.9 4.674 1.7-1.44.85-6.49-.41-9.91s-8.775-11.28-10.65-17.75c-1.87-6.467 1.108-8.54.555-10.105-.555-1.565-.212-6.57-2.935-8.445"/><path fill="#1a3a47" d="M175.906 760.337l-.005-.015c-1.02-2.893-27.94-78.963-30.82-82.707-2.87-3.744-8.26-3.01-11.72-1.53-4.76 2.035-9.19 3.4-7.83 7.826 1.36 4.43 26.8 75.56 31.61 82.37.2.29.43.59.65.89 4.67 1.02 11.78.77 18.12-6.82"/><path fill="#5eb2b9" d="M175.906 760.337c-6.344 7.598-13.452 7.85-18.12 6.828 5.044 6.853 12.878 18.084 16.14 19.063 0 0 3.413 0 3.96-1.778.293-.948-.953-21.175-1.98-24.113"/><path fill="#468898" d="M126.89 659.405c-4.133 1.58-4.765 7.32-3.064 11.742 1.702 4.425 3.574 10.893 4.595 11.743 1.03.85 10.39-.34 12.6-5.275 0 0-2.55-7.488-4.25-10.89-1.7-3.405-4.083-9.53-9.87-7.32"/><path fill="#fcd0a4" d="M131.655 736.326s-2.955 11.233 3.116 13.615c6.08 2.39 21.05.1 23.78-4.03s-3.4-8.55-5.783-9.58c-2.382-1.02-21.1 0-21.1 0"/><path fill="#fcd0a4" d="M125.528 721.35s-5.446 6.467 0 13.956c5.446 7.488 23.818 5.9 28.757 3.97 4.94-1.928 3.15-11.997-2.933-14.62-6.083-2.625-25.825-3.305-25.825-3.305"/><path fill="#fcd0a4" d="M120.423 708.644c-5.048 1.367-8.51 12.366 0 14.748 8.508 2.384 28.59 6.783 31.313 3.392 2.723-3.392 5.785-15.304-5.446-16.324-11.232-1.02-20.42-3.29-25.867-1.816m42.884-4.312c-3.758 0-5.87.342-6.168 8.51-.3 8.168-.64 21.555 6.16 23.03 6.804 1.475 9.53-5.33 9.53-12.48 0-7.147-2.04-19.06-9.53-19.06"/><path fill="#d0d1cf" d="M794.24 728.084s20.866-64.484 23.25-66.186c2.38-1.702 108.914 2.042 113 6.467 4.082 4.425-14.978 65.18-14.978 65.18l-121.273-5.46"/><path fill="#273539" d="M806.09 719.89s16.485-50.962 18.494-52.397c2.01-1.434 91.804 1.72 95.247 5.45 3.45 3.73-11.48 51.24-11.48 51.24l-102.26-4.293"/><path fill="#dbdcd9" d="M706.928 737.57s-.055-10.624 3.752-13.84c0 0 110.553-.568 116 .454 0 0 1.09 12.745.75 15.467-2.112.94-114.716-3.44-120.502-2.08"/><path fill="#6d7274" d="M826.68 724.184s85.43 3.375 91.215 3.9c0 0 .68 11.756 0 14.82 0 0-87.486-3.253-93.27-3.253-7.136 0 2.054-15.46 2.054-15.46"/><path fill="#1c494f" d="M687.41 809.274s.463-69.804 1.37-73.01c0 0 116.84 1.76 138.715 1.307 0 0 91.308 1.88 94.938 2.3v73.04s-15.43-.91-18.153-.45c0 0-2.27-21.33-3.63-23.595L847.1 787.5s-2.896 35.17-3.35 36.533c-.454 1.36-19.317 0-19.317 0l-2.523-38.35-111.407-3.63-3.575 28.27s-16.797.775-19.52-1.04"/><path fill="#6d7274" d="M930.49 668.365s4.43 1.8 4.43 4.85c0 3.053-14.75 61.43-16.747 66.463l-1.828-11.7s13.635-52.258 14.144-59.613"/><path fill="#fcd0a4" d="M823.856 678.494c-1.362-4.085-11.346-2.825-15.657-.68-5.57 2.767-19.06 13.266-19.06 13.266s-4.09-3.737-8.17-4.19c-4.09-.455-25.42 8.398-25.42 8.398-2.09 5.433-8.2 13.742 2.26 17.948 1.8 7.06 11.81 10.185 16.8 10.682 4.99.496 23.92 7.38 25.59 3.716 3.493-7.634-2.904-8.07-2.904-8.07s-12.625-.52-13.54-5.888c-.238-1.39.69-2.606 2.182-3.65 12.35-.823 20.55.462 20.55.462s3.06 6.126 4.763 9.87c1.703 3.743 10.893 4.083 11.574 3.063.68-1.02.68-5.1.34-8.16-.34-3.06-1.7-9.87-7.487-10.55-5.787-.68-14.296-7.132-14.296-7.132 4.083-7.475 12.25-7.5 12.25-7.5 2.045 8.85 10.21 8.85 12.936 5.22 2.72-3.626-1.364-12.71-2.726-16.792"/><path fill="#394042" d="M509.405 579.19c-3.82-9.835 6.054-13.12 15.393-6.396 9.338 6.722 53.855 160.196 239.43 115.91 0 0 12.932 20.65-3.404 30.634 0 0-101.41 14.863-169.48-34.83-68.074-49.692-79.56-99.19-81.94-105.317"/><path fill="#394042" d="M522.683 555.778c-2.475-7.812-55.97-9.325-80.703 1.567 0 0-12.783 126.676-18.23 144.375-5.444 17.7-12.48 21.33-12.48 21.33s49.02 21.783 58.66 19.06l5.96-11.346 6.404 11.58s56.272-10.673 64.44-15.664c0 0-10.89-26.775-13.614-37.666-2.723-10.893-6.353-120.345-10.438-133.237"/><path fill="#fcd0a4" d="M464.595 533.81s4.537 20.875 3.857 27.23c-.68 6.35 1.588 20.42 6.127 21.327 4.53.908 19.96-2.722 19.96-13.615 0-10.89-2.67-32.963-2.7-38.037-.028-5.074-27.257 3.095-27.257 3.095"/><path fill="#dfdfdd" d="M473.67 551.735s4.54 19.577 4.766 20.907c0 0 1.36-19.772 1.93-22.042l16.45 6.807s4.084 17.02 0 31.768c-4.085 14.75-17.246 62.172-17.246 62.172s-12.253-25.187-18.04-44.473c-5.785-19.288-8.973-44.474-8.286-47.198.686-2.722 20.427-7.94 20.427-7.94"/><path fill="#111" d="M473.67 575.334s9.304-2.043 10.892 0c0 0 3.858 12.706 3.63 14.295-.226 1.58-15.428 1.36-17.017 0-1.59-1.37 2.496-14.3 2.496-14.3"/><path fill="#111" d="M465.043 617.313s6.607-24.875 7.505-27.188c.896-2.31 12.242 0 12.242 0s2.95 25.37 3.856 29c.91 3.63-9.076 32.223-9.076 32.223s-12.717-24.957-14.527-34.035"/><path fill="#1b1e1f" d="M479 660.424s-1.144 52.187-2.126 61.263c0 0-2.174-41.036 2.127-61.263m-9.08 13.05c-.28 2.996-2.16 5.268-4.19 5.077-2.034-.19-3.457-2.77-3.175-5.76.28-2.99 2.157-5.262 4.19-5.072 2.037.19 3.46 2.774 3.18 5.768m.01 31.258c.13 3.006-1.415 5.514-3.457 5.606-2.042.09-3.805-2.275-3.94-5.28-.132-3.003 1.416-5.51 3.457-5.603 2.04-.09 3.803 2.27 3.94 5.277"/><path fill="#585f61" d="M455.29 558.785s7.716 60.568 24.28 92.563c0 0-30.63-19.288-41.296-32.45 0 0 16.337-14.974 18.152-16.563 0 0-16.564-10.21-18.152-12.026-1.59-1.82 14.44-29.54 17.017-31.53m39.6-7.28s25.75 24.503 27.8 30.175c0 0-19.97 13.84-25.87 15.43 0 0 15.66 8.85 19.52 14.523 0 0-24.734 29.95-36.76 39.706 0 0 13.39-48.253 15.32-55.213 1.925-6.96 4.02-34.49 0-44.624"/><path fill="#fff" d="M457.106 544.928l16.565 6.807s-3.26 20.215-3.74 20.875c-.47.66-17.81-9.076-18.49-10.438-.68-1.36 5.67-17.245 5.67-17.245m23.26 5.673s17.13-7.67 17.81-8.374c.68-.702 10.88 16.122 11.23 16.56.346.437-18.714 11.783-19.85 11.783-1.133 0-8.85-18.16-9.19-19.97"/><path fill="#1b1e1f" d="M411.27 723.05s42.73 19.512 58.66 19.06l5.96-11.346 6.404 11.58s47.196-7.95 64.44-15.664c0 0-51.96 19.892-66.37 20.61l-4.04-9.72s-5.83 9.91-7.872 9.72c-2.042-.19-57.183-24.24-57.183-24.24"/><path fill="#fcd0a4" d="M749.362 413.946s19.06-19.23 21.783-27.4c2.723-8.167 0-32.674 0-32.674s-10.665-13.613-13.84-3.403c-3.177 10.21-24.28 42.31-24.28 42.31s10.21 19.58 16.338 21.16"/><path fill="#804019" d="M775.91 323.43s-44.246-36.04-95.3-21.065c0 0 49.685 87.615 52.415 98.67 0 0 60.584-21.104 79.644 0 0 0 44.02-48.918 78.05-54.364l-48.11-75.24s-49.69 1.63-66.71 52"/><path fill="#b8bbb9" d="M775.91 317.955s-40.37-33.98-84.41-27.39c0 1.703-1.145 4.045-2.04 8.85 0 0 44.24 81.004 46.97 92.058 0 0 57.18-17.018 76.24 4.085 0 0 38.12-47.652 72.155-53.097v-8.32l-42.205-68.18s-49.69 1.63-66.71 52"/><path fill="#fff" d="M775.91 309.626s-33.355-34.036-84.41-19.06c0 0 42.2 81.524 44.93 92.578 0 0 57.18-17.018 76.24 4.084 0 0 38.12-47.65 72.155-53.095l-42.205-76.508s-49.69 1.627-66.71 52"/><path fill="#37383a" d="M778.01 312.39s21.953 43.755 31.936 67.92c0 0-18.05-56.077-31.937-67.92"/><path fill="#fcd0a4" d="M728.94 409.01s-21.1-22.462-23.144-29.27c-2.042-6.807 4.084-25.867 4.084-30.633 0-4.765 12.254-2.042 12.934 4.085.68 6.127-2.04 21.102-2.04 21.102s21.78 11.346 19.06 28.817c-2.725 17.48-10.894 5.9-10.894 5.9"/><path fill="#394042" d="M514.967 556.386S621.16 590.99 723.72 403.11c0 0 29.954 3.08 33.584 9.255 0 0-101.654 184.07-240.067 158.204 0 0-9.02-.82-2.27-14.19"/></svg>